<?xml version="1.0" encoding="utf-8" standalone="no"?>
<!DOCTYPE svg PUBLIC "-//W3C//DTD SVG 1.1//EN"
  "http://www.w3.org/Graphics/SVG/1.1/DTD/svg11.dtd">
<svg xmlns:xlink="http://www.w3.org/1999/xlink" width="1152pt" height="288pt" viewBox="0 0 1152 288" xmlns="http://www.w3.org/2000/svg" version="1.1">
 <metadata>
  <rdf:RDF xmlns:dc="http://purl.org/dc/elements/1.1/" xmlns:cc="http://creativecommons.org/ns#" xmlns:rdf="http://www.w3.org/1999/02/22-rdf-syntax-ns#">
   <cc:Work>
    <dc:type rdf:resource="http://purl.org/dc/dcmitype/StillImage"/>
    <dc:date>2025-04-15T11:45:04.472996</dc:date>
    <dc:format>image/svg+xml</dc:format>
    <dc:creator>
     <cc:Agent>
      <dc:title>Matplotlib v3.8.3, https://matplotlib.org/</dc:title>
     </cc:Agent>
    </dc:creator>
   </cc:Work>
  </rdf:RDF>
 </metadata>
 <defs>
  <style type="text/css">*{stroke-linejoin: round; stroke-linecap: butt}</style>
 </defs>
 <g id="figure_1">
  <g id="patch_1">
   <path d="M 0 288 
L 1152 288 
L 1152 0 
L 0 0 
z
" style="fill: #ffffff"/>
  </g>
  <g id="axes_1">
   <g id="patch_2">
    <path d="M 57.69 226.759107 
L 1134.72 226.759107 
L 1134.72 33.36 
L 57.69 33.36 
z
" style="fill: #ffffff"/>
   </g>
   <g id="matplotlib.axis_1">
    <g id="xtick_1">
     <g id="line2d_1">
      <path d="M 80.128125 226.759107 
L 80.128125 33.36 
" clip-path="url(#ped69deb403)" style="fill: none; stroke-dasharray: 3.7,1.6; stroke-dashoffset: 0; stroke: #cccccc; stroke-opacity: 0.3"/>
     </g>
     <g id="text_1">
      <!-- 0 -->
      <g style="fill: #262626" transform="translate(79.799983 247.118168) rotate(-45) scale(0.11 -0.11)">
       <defs>
        <path id="DejaVuSans-30" d="M 2034 4250 
Q 1547 4250 1301 3770 
Q 1056 3291 1056 2328 
Q 1056 1369 1301 889 
Q 1547 409 2034 409 
Q 2525 409 2770 889 
Q 3016 1369 3016 2328 
Q 3016 3291 2770 3770 
Q 2525 4250 2034 4250 
z
M 2034 4750 
Q 2819 4750 3233 4129 
Q 3647 3509 3647 2328 
Q 3647 1150 3233 529 
Q 2819 -91 2034 -91 
Q 1250 -91 836 529 
Q 422 1150 422 2328 
Q 422 3509 836 4129 
Q 1250 4750 2034 4750 
z
" transform="scale(0.015625)"/>
       </defs>
       <use xlink:href="#DejaVuSans-30"/>
      </g>
     </g>
    </g>
    <g id="xtick_2">
     <g id="line2d_2">
      <path d="M 125.004375 226.759107 
L 125.004375 33.36 
" clip-path="url(#ped69deb403)" style="fill: none; stroke-dasharray: 3.7,1.6; stroke-dashoffset: 0; stroke: #cccccc; stroke-opacity: 0.3"/>
     </g>
     <g id="text_2">
      <!-- 1 -->
      <g style="fill: #262626" transform="translate(124.676233 247.118168) rotate(-45) scale(0.11 -0.11)">
       <defs>
        <path id="DejaVuSans-31" d="M 794 531 
L 1825 531 
L 1825 4091 
L 703 3866 
L 703 4441 
L 1819 4666 
L 2450 4666 
L 2450 531 
L 3481 531 
L 3481 0 
L 794 0 
L 794 531 
z
" transform="scale(0.015625)"/>
       </defs>
       <use xlink:href="#DejaVuSans-31"/>
      </g>
     </g>
    </g>
    <g id="xtick_3">
     <g id="line2d_3">
      <path d="M 169.880625 226.759107 
L 169.880625 33.36 
" clip-path="url(#ped69deb403)" style="fill: none; stroke-dasharray: 3.7,1.6; stroke-dashoffset: 0; stroke: #cccccc; stroke-opacity: 0.3"/>
     </g>
     <g id="text_3">
      <!-- 2 -->
      <g style="fill: #262626" transform="translate(169.552483 247.118168) rotate(-45) scale(0.11 -0.11)">
       <defs>
        <path id="DejaVuSans-32" d="M 1228 531 
L 3431 531 
L 3431 0 
L 469 0 
L 469 531 
Q 828 903 1448 1529 
Q 2069 2156 2228 2338 
Q 2531 2678 2651 2914 
Q 2772 3150 2772 3378 
Q 2772 3750 2511 3984 
Q 2250 4219 1831 4219 
Q 1534 4219 1204 4116 
Q 875 4013 500 3803 
L 500 4441 
Q 881 4594 1212 4672 
Q 1544 4750 1819 4750 
Q 2544 4750 2975 4387 
Q 3406 4025 3406 3419 
Q 3406 3131 3298 2873 
Q 3191 2616 2906 2266 
Q 2828 2175 2409 1742 
Q 1991 1309 1228 531 
z
" transform="scale(0.015625)"/>
       </defs>
       <use xlink:href="#DejaVuSans-32"/>
      </g>
     </g>
    </g>
    <g id="xtick_4">
     <g id="line2d_4">
      <path d="M 214.756875 226.759107 
L 214.756875 33.36 
" clip-path="url(#ped69deb403)" style="fill: none; stroke-dasharray: 3.7,1.6; stroke-dashoffset: 0; stroke: #cccccc; stroke-opacity: 0.3"/>
     </g>
     <g id="text_4">
      <!-- 3 -->
      <g style="fill: #262626" transform="translate(214.428733 247.118168) rotate(-45) scale(0.11 -0.11)">
       <defs>
        <path id="DejaVuSans-33" d="M 2597 2516 
Q 3050 2419 3304 2112 
Q 3559 1806 3559 1356 
Q 3559 666 3084 287 
Q 2609 -91 1734 -91 
Q 1441 -91 1130 -33 
Q 819 25 488 141 
L 488 750 
Q 750 597 1062 519 
Q 1375 441 1716 441 
Q 2309 441 2620 675 
Q 2931 909 2931 1356 
Q 2931 1769 2642 2001 
Q 2353 2234 1838 2234 
L 1294 2234 
L 1294 2753 
L 1863 2753 
Q 2328 2753 2575 2939 
Q 2822 3125 2822 3475 
Q 2822 3834 2567 4026 
Q 2313 4219 1838 4219 
Q 1578 4219 1281 4162 
Q 984 4106 628 3988 
L 628 4550 
Q 988 4650 1302 4700 
Q 1616 4750 1894 4750 
Q 2613 4750 3031 4423 
Q 3450 4097 3450 3541 
Q 3450 3153 3228 2886 
Q 3006 2619 2597 2516 
z
" transform="scale(0.015625)"/>
       </defs>
       <use xlink:href="#DejaVuSans-33"/>
      </g>
     </g>
    </g>
    <g id="xtick_5">
     <g id="line2d_5">
      <path d="M 259.633125 226.759107 
L 259.633125 33.36 
" clip-path="url(#ped69deb403)" style="fill: none; stroke-dasharray: 3.7,1.6; stroke-dashoffset: 0; stroke: #cccccc; stroke-opacity: 0.3"/>
     </g>
     <g id="text_5">
      <!-- 4 -->
      <g style="fill: #262626" transform="translate(259.304983 247.118168) rotate(-45) scale(0.11 -0.11)">
       <defs>
        <path id="DejaVuSans-34" d="M 2419 4116 
L 825 1625 
L 2419 1625 
L 2419 4116 
z
M 2253 4666 
L 3047 4666 
L 3047 1625 
L 3713 1625 
L 3713 1100 
L 3047 1100 
L 3047 0 
L 2419 0 
L 2419 1100 
L 313 1100 
L 313 1709 
L 2253 4666 
z
" transform="scale(0.015625)"/>
       </defs>
       <use xlink:href="#DejaVuSans-34"/>
      </g>
     </g>
    </g>
    <g id="xtick_6">
     <g id="line2d_6">
      <path d="M 304.509375 226.759107 
L 304.509375 33.36 
" clip-path="url(#ped69deb403)" style="fill: none; stroke-dasharray: 3.7,1.6; stroke-dashoffset: 0; stroke: #cccccc; stroke-opacity: 0.3"/>
     </g>
     <g id="text_6">
      <!-- 5 -->
      <g style="fill: #262626" transform="translate(304.181233 247.118168) rotate(-45) scale(0.11 -0.11)">
       <defs>
        <path id="DejaVuSans-35" d="M 691 4666 
L 3169 4666 
L 3169 4134 
L 1269 4134 
L 1269 2991 
Q 1406 3038 1543 3061 
Q 1681 3084 1819 3084 
Q 2600 3084 3056 2656 
Q 3513 2228 3513 1497 
Q 3513 744 3044 326 
Q 2575 -91 1722 -91 
Q 1428 -91 1123 -41 
Q 819 9 494 109 
L 494 744 
Q 775 591 1075 516 
Q 1375 441 1709 441 
Q 2250 441 2565 725 
Q 2881 1009 2881 1497 
Q 2881 1984 2565 2268 
Q 2250 2553 1709 2553 
Q 1456 2553 1204 2497 
Q 953 2441 691 2322 
L 691 4666 
z
" transform="scale(0.015625)"/>
       </defs>
       <use xlink:href="#DejaVuSans-35"/>
      </g>
     </g>
    </g>
    <g id="xtick_7">
     <g id="line2d_7">
      <path d="M 349.385625 226.759107 
L 349.385625 33.36 
" clip-path="url(#ped69deb403)" style="fill: none; stroke-dasharray: 3.7,1.6; stroke-dashoffset: 0; stroke: #cccccc; stroke-opacity: 0.3"/>
     </g>
     <g id="text_7">
      <!-- 6 -->
      <g style="fill: #262626" transform="translate(349.057483 247.118168) rotate(-45) scale(0.11 -0.11)">
       <defs>
        <path id="DejaVuSans-36" d="M 2113 2584 
Q 1688 2584 1439 2293 
Q 1191 2003 1191 1497 
Q 1191 994 1439 701 
Q 1688 409 2113 409 
Q 2538 409 2786 701 
Q 3034 994 3034 1497 
Q 3034 2003 2786 2293 
Q 2538 2584 2113 2584 
z
M 3366 4563 
L 3366 3988 
Q 3128 4100 2886 4159 
Q 2644 4219 2406 4219 
Q 1781 4219 1451 3797 
Q 1122 3375 1075 2522 
Q 1259 2794 1537 2939 
Q 1816 3084 2150 3084 
Q 2853 3084 3261 2657 
Q 3669 2231 3669 1497 
Q 3669 778 3244 343 
Q 2819 -91 2113 -91 
Q 1303 -91 875 529 
Q 447 1150 447 2328 
Q 447 3434 972 4092 
Q 1497 4750 2381 4750 
Q 2619 4750 2861 4703 
Q 3103 4656 3366 4563 
z
" transform="scale(0.015625)"/>
       </defs>
       <use xlink:href="#DejaVuSans-36"/>
      </g>
     </g>
    </g>
    <g id="xtick_8">
     <g id="line2d_8">
      <path d="M 394.261875 226.759107 
L 394.261875 33.36 
" clip-path="url(#ped69deb403)" style="fill: none; stroke-dasharray: 3.7,1.6; stroke-dashoffset: 0; stroke: #cccccc; stroke-opacity: 0.3"/>
     </g>
     <g id="text_8">
      <!-- 7 -->
      <g style="fill: #262626" transform="translate(393.933733 247.118168) rotate(-45) scale(0.11 -0.11)">
       <defs>
        <path id="DejaVuSans-37" d="M 525 4666 
L 3525 4666 
L 3525 4397 
L 1831 0 
L 1172 0 
L 2766 4134 
L 525 4134 
L 525 4666 
z
" transform="scale(0.015625)"/>
       </defs>
       <use xlink:href="#DejaVuSans-37"/>
      </g>
     </g>
    </g>
    <g id="xtick_9">
     <g id="line2d_9">
      <path d="M 439.138125 226.759107 
L 439.138125 33.36 
" clip-path="url(#ped69deb403)" style="fill: none; stroke-dasharray: 3.7,1.6; stroke-dashoffset: 0; stroke: #cccccc; stroke-opacity: 0.3"/>
     </g>
     <g id="text_9">
      <!-- 8 -->
      <g style="fill: #262626" transform="translate(438.809983 247.118168) rotate(-45) scale(0.11 -0.11)">
       <defs>
        <path id="DejaVuSans-38" d="M 2034 2216 
Q 1584 2216 1326 1975 
Q 1069 1734 1069 1313 
Q 1069 891 1326 650 
Q 1584 409 2034 409 
Q 2484 409 2743 651 
Q 3003 894 3003 1313 
Q 3003 1734 2745 1975 
Q 2488 2216 2034 2216 
z
M 1403 2484 
Q 997 2584 770 2862 
Q 544 3141 544 3541 
Q 544 4100 942 4425 
Q 1341 4750 2034 4750 
Q 2731 4750 3128 4425 
Q 3525 4100 3525 3541 
Q 3525 3141 3298 2862 
Q 3072 2584 2669 2484 
Q 3125 2378 3379 2068 
Q 3634 1759 3634 1313 
Q 3634 634 3220 271 
Q 2806 -91 2034 -91 
Q 1263 -91 848 271 
Q 434 634 434 1313 
Q 434 1759 690 2068 
Q 947 2378 1403 2484 
z
M 1172 3481 
Q 1172 3119 1398 2916 
Q 1625 2713 2034 2713 
Q 2441 2713 2670 2916 
Q 2900 3119 2900 3481 
Q 2900 3844 2670 4047 
Q 2441 4250 2034 4250 
Q 1625 4250 1398 4047 
Q 1172 3844 1172 3481 
z
" transform="scale(0.015625)"/>
       </defs>
       <use xlink:href="#DejaVuSans-38"/>
      </g>
     </g>
    </g>
    <g id="xtick_10">
     <g id="line2d_10">
      <path d="M 484.014375 226.759107 
L 484.014375 33.36 
" clip-path="url(#ped69deb403)" style="fill: none; stroke-dasharray: 3.7,1.6; stroke-dashoffset: 0; stroke: #cccccc; stroke-opacity: 0.3"/>
     </g>
     <g id="text_10">
      <!-- 9 -->
      <g style="fill: #262626" transform="translate(483.686233 247.118168) rotate(-45) scale(0.11 -0.11)">
       <defs>
        <path id="DejaVuSans-39" d="M 703 97 
L 703 672 
Q 941 559 1184 500 
Q 1428 441 1663 441 
Q 2288 441 2617 861 
Q 2947 1281 2994 2138 
Q 2813 1869 2534 1725 
Q 2256 1581 1919 1581 
Q 1219 1581 811 2004 
Q 403 2428 403 3163 
Q 403 3881 828 4315 
Q 1253 4750 1959 4750 
Q 2769 4750 3195 4129 
Q 3622 3509 3622 2328 
Q 3622 1225 3098 567 
Q 2575 -91 1691 -91 
Q 1453 -91 1209 -44 
Q 966 3 703 97 
z
M 1959 2075 
Q 2384 2075 2632 2365 
Q 2881 2656 2881 3163 
Q 2881 3666 2632 3958 
Q 2384 4250 1959 4250 
Q 1534 4250 1286 3958 
Q 1038 3666 1038 3163 
Q 1038 2656 1286 2365 
Q 1534 2075 1959 2075 
z
" transform="scale(0.015625)"/>
       </defs>
       <use xlink:href="#DejaVuSans-39"/>
      </g>
     </g>
    </g>
    <g id="xtick_11">
     <g id="line2d_11">
      <path d="M 528.890625 226.759107 
L 528.890625 33.36 
" clip-path="url(#ped69deb403)" style="fill: none; stroke-dasharray: 3.7,1.6; stroke-dashoffset: 0; stroke: #cccccc; stroke-opacity: 0.3"/>
     </g>
     <g id="text_11">
      <!-- 10 -->
      <g style="fill: #262626" transform="translate(526.088051 252.067032) rotate(-45) scale(0.11 -0.11)">
       <use xlink:href="#DejaVuSans-31"/>
       <use xlink:href="#DejaVuSans-30" x="63.623047"/>
      </g>
     </g>
    </g>
    <g id="xtick_12">
     <g id="line2d_12">
      <path d="M 573.766875 226.759107 
L 573.766875 33.36 
" clip-path="url(#ped69deb403)" style="fill: none; stroke-dasharray: 3.7,1.6; stroke-dashoffset: 0; stroke: #cccccc; stroke-opacity: 0.3"/>
     </g>
     <g id="text_12">
      <!-- 11 -->
      <g style="fill: #262626" transform="translate(570.964301 252.067032) rotate(-45) scale(0.11 -0.11)">
       <use xlink:href="#DejaVuSans-31"/>
       <use xlink:href="#DejaVuSans-31" x="63.623047"/>
      </g>
     </g>
    </g>
    <g id="xtick_13">
     <g id="line2d_13">
      <path d="M 618.643125 226.759107 
L 618.643125 33.36 
" clip-path="url(#ped69deb403)" style="fill: none; stroke-dasharray: 3.7,1.6; stroke-dashoffset: 0; stroke: #cccccc; stroke-opacity: 0.3"/>
     </g>
     <g id="text_13">
      <!-- 12 -->
      <g style="fill: #262626" transform="translate(615.840551 252.067032) rotate(-45) scale(0.11 -0.11)">
       <use xlink:href="#DejaVuSans-31"/>
       <use xlink:href="#DejaVuSans-32" x="63.623047"/>
      </g>
     </g>
    </g>
    <g id="xtick_14">
     <g id="line2d_14">
      <path d="M 663.519375 226.759107 
L 663.519375 33.36 
" clip-path="url(#ped69deb403)" style="fill: none; stroke-dasharray: 3.7,1.6; stroke-dashoffset: 0; stroke: #cccccc; stroke-opacity: 0.3"/>
     </g>
     <g id="text_14">
      <!-- 13 -->
      <g style="fill: #262626" transform="translate(660.716801 252.067032) rotate(-45) scale(0.11 -0.11)">
       <use xlink:href="#DejaVuSans-31"/>
       <use xlink:href="#DejaVuSans-33" x="63.623047"/>
      </g>
     </g>
    </g>
    <g id="xtick_15">
     <g id="line2d_15">
      <path d="M 708.395625 226.759107 
L 708.395625 33.36 
" clip-path="url(#ped69deb403)" style="fill: none; stroke-dasharray: 3.7,1.6; stroke-dashoffset: 0; stroke: #cccccc; stroke-opacity: 0.3"/>
     </g>
     <g id="text_15">
      <!-- 14 -->
      <g style="fill: #262626" transform="translate(705.593051 252.067032) rotate(-45) scale(0.11 -0.11)">
       <use xlink:href="#DejaVuSans-31"/>
       <use xlink:href="#DejaVuSans-34" x="63.623047"/>
      </g>
     </g>
    </g>
    <g id="xtick_16">
     <g id="line2d_16">
      <path d="M 753.271875 226.759107 
L 753.271875 33.36 
" clip-path="url(#ped69deb403)" style="fill: none; stroke-dasharray: 3.7,1.6; stroke-dashoffset: 0; stroke: #cccccc; stroke-opacity: 0.3"/>
     </g>
     <g id="text_16">
      <!-- 15 -->
      <g style="fill: #262626" transform="translate(750.469301 252.067032) rotate(-45) scale(0.11 -0.11)">
       <use xlink:href="#DejaVuSans-31"/>
       <use xlink:href="#DejaVuSans-35" x="63.623047"/>
      </g>
     </g>
    </g>
    <g id="xtick_17">
     <g id="line2d_17">
      <path d="M 798.148125 226.759107 
L 798.148125 33.36 
" clip-path="url(#ped69deb403)" style="fill: none; stroke-dasharray: 3.7,1.6; stroke-dashoffset: 0; stroke: #cccccc; stroke-opacity: 0.3"/>
     </g>
     <g id="text_17">
      <!-- 16 -->
      <g style="fill: #262626" transform="translate(795.345551 252.067032) rotate(-45) scale(0.11 -0.11)">
       <use xlink:href="#DejaVuSans-31"/>
       <use xlink:href="#DejaVuSans-36" x="63.623047"/>
      </g>
     </g>
    </g>
    <g id="xtick_18">
     <g id="line2d_18">
      <path d="M 843.024375 226.759107 
L 843.024375 33.36 
" clip-path="url(#ped69deb403)" style="fill: none; stroke-dasharray: 3.7,1.6; stroke-dashoffset: 0; stroke: #cccccc; stroke-opacity: 0.3"/>
     </g>
     <g id="text_18">
      <!-- 17 -->
      <g style="fill: #262626" transform="translate(840.221801 252.067032) rotate(-45) scale(0.11 -0.11)">
       <use xlink:href="#DejaVuSans-31"/>
       <use xlink:href="#DejaVuSans-37" x="63.623047"/>
      </g>
     </g>
    </g>
    <g id="xtick_19">
     <g id="line2d_19">
      <path d="M 887.900625 226.759107 
L 887.900625 33.36 
" clip-path="url(#ped69deb403)" style="fill: none; stroke-dasharray: 3.7,1.6; stroke-dashoffset: 0; stroke: #cccccc; stroke-opacity: 0.3"/>
     </g>
     <g id="text_19">
      <!-- 18 -->
      <g style="fill: #262626" transform="translate(885.098051 252.067032) rotate(-45) scale(0.11 -0.11)">
       <use xlink:href="#DejaVuSans-31"/>
       <use xlink:href="#DejaVuSans-38" x="63.623047"/>
      </g>
     </g>
    </g>
    <g id="xtick_20">
     <g id="line2d_20">
      <path d="M 932.776875 226.759107 
L 932.776875 33.36 
" clip-path="url(#ped69deb403)" style="fill: none; stroke-dasharray: 3.7,1.6; stroke-dashoffset: 0; stroke: #cccccc; stroke-opacity: 0.3"/>
     </g>
     <g id="text_20">
      <!-- 19 -->
      <g style="fill: #262626" transform="translate(929.974301 252.067032) rotate(-45) scale(0.11 -0.11)">
       <use xlink:href="#DejaVuSans-31"/>
       <use xlink:href="#DejaVuSans-39" x="63.623047"/>
      </g>
     </g>
    </g>
    <g id="xtick_21">
     <g id="line2d_21">
      <path d="M 977.653125 226.759107 
L 977.653125 33.36 
" clip-path="url(#ped69deb403)" style="fill: none; stroke-dasharray: 3.7,1.6; stroke-dashoffset: 0; stroke: #cccccc; stroke-opacity: 0.3"/>
     </g>
     <g id="text_21">
      <!-- 20 -->
      <g style="fill: #262626" transform="translate(974.850551 252.067032) rotate(-45) scale(0.11 -0.11)">
       <use xlink:href="#DejaVuSans-32"/>
       <use xlink:href="#DejaVuSans-30" x="63.623047"/>
      </g>
     </g>
    </g>
    <g id="xtick_22">
     <g id="line2d_22">
      <path d="M 1022.529375 226.759107 
L 1022.529375 33.36 
" clip-path="url(#ped69deb403)" style="fill: none; stroke-dasharray: 3.7,1.6; stroke-dashoffset: 0; stroke: #cccccc; stroke-opacity: 0.3"/>
     </g>
     <g id="text_22">
      <!-- 21 -->
      <g style="fill: #262626" transform="translate(1019.726801 252.067032) rotate(-45) scale(0.11 -0.11)">
       <use xlink:href="#DejaVuSans-32"/>
       <use xlink:href="#DejaVuSans-31" x="63.623047"/>
      </g>
     </g>
    </g>
    <g id="xtick_23">
     <g id="line2d_23">
      <path d="M 1067.405625 226.759107 
L 1067.405625 33.36 
" clip-path="url(#ped69deb403)" style="fill: none; stroke-dasharray: 3.7,1.6; stroke-dashoffset: 0; stroke: #cccccc; stroke-opacity: 0.3"/>
     </g>
     <g id="text_23">
      <!-- 22 -->
      <g style="fill: #262626" transform="translate(1064.603051 252.067032) rotate(-45) scale(0.11 -0.11)">
       <use xlink:href="#DejaVuSans-32"/>
       <use xlink:href="#DejaVuSans-32" x="63.623047"/>
      </g>
     </g>
    </g>
    <g id="xtick_24">
     <g id="line2d_24">
      <path d="M 1112.281875 226.759107 
L 1112.281875 33.36 
" clip-path="url(#ped69deb403)" style="fill: none; stroke-dasharray: 3.7,1.6; stroke-dashoffset: 0; stroke: #cccccc; stroke-opacity: 0.3"/>
     </g>
     <g id="text_24">
      <!-- 23 -->
      <g style="fill: #262626" transform="translate(1109.479301 252.067032) rotate(-45) scale(0.11 -0.11)">
       <use xlink:href="#DejaVuSans-32"/>
       <use xlink:href="#DejaVuSans-33" x="63.623047"/>
      </g>
     </g>
    </g>
    <g id="text_25">
     <!-- Hour of Day -->
     <g style="fill: #262626" transform="translate(560.307187 266.802774) scale(0.12 -0.12)">
      <defs>
       <path id="DejaVuSans-48" d="M 628 4666 
L 1259 4666 
L 1259 2753 
L 3553 2753 
L 3553 4666 
L 4184 4666 
L 4184 0 
L 3553 0 
L 3553 2222 
L 1259 2222 
L 1259 0 
L 628 0 
L 628 4666 
z
" transform="scale(0.015625)"/>
       <path id="DejaVuSans-6f" d="M 1959 3097 
Q 1497 3097 1228 2736 
Q 959 2375 959 1747 
Q 959 1119 1226 758 
Q 1494 397 1959 397 
Q 2419 397 2687 759 
Q 2956 1122 2956 1747 
Q 2956 2369 2687 2733 
Q 2419 3097 1959 3097 
z
M 1959 3584 
Q 2709 3584 3137 3096 
Q 3566 2609 3566 1747 
Q 3566 888 3137 398 
Q 2709 -91 1959 -91 
Q 1206 -91 779 398 
Q 353 888 353 1747 
Q 353 2609 779 3096 
Q 1206 3584 1959 3584 
z
" transform="scale(0.015625)"/>
       <path id="DejaVuSans-75" d="M 544 1381 
L 544 3500 
L 1119 3500 
L 1119 1403 
Q 1119 906 1312 657 
Q 1506 409 1894 409 
Q 2359 409 2629 706 
Q 2900 1003 2900 1516 
L 2900 3500 
L 3475 3500 
L 3475 0 
L 2900 0 
L 2900 538 
Q 2691 219 2414 64 
Q 2138 -91 1772 -91 
Q 1169 -91 856 284 
Q 544 659 544 1381 
z
M 1991 3584 
L 1991 3584 
z
" transform="scale(0.015625)"/>
       <path id="DejaVuSans-72" d="M 2631 2963 
Q 2534 3019 2420 3045 
Q 2306 3072 2169 3072 
Q 1681 3072 1420 2755 
Q 1159 2438 1159 1844 
L 1159 0 
L 581 0 
L 581 3500 
L 1159 3500 
L 1159 2956 
Q 1341 3275 1631 3429 
Q 1922 3584 2338 3584 
Q 2397 3584 2469 3576 
Q 2541 3569 2628 3553 
L 2631 2963 
z
" transform="scale(0.015625)"/>
       <path id="DejaVuSans-20" transform="scale(0.015625)"/>
       <path id="DejaVuSans-66" d="M 2375 4863 
L 2375 4384 
L 1825 4384 
Q 1516 4384 1395 4259 
Q 1275 4134 1275 3809 
L 1275 3500 
L 2222 3500 
L 2222 3053 
L 1275 3053 
L 1275 0 
L 697 0 
L 697 3053 
L 147 3053 
L 147 3500 
L 697 3500 
L 697 3744 
Q 697 4328 969 4595 
Q 1241 4863 1831 4863 
L 2375 4863 
z
" transform="scale(0.015625)"/>
       <path id="DejaVuSans-44" d="M 1259 4147 
L 1259 519 
L 2022 519 
Q 2988 519 3436 956 
Q 3884 1394 3884 2338 
Q 3884 3275 3436 3711 
Q 2988 4147 2022 4147 
L 1259 4147 
z
M 628 4666 
L 1925 4666 
Q 3281 4666 3915 4102 
Q 4550 3538 4550 2338 
Q 4550 1131 3912 565 
Q 3275 0 1925 0 
L 628 0 
L 628 4666 
z
" transform="scale(0.015625)"/>
       <path id="DejaVuSans-61" d="M 2194 1759 
Q 1497 1759 1228 1600 
Q 959 1441 959 1056 
Q 959 750 1161 570 
Q 1363 391 1709 391 
Q 2188 391 2477 730 
Q 2766 1069 2766 1631 
L 2766 1759 
L 2194 1759 
z
M 3341 1997 
L 3341 0 
L 2766 0 
L 2766 531 
Q 2569 213 2275 61 
Q 1981 -91 1556 -91 
Q 1019 -91 701 211 
Q 384 513 384 1019 
Q 384 1609 779 1909 
Q 1175 2209 1959 2209 
L 2766 2209 
L 2766 2266 
Q 2766 2663 2505 2880 
Q 2244 3097 1772 3097 
Q 1472 3097 1187 3025 
Q 903 2953 641 2809 
L 641 3341 
Q 956 3463 1253 3523 
Q 1550 3584 1831 3584 
Q 2591 3584 2966 3190 
Q 3341 2797 3341 1997 
z
" transform="scale(0.015625)"/>
       <path id="DejaVuSans-79" d="M 2059 -325 
Q 1816 -950 1584 -1140 
Q 1353 -1331 966 -1331 
L 506 -1331 
L 506 -850 
L 844 -850 
Q 1081 -850 1212 -737 
Q 1344 -625 1503 -206 
L 1606 56 
L 191 3500 
L 800 3500 
L 1894 763 
L 2988 3500 
L 3597 3500 
L 2059 -325 
z
" transform="scale(0.015625)"/>
      </defs>
      <use xlink:href="#DejaVuSans-48"/>
      <use xlink:href="#DejaVuSans-6f" x="75.195312"/>
      <use xlink:href="#DejaVuSans-75" x="136.376953"/>
      <use xlink:href="#DejaVuSans-72" x="199.755859"/>
      <use xlink:href="#DejaVuSans-20" x="240.869141"/>
      <use xlink:href="#DejaVuSans-6f" x="272.65625"/>
      <use xlink:href="#DejaVuSans-66" x="333.837891"/>
      <use xlink:href="#DejaVuSans-20" x="369.042969"/>
      <use xlink:href="#DejaVuSans-44" x="400.830078"/>
      <use xlink:href="#DejaVuSans-61" x="477.832031"/>
      <use xlink:href="#DejaVuSans-79" x="539.111328"/>
     </g>
    </g>
   </g>
   <g id="matplotlib.axis_2">
    <g id="ytick_1">
     <g id="line2d_25">
      <path d="M 57.69 217.968239 
L 1134.72 217.968239 
" clip-path="url(#ped69deb403)" style="fill: none; stroke-dasharray: 3.7,1.6; stroke-dashoffset: 0; stroke: #cccccc; stroke-opacity: 0.3"/>
     </g>
     <g id="text_26">
      <!-- 0 -->
      <g style="fill: #262626" transform="translate(41.19125 222.147379) scale(0.11 -0.11)">
       <use xlink:href="#DejaVuSans-30"/>
      </g>
     </g>
    </g>
    <g id="ytick_2">
     <g id="line2d_26">
      <path d="M 57.69 184.112648 
L 1134.72 184.112648 
" clip-path="url(#ped69deb403)" style="fill: none; stroke-dasharray: 3.7,1.6; stroke-dashoffset: 0; stroke: #cccccc; stroke-opacity: 0.3"/>
     </g>
     <g id="text_27">
      <!-- 10 -->
      <g style="fill: #262626" transform="translate(34.1925 188.291789) scale(0.11 -0.11)">
       <use xlink:href="#DejaVuSans-31"/>
       <use xlink:href="#DejaVuSans-30" x="63.623047"/>
      </g>
     </g>
    </g>
    <g id="ytick_3">
     <g id="line2d_27">
      <path d="M 57.69 150.257057 
L 1134.72 150.257057 
" clip-path="url(#ped69deb403)" style="fill: none; stroke-dasharray: 3.7,1.6; stroke-dashoffset: 0; stroke: #cccccc; stroke-opacity: 0.3"/>
     </g>
     <g id="text_28">
      <!-- 20 -->
      <g style="fill: #262626" transform="translate(34.1925 154.436198) scale(0.11 -0.11)">
       <use xlink:href="#DejaVuSans-32"/>
       <use xlink:href="#DejaVuSans-30" x="63.623047"/>
      </g>
     </g>
    </g>
    <g id="ytick_4">
     <g id="line2d_28">
      <path d="M 57.69 116.401467 
L 1134.72 116.401467 
" clip-path="url(#ped69deb403)" style="fill: none; stroke-dasharray: 3.7,1.6; stroke-dashoffset: 0; stroke: #cccccc; stroke-opacity: 0.3"/>
     </g>
     <g id="text_29">
      <!-- 30 -->
      <g style="fill: #262626" transform="translate(34.1925 120.580607) scale(0.11 -0.11)">
       <use xlink:href="#DejaVuSans-33"/>
       <use xlink:href="#DejaVuSans-30" x="63.623047"/>
      </g>
     </g>
    </g>
    <g id="ytick_5">
     <g id="line2d_29">
      <path d="M 57.69 82.545876 
L 1134.72 82.545876 
" clip-path="url(#ped69deb403)" style="fill: none; stroke-dasharray: 3.7,1.6; stroke-dashoffset: 0; stroke: #cccccc; stroke-opacity: 0.3"/>
     </g>
     <g id="text_30">
      <!-- 40 -->
      <g style="fill: #262626" transform="translate(34.1925 86.725017) scale(0.11 -0.11)">
       <use xlink:href="#DejaVuSans-34"/>
       <use xlink:href="#DejaVuSans-30" x="63.623047"/>
      </g>
     </g>
    </g>
    <g id="ytick_6">
     <g id="line2d_30">
      <path d="M 57.69 48.690285 
L 1134.72 48.690285 
" clip-path="url(#ped69deb403)" style="fill: none; stroke-dasharray: 3.7,1.6; stroke-dashoffset: 0; stroke: #cccccc; stroke-opacity: 0.3"/>
     </g>
     <g id="text_31">
      <!-- 50 -->
      <g style="fill: #262626" transform="translate(34.1925 52.869426) scale(0.11 -0.11)">
       <use xlink:href="#DejaVuSans-35"/>
       <use xlink:href="#DejaVuSans-30" x="63.623047"/>
      </g>
     </g>
    </g>
    <g id="text_32">
     <!-- CPU Cores Requested -->
     <g style="fill: #262626" transform="translate(27.696875 194.955179) rotate(-90) scale(0.12 -0.12)">
      <defs>
       <path id="DejaVuSans-43" d="M 4122 4306 
L 4122 3641 
Q 3803 3938 3442 4084 
Q 3081 4231 2675 4231 
Q 1875 4231 1450 3742 
Q 1025 3253 1025 2328 
Q 1025 1406 1450 917 
Q 1875 428 2675 428 
Q 3081 428 3442 575 
Q 3803 722 4122 1019 
L 4122 359 
Q 3791 134 3420 21 
Q 3050 -91 2638 -91 
Q 1578 -91 968 557 
Q 359 1206 359 2328 
Q 359 3453 968 4101 
Q 1578 4750 2638 4750 
Q 3056 4750 3426 4639 
Q 3797 4528 4122 4306 
z
" transform="scale(0.015625)"/>
       <path id="DejaVuSans-50" d="M 1259 4147 
L 1259 2394 
L 2053 2394 
Q 2494 2394 2734 2622 
Q 2975 2850 2975 3272 
Q 2975 3691 2734 3919 
Q 2494 4147 2053 4147 
L 1259 4147 
z
M 628 4666 
L 2053 4666 
Q 2838 4666 3239 4311 
Q 3641 3956 3641 3272 
Q 3641 2581 3239 2228 
Q 2838 1875 2053 1875 
L 1259 1875 
L 1259 0 
L 628 0 
L 628 4666 
z
" transform="scale(0.015625)"/>
       <path id="DejaVuSans-55" d="M 556 4666 
L 1191 4666 
L 1191 1831 
Q 1191 1081 1462 751 
Q 1734 422 2344 422 
Q 2950 422 3222 751 
Q 3494 1081 3494 1831 
L 3494 4666 
L 4128 4666 
L 4128 1753 
Q 4128 841 3676 375 
Q 3225 -91 2344 -91 
Q 1459 -91 1007 375 
Q 556 841 556 1753 
L 556 4666 
z
" transform="scale(0.015625)"/>
       <path id="DejaVuSans-65" d="M 3597 1894 
L 3597 1613 
L 953 1613 
Q 991 1019 1311 708 
Q 1631 397 2203 397 
Q 2534 397 2845 478 
Q 3156 559 3463 722 
L 3463 178 
Q 3153 47 2828 -22 
Q 2503 -91 2169 -91 
Q 1331 -91 842 396 
Q 353 884 353 1716 
Q 353 2575 817 3079 
Q 1281 3584 2069 3584 
Q 2775 3584 3186 3129 
Q 3597 2675 3597 1894 
z
M 3022 2063 
Q 3016 2534 2758 2815 
Q 2500 3097 2075 3097 
Q 1594 3097 1305 2825 
Q 1016 2553 972 2059 
L 3022 2063 
z
" transform="scale(0.015625)"/>
       <path id="DejaVuSans-73" d="M 2834 3397 
L 2834 2853 
Q 2591 2978 2328 3040 
Q 2066 3103 1784 3103 
Q 1356 3103 1142 2972 
Q 928 2841 928 2578 
Q 928 2378 1081 2264 
Q 1234 2150 1697 2047 
L 1894 2003 
Q 2506 1872 2764 1633 
Q 3022 1394 3022 966 
Q 3022 478 2636 193 
Q 2250 -91 1575 -91 
Q 1294 -91 989 -36 
Q 684 19 347 128 
L 347 722 
Q 666 556 975 473 
Q 1284 391 1588 391 
Q 1994 391 2212 530 
Q 2431 669 2431 922 
Q 2431 1156 2273 1281 
Q 2116 1406 1581 1522 
L 1381 1569 
Q 847 1681 609 1914 
Q 372 2147 372 2553 
Q 372 3047 722 3315 
Q 1072 3584 1716 3584 
Q 2034 3584 2315 3537 
Q 2597 3491 2834 3397 
z
" transform="scale(0.015625)"/>
       <path id="DejaVuSans-52" d="M 2841 2188 
Q 3044 2119 3236 1894 
Q 3428 1669 3622 1275 
L 4263 0 
L 3584 0 
L 2988 1197 
Q 2756 1666 2539 1819 
Q 2322 1972 1947 1972 
L 1259 1972 
L 1259 0 
L 628 0 
L 628 4666 
L 2053 4666 
Q 2853 4666 3247 4331 
Q 3641 3997 3641 3322 
Q 3641 2881 3436 2590 
Q 3231 2300 2841 2188 
z
M 1259 4147 
L 1259 2491 
L 2053 2491 
Q 2509 2491 2742 2702 
Q 2975 2913 2975 3322 
Q 2975 3731 2742 3939 
Q 2509 4147 2053 4147 
L 1259 4147 
z
" transform="scale(0.015625)"/>
       <path id="DejaVuSans-71" d="M 947 1747 
Q 947 1113 1208 752 
Q 1469 391 1925 391 
Q 2381 391 2643 752 
Q 2906 1113 2906 1747 
Q 2906 2381 2643 2742 
Q 2381 3103 1925 3103 
Q 1469 3103 1208 2742 
Q 947 2381 947 1747 
z
M 2906 525 
Q 2725 213 2448 61 
Q 2172 -91 1784 -91 
Q 1150 -91 751 415 
Q 353 922 353 1747 
Q 353 2572 751 3078 
Q 1150 3584 1784 3584 
Q 2172 3584 2448 3432 
Q 2725 3281 2906 2969 
L 2906 3500 
L 3481 3500 
L 3481 -1331 
L 2906 -1331 
L 2906 525 
z
" transform="scale(0.015625)"/>
       <path id="DejaVuSans-74" d="M 1172 4494 
L 1172 3500 
L 2356 3500 
L 2356 3053 
L 1172 3053 
L 1172 1153 
Q 1172 725 1289 603 
Q 1406 481 1766 481 
L 2356 481 
L 2356 0 
L 1766 0 
Q 1100 0 847 248 
Q 594 497 594 1153 
L 594 3053 
L 172 3053 
L 172 3500 
L 594 3500 
L 594 4494 
L 1172 4494 
z
" transform="scale(0.015625)"/>
       <path id="DejaVuSans-64" d="M 2906 2969 
L 2906 4863 
L 3481 4863 
L 3481 0 
L 2906 0 
L 2906 525 
Q 2725 213 2448 61 
Q 2172 -91 1784 -91 
Q 1150 -91 751 415 
Q 353 922 353 1747 
Q 353 2572 751 3078 
Q 1150 3584 1784 3584 
Q 2172 3584 2448 3432 
Q 2725 3281 2906 2969 
z
M 947 1747 
Q 947 1113 1208 752 
Q 1469 391 1925 391 
Q 2381 391 2643 752 
Q 2906 1113 2906 1747 
Q 2906 2381 2643 2742 
Q 2381 3103 1925 3103 
Q 1469 3103 1208 2742 
Q 947 2381 947 1747 
z
" transform="scale(0.015625)"/>
      </defs>
      <use xlink:href="#DejaVuSans-43"/>
      <use xlink:href="#DejaVuSans-50" x="69.824219"/>
      <use xlink:href="#DejaVuSans-55" x="130.126953"/>
      <use xlink:href="#DejaVuSans-20" x="203.320312"/>
      <use xlink:href="#DejaVuSans-43" x="235.107422"/>
      <use xlink:href="#DejaVuSans-6f" x="304.931641"/>
      <use xlink:href="#DejaVuSans-72" x="366.113281"/>
      <use xlink:href="#DejaVuSans-65" x="404.976562"/>
      <use xlink:href="#DejaVuSans-73" x="466.5"/>
      <use xlink:href="#DejaVuSans-20" x="518.599609"/>
      <use xlink:href="#DejaVuSans-52" x="550.386719"/>
      <use xlink:href="#DejaVuSans-65" x="615.369141"/>
      <use xlink:href="#DejaVuSans-71" x="676.892578"/>
      <use xlink:href="#DejaVuSans-75" x="740.369141"/>
      <use xlink:href="#DejaVuSans-65" x="803.748047"/>
      <use xlink:href="#DejaVuSans-73" x="865.271484"/>
      <use xlink:href="#DejaVuSans-74" x="917.371094"/>
      <use xlink:href="#DejaVuSans-65" x="956.580078"/>
      <use xlink:href="#DejaVuSans-64" x="1018.103516"/>
     </g>
    </g>
   </g>
   <g id="patch_3">
    <path d="M 62.177625 214.81297 
L 98.078625 214.81297 
L 98.078625 195.075273 
L 62.177625 195.075273 
L 62.177625 214.81297 
z
" clip-path="url(#ped69deb403)" style="fill: #ff7f0e; opacity: 0.7; stroke: #000000; stroke-width: 1.2; stroke-linejoin: miter"/>
   </g>
   <g id="line2d_31">
    <path d="M 80.128125 214.81297 
L 80.128125 217.931551 
" clip-path="url(#ped69deb403)" style="fill: none; stroke: #515151"/>
   </g>
   <g id="line2d_32">
    <path d="M 80.128125 195.075273 
L 80.128125 175.338497 
" clip-path="url(#ped69deb403)" style="fill: none; stroke: #515151"/>
   </g>
   <g id="line2d_33">
    <path d="M 71.152875 217.931551 
L 89.103375 217.931551 
" clip-path="url(#ped69deb403)" style="fill: none; stroke: #515151; stroke-linecap: round"/>
   </g>
   <g id="line2d_34">
    <path d="M 71.152875 175.338497 
L 89.103375 175.338497 
" clip-path="url(#ped69deb403)" style="fill: none; stroke: #515151; stroke-linecap: round"/>
   </g>
   <g id="line2d_35"/>
   <g id="patch_4">
    <path d="M 107.053875 214.379904 
L 142.954875 214.379904 
L 142.954875 163.706507 
L 107.053875 163.706507 
L 107.053875 214.379904 
z
" clip-path="url(#ped69deb403)" style="fill: #ff7f0e; opacity: 0.7; stroke: #000000; stroke-width: 1.2; stroke-linejoin: miter"/>
   </g>
   <g id="line2d_36">
    <path d="M 125.004375 214.379904 
L 125.004375 217.968239 
" clip-path="url(#ped69deb403)" style="fill: none; stroke: #515151"/>
   </g>
   <g id="line2d_37">
    <path d="M 125.004375 163.706507 
L 125.004375 113.173965 
" clip-path="url(#ped69deb403)" style="fill: none; stroke: #515151"/>
   </g>
   <g id="line2d_38">
    <path d="M 116.029125 217.968239 
L 133.979625 217.968239 
" clip-path="url(#ped69deb403)" style="fill: none; stroke: #515151; stroke-linecap: round"/>
   </g>
   <g id="line2d_39">
    <path d="M 116.029125 113.173965 
L 133.979625 113.173965 
" clip-path="url(#ped69deb403)" style="fill: none; stroke: #515151; stroke-linecap: round"/>
   </g>
   <g id="line2d_40"/>
   <g id="patch_5">
    <path d="M 151.930125 210.290001 
L 187.831125 210.290001 
L 187.831125 131.345985 
L 151.930125 131.345985 
L 151.930125 210.290001 
z
" clip-path="url(#ped69deb403)" style="fill: #ff7f0e; opacity: 0.7; stroke: #000000; stroke-width: 1.2; stroke-linejoin: miter"/>
   </g>
   <g id="line2d_41">
    <path d="M 169.880625 210.290001 
L 169.880625 217.968239 
" clip-path="url(#ped69deb403)" style="fill: none; stroke: #515151"/>
   </g>
   <g id="line2d_42">
    <path d="M 169.880625 131.345985 
L 169.880625 52.554634 
" clip-path="url(#ped69deb403)" style="fill: none; stroke: #515151"/>
   </g>
   <g id="line2d_43">
    <path d="M 160.905375 217.968239 
L 178.855875 217.968239 
" clip-path="url(#ped69deb403)" style="fill: none; stroke: #515151; stroke-linecap: round"/>
   </g>
   <g id="line2d_44">
    <path d="M 160.905375 52.554634 
L 178.855875 52.554634 
" clip-path="url(#ped69deb403)" style="fill: none; stroke: #515151; stroke-linecap: round"/>
   </g>
   <g id="line2d_45"/>
   <g id="patch_6">
    <path d="M 196.806375 214.370922 
L 232.707375 214.370922 
L 232.707375 191.992746 
L 196.806375 191.992746 
L 196.806375 214.370922 
z
" clip-path="url(#ped69deb403)" style="fill: #ff7f0e; opacity: 0.7; stroke: #000000; stroke-width: 1.2; stroke-linejoin: miter"/>
   </g>
   <g id="line2d_46">
    <path d="M 214.756875 214.370922 
L 214.756875 217.968239 
" clip-path="url(#ped69deb403)" style="fill: none; stroke: #515151"/>
   </g>
   <g id="line2d_47">
    <path d="M 214.756875 191.992746 
L 214.756875 169.644788 
" clip-path="url(#ped69deb403)" style="fill: none; stroke: #515151"/>
   </g>
   <g id="line2d_48">
    <path d="M 205.781625 217.968239 
L 223.732125 217.968239 
" clip-path="url(#ped69deb403)" style="fill: none; stroke: #515151; stroke-linecap: round"/>
   </g>
   <g id="line2d_49">
    <path d="M 205.781625 169.644788 
L 223.732125 169.644788 
" clip-path="url(#ped69deb403)" style="fill: none; stroke: #515151; stroke-linecap: round"/>
   </g>
   <g id="line2d_50"/>
   <g id="patch_7">
    <path d="M 241.682625 214.38947 
L 277.583625 214.38947 
L 277.583625 192.205163 
L 241.682625 192.205163 
L 241.682625 214.38947 
z
" clip-path="url(#ped69deb403)" style="fill: #ff7f0e; opacity: 0.7; stroke: #000000; stroke-width: 1.2; stroke-linejoin: miter"/>
   </g>
   <g id="line2d_51">
    <path d="M 259.633125 214.38947 
L 259.633125 217.968239 
" clip-path="url(#ped69deb403)" style="fill: none; stroke: #515151"/>
   </g>
   <g id="line2d_52">
    <path d="M 259.633125 192.205163 
L 259.633125 170.045419 
" clip-path="url(#ped69deb403)" style="fill: none; stroke: #515151"/>
   </g>
   <g id="line2d_53">
    <path d="M 250.657875 217.968239 
L 268.608375 217.968239 
" clip-path="url(#ped69deb403)" style="fill: none; stroke: #515151; stroke-linecap: round"/>
   </g>
   <g id="line2d_54">
    <path d="M 250.657875 170.045419 
L 268.608375 170.045419 
" clip-path="url(#ped69deb403)" style="fill: none; stroke: #515151; stroke-linecap: round"/>
   </g>
   <g id="line2d_55"/>
   <g id="patch_8">
    <path d="M 286.558875 213.038133 
L 322.459875 213.038133 
L 322.459875 189.783064 
L 286.558875 189.783064 
L 286.558875 213.038133 
z
" clip-path="url(#ped69deb403)" style="fill: #ff7f0e; opacity: 0.7; stroke: #000000; stroke-width: 1.2; stroke-linejoin: miter"/>
   </g>
   <g id="line2d_56">
    <path d="M 304.509375 213.038133 
L 304.509375 217.968239 
" clip-path="url(#ped69deb403)" style="fill: none; stroke: #515151"/>
   </g>
   <g id="line2d_57">
    <path d="M 304.509375 189.783064 
L 304.509375 166.550894 
" clip-path="url(#ped69deb403)" style="fill: none; stroke: #515151"/>
   </g>
   <g id="line2d_58">
    <path d="M 295.534125 217.968239 
L 313.484625 217.968239 
" clip-path="url(#ped69deb403)" style="fill: none; stroke: #515151; stroke-linecap: round"/>
   </g>
   <g id="line2d_59">
    <path d="M 295.534125 166.550894 
L 313.484625 166.550894 
" clip-path="url(#ped69deb403)" style="fill: none; stroke: #515151; stroke-linecap: round"/>
   </g>
   <g id="line2d_60"/>
   <g id="patch_9">
    <path d="M 331.435125 212.274557 
L 367.336125 212.274557 
L 367.336125 174.145935 
L 331.435125 174.145935 
L 331.435125 212.274557 
z
" clip-path="url(#ped69deb403)" style="fill: #ff7f0e; opacity: 0.7; stroke: #000000; stroke-width: 1.2; stroke-linejoin: miter"/>
   </g>
   <g id="line2d_61">
    <path d="M 349.385625 212.274557 
L 349.385625 217.968239 
" clip-path="url(#ped69deb403)" style="fill: none; stroke: #515151"/>
   </g>
   <g id="line2d_62">
    <path d="M 349.385625 174.145935 
L 349.385625 136.159365 
" clip-path="url(#ped69deb403)" style="fill: none; stroke: #515151"/>
   </g>
   <g id="line2d_63">
    <path d="M 340.410375 217.968239 
L 358.360875 217.968239 
" clip-path="url(#ped69deb403)" style="fill: none; stroke: #515151; stroke-linecap: round"/>
   </g>
   <g id="line2d_64">
    <path d="M 340.410375 136.159365 
L 358.360875 136.159365 
" clip-path="url(#ped69deb403)" style="fill: none; stroke: #515151; stroke-linecap: round"/>
   </g>
   <g id="line2d_65"/>
   <g id="patch_10">
    <path d="M 376.311375 213.867103 
L 412.212375 213.867103 
L 412.212375 173.411768 
L 376.311375 173.411768 
L 376.311375 213.867103 
z
" clip-path="url(#ped69deb403)" style="fill: #ff7f0e; opacity: 0.7; stroke: #000000; stroke-width: 1.2; stroke-linejoin: miter"/>
   </g>
   <g id="line2d_66">
    <path d="M 394.261875 213.867103 
L 394.261875 217.968239 
" clip-path="url(#ped69deb403)" style="fill: none; stroke: #515151"/>
   </g>
   <g id="line2d_67">
    <path d="M 394.261875 173.411768 
L 394.261875 133.030887 
" clip-path="url(#ped69deb403)" style="fill: none; stroke: #515151"/>
   </g>
   <g id="line2d_68">
    <path d="M 385.286625 217.968239 
L 403.237125 217.968239 
" clip-path="url(#ped69deb403)" style="fill: none; stroke: #515151; stroke-linecap: round"/>
   </g>
   <g id="line2d_69">
    <path d="M 385.286625 133.030887 
L 403.237125 133.030887 
" clip-path="url(#ped69deb403)" style="fill: none; stroke: #515151; stroke-linecap: round"/>
   </g>
   <g id="line2d_70"/>
   <g id="patch_11">
    <path d="M 421.187625 214.55339 
L 457.088625 214.55339 
L 457.088625 206.998242 
L 421.187625 206.998242 
L 421.187625 214.55339 
z
" clip-path="url(#ped69deb403)" style="fill: #ff7f0e; opacity: 0.7; stroke: #000000; stroke-width: 1.2; stroke-linejoin: miter"/>
   </g>
   <g id="line2d_71">
    <path d="M 439.138125 214.55339 
L 439.138125 217.968239 
" clip-path="url(#ped69deb403)" style="fill: none; stroke: #515151"/>
   </g>
   <g id="line2d_72">
    <path d="M 439.138125 206.998242 
L 439.138125 199.48049 
" clip-path="url(#ped69deb403)" style="fill: none; stroke: #515151"/>
   </g>
   <g id="line2d_73">
    <path d="M 430.162875 217.968239 
L 448.113375 217.968239 
" clip-path="url(#ped69deb403)" style="fill: none; stroke: #515151; stroke-linecap: round"/>
   </g>
   <g id="line2d_74">
    <path d="M 430.162875 199.48049 
L 448.113375 199.48049 
" clip-path="url(#ped69deb403)" style="fill: none; stroke: #515151; stroke-linecap: round"/>
   </g>
   <g id="line2d_75"/>
   <g id="patch_12">
    <path d="M 466.063875 215.026848 
L 501.964875 215.026848 
L 501.964875 151.767344 
L 466.063875 151.767344 
L 466.063875 215.026848 
z
" clip-path="url(#ped69deb403)" style="fill: #ff7f0e; opacity: 0.7; stroke: #000000; stroke-width: 1.2; stroke-linejoin: miter"/>
   </g>
   <g id="line2d_76">
    <path d="M 484.014375 215.026848 
L 484.014375 217.968239 
" clip-path="url(#ped69deb403)" style="fill: none; stroke: #515151"/>
   </g>
   <g id="line2d_77">
    <path d="M 484.014375 151.767344 
L 484.014375 88.548176 
" clip-path="url(#ped69deb403)" style="fill: none; stroke: #515151"/>
   </g>
   <g id="line2d_78">
    <path d="M 475.039125 217.968239 
L 492.989625 217.968239 
" clip-path="url(#ped69deb403)" style="fill: none; stroke: #515151; stroke-linecap: round"/>
   </g>
   <g id="line2d_79">
    <path d="M 475.039125 88.548176 
L 492.989625 88.548176 
" clip-path="url(#ped69deb403)" style="fill: none; stroke: #515151; stroke-linecap: round"/>
   </g>
   <g id="line2d_80"/>
   <g id="patch_13">
    <path d="M 510.940125 208.79676 
L 546.841125 208.79676 
L 546.841125 136.47332 
L 510.940125 136.47332 
L 510.940125 208.79676 
z
" clip-path="url(#ped69deb403)" style="fill: #ff7f0e; opacity: 0.7; stroke: #000000; stroke-width: 1.2; stroke-linejoin: miter"/>
   </g>
   <g id="line2d_81">
    <path d="M 528.890625 208.79676 
L 528.890625 217.968239 
" clip-path="url(#ped69deb403)" style="fill: none; stroke: #515151"/>
   </g>
   <g id="line2d_82">
    <path d="M 528.890625 136.47332 
L 528.890625 64.439891 
" clip-path="url(#ped69deb403)" style="fill: none; stroke: #515151"/>
   </g>
   <g id="line2d_83">
    <path d="M 519.915375 217.968239 
L 537.865875 217.968239 
" clip-path="url(#ped69deb403)" style="fill: none; stroke: #515151; stroke-linecap: round"/>
   </g>
   <g id="line2d_84">
    <path d="M 519.915375 64.439891 
L 537.865875 64.439891 
" clip-path="url(#ped69deb403)" style="fill: none; stroke: #515151; stroke-linecap: round"/>
   </g>
   <g id="line2d_85"/>
   <g id="patch_14">
    <path d="M 555.816375 213.903014 
L 591.717375 213.903014 
L 591.717375 204.204745 
L 555.816375 204.204745 
L 555.816375 213.903014 
z
" clip-path="url(#ped69deb403)" style="fill: #ff7f0e; opacity: 0.7; stroke: #000000; stroke-width: 1.2; stroke-linejoin: miter"/>
   </g>
   <g id="line2d_86">
    <path d="M 573.766875 213.903014 
L 573.766875 217.9272 
" clip-path="url(#ped69deb403)" style="fill: none; stroke: #515151"/>
   </g>
   <g id="line2d_87">
    <path d="M 573.766875 204.204745 
L 573.766875 194.511159 
" clip-path="url(#ped69deb403)" style="fill: none; stroke: #515151"/>
   </g>
   <g id="line2d_88">
    <path d="M 564.791625 217.9272 
L 582.742125 217.9272 
" clip-path="url(#ped69deb403)" style="fill: none; stroke: #515151; stroke-linecap: round"/>
   </g>
   <g id="line2d_89">
    <path d="M 564.791625 194.511159 
L 582.742125 194.511159 
" clip-path="url(#ped69deb403)" style="fill: none; stroke: #515151; stroke-linecap: round"/>
   </g>
   <g id="line2d_90"/>
   <g id="patch_15">
    <path d="M 600.692625 213.947624 
L 636.593625 213.947624 
L 636.593625 204.031993 
L 600.692625 204.031993 
L 600.692625 213.947624 
z
" clip-path="url(#ped69deb403)" style="fill: #ff7f0e; opacity: 0.7; stroke: #000000; stroke-width: 1.2; stroke-linejoin: miter"/>
   </g>
   <g id="line2d_91">
    <path d="M 618.643125 213.947624 
L 618.643125 217.88615 
" clip-path="url(#ped69deb403)" style="fill: none; stroke: #515151"/>
   </g>
   <g id="line2d_92">
    <path d="M 618.643125 204.031993 
L 618.643125 194.147742 
" clip-path="url(#ped69deb403)" style="fill: none; stroke: #515151"/>
   </g>
   <g id="line2d_93">
    <path d="M 609.667875 217.88615 
L 627.618375 217.88615 
" clip-path="url(#ped69deb403)" style="fill: none; stroke: #515151; stroke-linecap: round"/>
   </g>
   <g id="line2d_94">
    <path d="M 609.667875 194.147742 
L 627.618375 194.147742 
" clip-path="url(#ped69deb403)" style="fill: none; stroke: #515151; stroke-linecap: round"/>
   </g>
   <g id="line2d_95"/>
   <g id="patch_16">
    <path d="M 645.568875 215.390142 
L 681.469875 215.390142 
L 681.469875 199.101351 
L 645.568875 199.101351 
L 645.568875 215.390142 
z
" clip-path="url(#ped69deb403)" style="fill: #ff7f0e; opacity: 0.7; stroke: #000000; stroke-width: 1.2; stroke-linejoin: miter"/>
   </g>
   <g id="line2d_96">
    <path d="M 663.519375 215.390142 
L 663.519375 217.914198 
" clip-path="url(#ped69deb403)" style="fill: none; stroke: #515151"/>
   </g>
   <g id="line2d_97">
    <path d="M 663.519375 199.101351 
L 663.519375 182.878471 
" clip-path="url(#ped69deb403)" style="fill: none; stroke: #515151"/>
   </g>
   <g id="line2d_98">
    <path d="M 654.544125 217.914198 
L 672.494625 217.914198 
" clip-path="url(#ped69deb403)" style="fill: none; stroke: #515151; stroke-linecap: round"/>
   </g>
   <g id="line2d_99">
    <path d="M 654.544125 182.878471 
L 672.494625 182.878471 
" clip-path="url(#ped69deb403)" style="fill: none; stroke: #515151; stroke-linecap: round"/>
   </g>
   <g id="line2d_100"/>
   <g id="patch_17">
    <path d="M 690.445125 216.082179 
L 726.346125 216.082179 
L 726.346125 196.385671 
L 690.445125 196.385671 
L 690.445125 216.082179 
z
" clip-path="url(#ped69deb403)" style="fill: #ff7f0e; opacity: 0.7; stroke: #000000; stroke-width: 1.2; stroke-linejoin: miter"/>
   </g>
   <g id="line2d_101">
    <path d="M 708.395625 216.082179 
L 708.395625 217.890489 
" clip-path="url(#ped69deb403)" style="fill: none; stroke: #515151"/>
   </g>
   <g id="line2d_102">
    <path d="M 708.395625 196.385671 
L 708.395625 176.709308 
" clip-path="url(#ped69deb403)" style="fill: none; stroke: #515151"/>
   </g>
   <g id="line2d_103">
    <path d="M 699.420375 217.890489 
L 717.370875 217.890489 
" clip-path="url(#ped69deb403)" style="fill: none; stroke: #515151; stroke-linecap: round"/>
   </g>
   <g id="line2d_104">
    <path d="M 699.420375 176.709308 
L 717.370875 176.709308 
" clip-path="url(#ped69deb403)" style="fill: none; stroke: #515151; stroke-linecap: round"/>
   </g>
   <g id="line2d_105"/>
   <g id="patch_18">
    <path d="M 735.321375 215.737968 
L 771.222375 215.737968 
L 771.222375 200.072431 
L 735.321375 200.072431 
L 735.321375 215.737968 
z
" clip-path="url(#ped69deb403)" style="fill: #ff7f0e; opacity: 0.7; stroke: #000000; stroke-width: 1.2; stroke-linejoin: miter"/>
   </g>
   <g id="line2d_106">
    <path d="M 753.271875 215.737968 
L 753.271875 217.913578 
" clip-path="url(#ped69deb403)" style="fill: none; stroke: #515151"/>
   </g>
   <g id="line2d_107">
    <path d="M 753.271875 200.072431 
L 753.271875 184.422733 
" clip-path="url(#ped69deb403)" style="fill: none; stroke: #515151"/>
   </g>
   <g id="line2d_108">
    <path d="M 744.296625 217.913578 
L 762.247125 217.913578 
" clip-path="url(#ped69deb403)" style="fill: none; stroke: #515151; stroke-linecap: round"/>
   </g>
   <g id="line2d_109">
    <path d="M 744.296625 184.422733 
L 762.247125 184.422733 
" clip-path="url(#ped69deb403)" style="fill: none; stroke: #515151; stroke-linecap: round"/>
   </g>
   <g id="line2d_110"/>
   <g id="patch_19">
    <path d="M 780.197625 214.571148 
L 816.098625 214.571148 
L 816.098625 194.899359 
L 780.197625 194.899359 
L 780.197625 214.571148 
z
" clip-path="url(#ped69deb403)" style="fill: #ff7f0e; opacity: 0.7; stroke: #000000; stroke-width: 1.2; stroke-linejoin: miter"/>
   </g>
   <g id="line2d_111">
    <path d="M 798.148125 214.571148 
L 798.148125 217.907959 
" clip-path="url(#ped69deb403)" style="fill: none; stroke: #515151"/>
   </g>
   <g id="line2d_112">
    <path d="M 798.148125 194.899359 
L 798.148125 175.331747 
" clip-path="url(#ped69deb403)" style="fill: none; stroke: #515151"/>
   </g>
   <g id="line2d_113">
    <path d="M 789.172875 217.907959 
L 807.123375 217.907959 
" clip-path="url(#ped69deb403)" style="fill: none; stroke: #515151; stroke-linecap: round"/>
   </g>
   <g id="line2d_114">
    <path d="M 789.172875 175.331747 
L 807.123375 175.331747 
" clip-path="url(#ped69deb403)" style="fill: none; stroke: #515151; stroke-linecap: round"/>
   </g>
   <g id="line2d_115"/>
   <g id="patch_20">
    <path d="M 825.073875 214.177895 
L 860.974875 214.177895 
L 860.974875 193.226917 
L 825.073875 193.226917 
L 825.073875 214.177895 
z
" clip-path="url(#ped69deb403)" style="fill: #ff7f0e; opacity: 0.7; stroke: #000000; stroke-width: 1.2; stroke-linejoin: miter"/>
   </g>
   <g id="line2d_116">
    <path d="M 843.024375 214.177895 
L 843.024375 217.968239 
" clip-path="url(#ped69deb403)" style="fill: none; stroke: #515151"/>
   </g>
   <g id="line2d_117">
    <path d="M 843.024375 193.226917 
L 843.024375 172.29578 
" clip-path="url(#ped69deb403)" style="fill: none; stroke: #515151"/>
   </g>
   <g id="line2d_118">
    <path d="M 834.049125 217.968239 
L 851.999625 217.968239 
" clip-path="url(#ped69deb403)" style="fill: none; stroke: #515151; stroke-linecap: round"/>
   </g>
   <g id="line2d_119">
    <path d="M 834.049125 172.29578 
L 851.999625 172.29578 
" clip-path="url(#ped69deb403)" style="fill: none; stroke: #515151; stroke-linecap: round"/>
   </g>
   <g id="line2d_120"/>
   <g id="patch_21">
    <path d="M 869.950125 214.327913 
L 905.851125 214.327913 
L 905.851125 199.736114 
L 869.950125 199.736114 
L 869.950125 214.327913 
z
" clip-path="url(#ped69deb403)" style="fill: #ff7f0e; opacity: 0.7; stroke: #000000; stroke-width: 1.2; stroke-linejoin: miter"/>
   </g>
   <g id="line2d_121">
    <path d="M 887.900625 214.327913 
L 887.900625 217.968239 
" clip-path="url(#ped69deb403)" style="fill: none; stroke: #515151"/>
   </g>
   <g id="line2d_122">
    <path d="M 887.900625 199.736114 
L 887.900625 185.171829 
" clip-path="url(#ped69deb403)" style="fill: none; stroke: #515151"/>
   </g>
   <g id="line2d_123">
    <path d="M 878.925375 217.968239 
L 896.875875 217.968239 
" clip-path="url(#ped69deb403)" style="fill: none; stroke: #515151; stroke-linecap: round"/>
   </g>
   <g id="line2d_124">
    <path d="M 878.925375 185.171829 
L 896.875875 185.171829 
" clip-path="url(#ped69deb403)" style="fill: none; stroke: #515151; stroke-linecap: round"/>
   </g>
   <g id="line2d_125"/>
   <g id="patch_22">
    <path d="M 914.826375 214.441822 
L 950.727375 214.441822 
L 950.727375 193.147643 
L 914.826375 193.147643 
L 914.826375 214.441822 
z
" clip-path="url(#ped69deb403)" style="fill: #ff7f0e; opacity: 0.7; stroke: #000000; stroke-width: 1.2; stroke-linejoin: miter"/>
   </g>
   <g id="line2d_126">
    <path d="M 932.776875 214.441822 
L 932.776875 217.968239 
" clip-path="url(#ped69deb403)" style="fill: none; stroke: #515151"/>
   </g>
   <g id="line2d_127">
    <path d="M 932.776875 193.147643 
L 932.776875 171.854713 
" clip-path="url(#ped69deb403)" style="fill: none; stroke: #515151"/>
   </g>
   <g id="line2d_128">
    <path d="M 923.801625 217.968239 
L 941.752125 217.968239 
" clip-path="url(#ped69deb403)" style="fill: none; stroke: #515151; stroke-linecap: round"/>
   </g>
   <g id="line2d_129">
    <path d="M 923.801625 171.854713 
L 941.752125 171.854713 
" clip-path="url(#ped69deb403)" style="fill: none; stroke: #515151; stroke-linecap: round"/>
   </g>
   <g id="line2d_130"/>
   <g id="patch_23">
    <path d="M 959.702625 214.460296 
L 995.603625 214.460296 
L 995.603625 183.061534 
L 959.702625 183.061534 
L 959.702625 214.460296 
z
" clip-path="url(#ped69deb403)" style="fill: #ff7f0e; opacity: 0.7; stroke: #000000; stroke-width: 1.2; stroke-linejoin: miter"/>
   </g>
   <g id="line2d_131">
    <path d="M 977.653125 214.460296 
L 977.653125 217.940751 
" clip-path="url(#ped69deb403)" style="fill: none; stroke: #515151"/>
   </g>
   <g id="line2d_132">
    <path d="M 977.653125 183.061534 
L 977.653125 151.85754 
" clip-path="url(#ped69deb403)" style="fill: none; stroke: #515151"/>
   </g>
   <g id="line2d_133">
    <path d="M 968.677875 217.940751 
L 986.628375 217.940751 
" clip-path="url(#ped69deb403)" style="fill: none; stroke: #515151; stroke-linecap: round"/>
   </g>
   <g id="line2d_134">
    <path d="M 968.677875 151.85754 
L 986.628375 151.85754 
" clip-path="url(#ped69deb403)" style="fill: none; stroke: #515151; stroke-linecap: round"/>
   </g>
   <g id="line2d_135"/>
   <g id="patch_24">
    <path d="M 1004.578875 214.475912 
L 1040.479875 214.475912 
L 1040.479875 183.01398 
L 1004.578875 183.01398 
L 1004.578875 214.475912 
z
" clip-path="url(#ped69deb403)" style="fill: #ff7f0e; opacity: 0.7; stroke: #000000; stroke-width: 1.2; stroke-linejoin: miter"/>
   </g>
   <g id="line2d_136">
    <path d="M 1022.529375 214.475912 
L 1022.529375 217.968239 
" clip-path="url(#ped69deb403)" style="fill: none; stroke: #515151"/>
   </g>
   <g id="line2d_137">
    <path d="M 1022.529375 183.01398 
L 1022.529375 151.665926 
" clip-path="url(#ped69deb403)" style="fill: none; stroke: #515151"/>
   </g>
   <g id="line2d_138">
    <path d="M 1013.554125 217.968239 
L 1031.504625 217.968239 
" clip-path="url(#ped69deb403)" style="fill: none; stroke: #515151; stroke-linecap: round"/>
   </g>
   <g id="line2d_139">
    <path d="M 1013.554125 151.665926 
L 1031.504625 151.665926 
" clip-path="url(#ped69deb403)" style="fill: none; stroke: #515151; stroke-linecap: round"/>
   </g>
   <g id="line2d_140"/>
   <g id="patch_25">
    <path d="M 1049.455125 214.504552 
L 1085.356125 214.504552 
L 1085.356125 199.908782 
L 1049.455125 199.908782 
L 1049.455125 214.504552 
z
" clip-path="url(#ped69deb403)" style="fill: #ff7f0e; opacity: 0.7; stroke: #000000; stroke-width: 1.2; stroke-linejoin: miter"/>
   </g>
   <g id="line2d_141">
    <path d="M 1067.405625 214.504552 
L 1067.405625 217.958566 
" clip-path="url(#ped69deb403)" style="fill: none; stroke: #515151"/>
   </g>
   <g id="line2d_142">
    <path d="M 1067.405625 199.908782 
L 1067.405625 185.32659 
" clip-path="url(#ped69deb403)" style="fill: none; stroke: #515151"/>
   </g>
   <g id="line2d_143">
    <path d="M 1058.430375 217.958566 
L 1076.380875 217.958566 
" clip-path="url(#ped69deb403)" style="fill: none; stroke: #515151; stroke-linecap: round"/>
   </g>
   <g id="line2d_144">
    <path d="M 1058.430375 185.32659 
L 1076.380875 185.32659 
" clip-path="url(#ped69deb403)" style="fill: none; stroke: #515151; stroke-linecap: round"/>
   </g>
   <g id="line2d_145"/>
   <g id="patch_26">
    <path d="M 1094.331375 214.393378 
L 1130.232375 214.393378 
L 1130.232375 192.155271 
L 1094.331375 192.155271 
L 1094.331375 214.393378 
z
" clip-path="url(#ped69deb403)" style="fill: #ff7f0e; opacity: 0.7; stroke: #000000; stroke-width: 1.2; stroke-linejoin: miter"/>
   </g>
   <g id="line2d_146">
    <path d="M 1112.281875 214.393378 
L 1112.281875 217.950341 
" clip-path="url(#ped69deb403)" style="fill: none; stroke: #515151"/>
   </g>
   <g id="line2d_147">
    <path d="M 1112.281875 192.155271 
L 1112.281875 169.96918 
" clip-path="url(#ped69deb403)" style="fill: none; stroke: #515151"/>
   </g>
   <g id="line2d_148">
    <path d="M 1103.306625 217.950341 
L 1121.257125 217.950341 
" clip-path="url(#ped69deb403)" style="fill: none; stroke: #515151; stroke-linecap: round"/>
   </g>
   <g id="line2d_149">
    <path d="M 1103.306625 169.96918 
L 1121.257125 169.96918 
" clip-path="url(#ped69deb403)" style="fill: none; stroke: #515151; stroke-linecap: round"/>
   </g>
   <g id="line2d_150"/>
   <g id="line2d_151">
    <path d="M 62.177625 211.326774 
L 98.078625 211.326774 
" clip-path="url(#ped69deb403)" style="fill: none; stroke: #515151"/>
   </g>
   <g id="line2d_152">
    <path d="M 107.053875 208.068802 
L 142.954875 208.068802 
" clip-path="url(#ped69deb403)" style="fill: none; stroke: #515151"/>
   </g>
   <g id="line2d_153">
    <path d="M 151.930125 173.559968 
L 187.831125 173.559968 
" clip-path="url(#ped69deb403)" style="fill: none; stroke: #515151"/>
   </g>
   <g id="line2d_154">
    <path d="M 196.806375 208.498713 
L 232.707375 208.498713 
" clip-path="url(#ped69deb403)" style="fill: none; stroke: #515151"/>
   </g>
   <g id="line2d_155">
    <path d="M 241.682625 209.080236 
L 277.583625 209.080236 
" clip-path="url(#ped69deb403)" style="fill: none; stroke: #515151"/>
   </g>
   <g id="line2d_156">
    <path d="M 286.558875 204.79652 
L 322.459875 204.79652 
" clip-path="url(#ped69deb403)" style="fill: none; stroke: #515151"/>
   </g>
   <g id="line2d_157">
    <path d="M 331.435125 200.711702 
L 367.336125 200.711702 
" clip-path="url(#ped69deb403)" style="fill: none; stroke: #515151"/>
   </g>
   <g id="line2d_158">
    <path d="M 376.311375 205.499811 
L 412.212375 205.499811 
" clip-path="url(#ped69deb403)" style="fill: none; stroke: #515151"/>
   </g>
   <g id="line2d_159">
    <path d="M 421.187625 212.948746 
L 457.088625 212.948746 
" clip-path="url(#ped69deb403)" style="fill: none; stroke: #515151"/>
   </g>
   <g id="line2d_160">
    <path d="M 466.063875 211.325418 
L 501.964875 211.325418 
" clip-path="url(#ped69deb403)" style="fill: none; stroke: #515151"/>
   </g>
   <g id="line2d_161">
    <path d="M 510.940125 162.050754 
L 546.841125 162.050754 
" clip-path="url(#ped69deb403)" style="fill: none; stroke: #515151"/>
   </g>
   <g id="line2d_162">
    <path d="M 555.816375 208.949221 
L 591.717375 208.949221 
" clip-path="url(#ped69deb403)" style="fill: none; stroke: #515151"/>
   </g>
   <g id="line2d_163">
    <path d="M 600.692625 211.027362 
L 636.593625 211.027362 
" clip-path="url(#ped69deb403)" style="fill: none; stroke: #515151"/>
   </g>
   <g id="line2d_164">
    <path d="M 645.568875 212.146246 
L 681.469875 212.146246 
" clip-path="url(#ped69deb403)" style="fill: none; stroke: #515151"/>
   </g>
   <g id="line2d_165">
    <path d="M 690.445125 212.842833 
L 726.346125 212.842833 
" clip-path="url(#ped69deb403)" style="fill: none; stroke: #515151"/>
   </g>
   <g id="line2d_166">
    <path d="M 735.321375 213.361944 
L 771.222375 213.361944 
" clip-path="url(#ped69deb403)" style="fill: none; stroke: #515151"/>
   </g>
   <g id="line2d_167">
    <path d="M 780.197625 209.824371 
L 816.098625 209.824371 
" clip-path="url(#ped69deb403)" style="fill: none; stroke: #515151"/>
   </g>
   <g id="line2d_168">
    <path d="M 825.073875 208.211665 
L 860.974875 208.211665 
" clip-path="url(#ped69deb403)" style="fill: none; stroke: #515151"/>
   </g>
   <g id="line2d_169">
    <path d="M 869.950125 209.316173 
L 905.851125 209.316173 
" clip-path="url(#ped69deb403)" style="fill: none; stroke: #515151"/>
   </g>
   <g id="line2d_170">
    <path d="M 914.826375 211.055503 
L 950.727375 211.055503 
" clip-path="url(#ped69deb403)" style="fill: none; stroke: #515151"/>
   </g>
   <g id="line2d_171">
    <path d="M 959.702625 207.706416 
L 995.603625 207.706416 
" clip-path="url(#ped69deb403)" style="fill: none; stroke: #515151"/>
   </g>
   <g id="line2d_172">
    <path d="M 1004.578875 208.554811 
L 1040.479875 208.554811 
" clip-path="url(#ped69deb403)" style="fill: none; stroke: #515151"/>
   </g>
   <g id="line2d_173">
    <path d="M 1049.455125 211.195937 
L 1085.356125 211.195937 
" clip-path="url(#ped69deb403)" style="fill: none; stroke: #515151"/>
   </g>
   <g id="line2d_174">
    <path d="M 1094.331375 208.313699 
L 1130.232375 208.313699 
" clip-path="url(#ped69deb403)" style="fill: none; stroke: #515151"/>
   </g>
   <g id="patch_27">
    <path d="M 57.69 226.759107 
L 57.69 33.36 
" style="fill: none; stroke: #cccccc; stroke-width: 1.25; stroke-linejoin: miter; stroke-linecap: square"/>
   </g>
   <g id="patch_28">
    <path d="M 1134.72 226.759107 
L 1134.72 33.36 
" style="fill: none; stroke: #cccccc; stroke-width: 1.25; stroke-linejoin: miter; stroke-linecap: square"/>
   </g>
   <g id="patch_29">
    <path d="M 57.69 226.759107 
L 1134.72 226.759107 
" style="fill: none; stroke: #cccccc; stroke-width: 1.25; stroke-linejoin: miter; stroke-linecap: square"/>
   </g>
   <g id="patch_30">
    <path d="M 57.69 33.36 
L 1134.72 33.36 
" style="fill: none; stroke: #cccccc; stroke-width: 1.25; stroke-linejoin: miter; stroke-linecap: square"/>
   </g>
   <g id="text_33">
    <!-- Hourly Distribution of CPU Requests (&gt;15 min duration) -->
    <g style="fill: #262626" transform="translate(428.7975 27.36) scale(0.12 -0.12)">
     <defs>
      <path id="DejaVuSans-6c" d="M 603 4863 
L 1178 4863 
L 1178 0 
L 603 0 
L 603 4863 
z
" transform="scale(0.015625)"/>
      <path id="DejaVuSans-69" d="M 603 3500 
L 1178 3500 
L 1178 0 
L 603 0 
L 603 3500 
z
M 603 4863 
L 1178 4863 
L 1178 4134 
L 603 4134 
L 603 4863 
z
" transform="scale(0.015625)"/>
      <path id="DejaVuSans-62" d="M 3116 1747 
Q 3116 2381 2855 2742 
Q 2594 3103 2138 3103 
Q 1681 3103 1420 2742 
Q 1159 2381 1159 1747 
Q 1159 1113 1420 752 
Q 1681 391 2138 391 
Q 2594 391 2855 752 
Q 3116 1113 3116 1747 
z
M 1159 2969 
Q 1341 3281 1617 3432 
Q 1894 3584 2278 3584 
Q 2916 3584 3314 3078 
Q 3713 2572 3713 1747 
Q 3713 922 3314 415 
Q 2916 -91 2278 -91 
Q 1894 -91 1617 61 
Q 1341 213 1159 525 
L 1159 0 
L 581 0 
L 581 4863 
L 1159 4863 
L 1159 2969 
z
" transform="scale(0.015625)"/>
      <path id="DejaVuSans-6e" d="M 3513 2113 
L 3513 0 
L 2938 0 
L 2938 2094 
Q 2938 2591 2744 2837 
Q 2550 3084 2163 3084 
Q 1697 3084 1428 2787 
Q 1159 2491 1159 1978 
L 1159 0 
L 581 0 
L 581 3500 
L 1159 3500 
L 1159 2956 
Q 1366 3272 1645 3428 
Q 1925 3584 2291 3584 
Q 2894 3584 3203 3211 
Q 3513 2838 3513 2113 
z
" transform="scale(0.015625)"/>
      <path id="DejaVuSans-28" d="M 1984 4856 
Q 1566 4138 1362 3434 
Q 1159 2731 1159 2009 
Q 1159 1288 1364 580 
Q 1569 -128 1984 -844 
L 1484 -844 
Q 1016 -109 783 600 
Q 550 1309 550 2009 
Q 550 2706 781 3412 
Q 1013 4119 1484 4856 
L 1984 4856 
z
" transform="scale(0.015625)"/>
      <path id="DejaVuSans-3e" d="M 678 3150 
L 678 3719 
L 4684 2266 
L 4684 1747 
L 678 294 
L 678 863 
L 3897 2003 
L 678 3150 
z
" transform="scale(0.015625)"/>
      <path id="DejaVuSans-6d" d="M 3328 2828 
Q 3544 3216 3844 3400 
Q 4144 3584 4550 3584 
Q 5097 3584 5394 3201 
Q 5691 2819 5691 2113 
L 5691 0 
L 5113 0 
L 5113 2094 
Q 5113 2597 4934 2840 
Q 4756 3084 4391 3084 
Q 3944 3084 3684 2787 
Q 3425 2491 3425 1978 
L 3425 0 
L 2847 0 
L 2847 2094 
Q 2847 2600 2669 2842 
Q 2491 3084 2119 3084 
Q 1678 3084 1418 2786 
Q 1159 2488 1159 1978 
L 1159 0 
L 581 0 
L 581 3500 
L 1159 3500 
L 1159 2956 
Q 1356 3278 1631 3431 
Q 1906 3584 2284 3584 
Q 2666 3584 2933 3390 
Q 3200 3197 3328 2828 
z
" transform="scale(0.015625)"/>
      <path id="DejaVuSans-29" d="M 513 4856 
L 1013 4856 
Q 1481 4119 1714 3412 
Q 1947 2706 1947 2009 
Q 1947 1309 1714 600 
Q 1481 -109 1013 -844 
L 513 -844 
Q 928 -128 1133 580 
Q 1338 1288 1338 2009 
Q 1338 2731 1133 3434 
Q 928 4138 513 4856 
z
" transform="scale(0.015625)"/>
     </defs>
     <use xlink:href="#DejaVuSans-48"/>
     <use xlink:href="#DejaVuSans-6f" x="75.195312"/>
     <use xlink:href="#DejaVuSans-75" x="136.376953"/>
     <use xlink:href="#DejaVuSans-72" x="199.755859"/>
     <use xlink:href="#DejaVuSans-6c" x="240.869141"/>
     <use xlink:href="#DejaVuSans-79" x="268.652344"/>
     <use xlink:href="#DejaVuSans-20" x="327.832031"/>
     <use xlink:href="#DejaVuSans-44" x="359.619141"/>
     <use xlink:href="#DejaVuSans-69" x="436.621094"/>
     <use xlink:href="#DejaVuSans-73" x="464.404297"/>
     <use xlink:href="#DejaVuSans-74" x="516.503906"/>
     <use xlink:href="#DejaVuSans-72" x="555.712891"/>
     <use xlink:href="#DejaVuSans-69" x="596.826172"/>
     <use xlink:href="#DejaVuSans-62" x="624.609375"/>
     <use xlink:href="#DejaVuSans-75" x="688.085938"/>
     <use xlink:href="#DejaVuSans-74" x="751.464844"/>
     <use xlink:href="#DejaVuSans-69" x="790.673828"/>
     <use xlink:href="#DejaVuSans-6f" x="818.457031"/>
     <use xlink:href="#DejaVuSans-6e" x="879.638672"/>
     <use xlink:href="#DejaVuSans-20" x="943.017578"/>
     <use xlink:href="#DejaVuSans-6f" x="974.804688"/>
     <use xlink:href="#DejaVuSans-66" x="1035.986328"/>
     <use xlink:href="#DejaVuSans-20" x="1071.191406"/>
     <use xlink:href="#DejaVuSans-43" x="1102.978516"/>
     <use xlink:href="#DejaVuSans-50" x="1172.802734"/>
     <use xlink:href="#DejaVuSans-55" x="1233.105469"/>
     <use xlink:href="#DejaVuSans-20" x="1306.298828"/>
     <use xlink:href="#DejaVuSans-52" x="1338.085938"/>
     <use xlink:href="#DejaVuSans-65" x="1403.068359"/>
     <use xlink:href="#DejaVuSans-71" x="1464.591797"/>
     <use xlink:href="#DejaVuSans-75" x="1528.068359"/>
     <use xlink:href="#DejaVuSans-65" x="1591.447266"/>
     <use xlink:href="#DejaVuSans-73" x="1652.970703"/>
     <use xlink:href="#DejaVuSans-74" x="1705.070312"/>
     <use xlink:href="#DejaVuSans-73" x="1744.279297"/>
     <use xlink:href="#DejaVuSans-20" x="1796.378906"/>
     <use xlink:href="#DejaVuSans-28" x="1828.166016"/>
     <use xlink:href="#DejaVuSans-3e" x="1867.179688"/>
     <use xlink:href="#DejaVuSans-31" x="1950.96875"/>
     <use xlink:href="#DejaVuSans-35" x="2014.591797"/>
     <use xlink:href="#DejaVuSans-20" x="2078.214844"/>
     <use xlink:href="#DejaVuSans-6d" x="2110.001953"/>
     <use xlink:href="#DejaVuSans-69" x="2207.414062"/>
     <use xlink:href="#DejaVuSans-6e" x="2235.197266"/>
     <use xlink:href="#DejaVuSans-20" x="2298.576172"/>
     <use xlink:href="#DejaVuSans-64" x="2330.363281"/>
     <use xlink:href="#DejaVuSans-75" x="2393.839844"/>
     <use xlink:href="#DejaVuSans-72" x="2457.21875"/>
     <use xlink:href="#DejaVuSans-61" x="2498.332031"/>
     <use xlink:href="#DejaVuSans-74" x="2559.611328"/>
     <use xlink:href="#DejaVuSans-69" x="2598.820312"/>
     <use xlink:href="#DejaVuSans-6f" x="2626.603516"/>
     <use xlink:href="#DejaVuSans-6e" x="2687.785156"/>
     <use xlink:href="#DejaVuSans-29" x="2751.164062"/>
    </g>
   </g>
  </g>
 </g>
 <defs>
  <clipPath id="ped69deb403">
   <rect x="57.69" y="33.36" width="1077.03" height="193.399107"/>
  </clipPath>
 </defs>
</svg>
