<?xml version="1.0" encoding="utf-8" standalone="no"?>
<!DOCTYPE svg PUBLIC "-//W3C//DTD SVG 1.1//EN"
  "http://www.w3.org/Graphics/SVG/1.1/DTD/svg11.dtd">
<svg xmlns:xlink="http://www.w3.org/1999/xlink" width="1152pt" height="288pt" viewBox="0 0 1152 288" xmlns="http://www.w3.org/2000/svg" version="1.1">
 <metadata>
  <rdf:RDF xmlns:dc="http://purl.org/dc/elements/1.1/" xmlns:cc="http://creativecommons.org/ns#" xmlns:rdf="http://www.w3.org/1999/02/22-rdf-syntax-ns#">
   <cc:Work>
    <dc:type rdf:resource="http://purl.org/dc/dcmitype/StillImage"/>
    <dc:date>2025-04-15T11:45:05.205006</dc:date>
    <dc:format>image/svg+xml</dc:format>
    <dc:creator>
     <cc:Agent>
      <dc:title>Matplotlib v3.8.3, https://matplotlib.org/</dc:title>
     </cc:Agent>
    </dc:creator>
   </cc:Work>
  </rdf:RDF>
 </metadata>
 <defs>
  <style type="text/css">*{stroke-linejoin: round; stroke-linecap: butt}</style>
 </defs>
 <g id="figure_1">
  <g id="patch_1">
   <path d="M 0 288 
L 1152 288 
L 1152 0 
L 0 0 
z
" style="fill: #ffffff"/>
  </g>
  <g id="axes_1">
   <g id="patch_2">
    <path d="M 59.805 228.213041 
L 1134.72 228.213041 
L 1134.72 32.28 
L 59.805 32.28 
z
" style="fill: #ffffff"/>
   </g>
   <g id="matplotlib.axis_1">
    <g id="xtick_1">
     <g id="line2d_1">
      <path d="M 82.199062 228.213041 
L 82.199062 32.28 
" clip-path="url(#pd6a822b80c)" style="fill: none; stroke-dasharray: 3.7,1.6; stroke-dashoffset: 0; stroke: #cccccc; stroke-opacity: 0.3"/>
     </g>
     <g id="text_1">
      <!-- 0 -->
      <g style="fill: #262626" transform="translate(81.870921 248.572102) rotate(-45) scale(0.11 -0.11)">
       <defs>
        <path id="DejaVuSans-30" d="M 2034 4250 
Q 1547 4250 1301 3770 
Q 1056 3291 1056 2328 
Q 1056 1369 1301 889 
Q 1547 409 2034 409 
Q 2525 409 2770 889 
Q 3016 1369 3016 2328 
Q 3016 3291 2770 3770 
Q 2525 4250 2034 4250 
z
M 2034 4750 
Q 2819 4750 3233 4129 
Q 3647 3509 3647 2328 
Q 3647 1150 3233 529 
Q 2819 -91 2034 -91 
Q 1250 -91 836 529 
Q 422 1150 422 2328 
Q 422 3509 836 4129 
Q 1250 4750 2034 4750 
z
" transform="scale(0.015625)"/>
       </defs>
       <use xlink:href="#DejaVuSans-30"/>
      </g>
     </g>
    </g>
    <g id="xtick_2">
     <g id="line2d_2">
      <path d="M 126.987187 228.213041 
L 126.987187 32.28 
" clip-path="url(#pd6a822b80c)" style="fill: none; stroke-dasharray: 3.7,1.6; stroke-dashoffset: 0; stroke: #cccccc; stroke-opacity: 0.3"/>
     </g>
     <g id="text_2">
      <!-- 1 -->
      <g style="fill: #262626" transform="translate(126.659046 248.572102) rotate(-45) scale(0.11 -0.11)">
       <defs>
        <path id="DejaVuSans-31" d="M 794 531 
L 1825 531 
L 1825 4091 
L 703 3866 
L 703 4441 
L 1819 4666 
L 2450 4666 
L 2450 531 
L 3481 531 
L 3481 0 
L 794 0 
L 794 531 
z
" transform="scale(0.015625)"/>
       </defs>
       <use xlink:href="#DejaVuSans-31"/>
      </g>
     </g>
    </g>
    <g id="xtick_3">
     <g id="line2d_3">
      <path d="M 171.775312 228.213041 
L 171.775312 32.28 
" clip-path="url(#pd6a822b80c)" style="fill: none; stroke-dasharray: 3.7,1.6; stroke-dashoffset: 0; stroke: #cccccc; stroke-opacity: 0.3"/>
     </g>
     <g id="text_3">
      <!-- 2 -->
      <g style="fill: #262626" transform="translate(171.447171 248.572102) rotate(-45) scale(0.11 -0.11)">
       <defs>
        <path id="DejaVuSans-32" d="M 1228 531 
L 3431 531 
L 3431 0 
L 469 0 
L 469 531 
Q 828 903 1448 1529 
Q 2069 2156 2228 2338 
Q 2531 2678 2651 2914 
Q 2772 3150 2772 3378 
Q 2772 3750 2511 3984 
Q 2250 4219 1831 4219 
Q 1534 4219 1204 4116 
Q 875 4013 500 3803 
L 500 4441 
Q 881 4594 1212 4672 
Q 1544 4750 1819 4750 
Q 2544 4750 2975 4387 
Q 3406 4025 3406 3419 
Q 3406 3131 3298 2873 
Q 3191 2616 2906 2266 
Q 2828 2175 2409 1742 
Q 1991 1309 1228 531 
z
" transform="scale(0.015625)"/>
       </defs>
       <use xlink:href="#DejaVuSans-32"/>
      </g>
     </g>
    </g>
    <g id="xtick_4">
     <g id="line2d_4">
      <path d="M 216.563437 228.213041 
L 216.563437 32.28 
" clip-path="url(#pd6a822b80c)" style="fill: none; stroke-dasharray: 3.7,1.6; stroke-dashoffset: 0; stroke: #cccccc; stroke-opacity: 0.3"/>
     </g>
     <g id="text_4">
      <!-- 3 -->
      <g style="fill: #262626" transform="translate(216.235296 248.572102) rotate(-45) scale(0.11 -0.11)">
       <defs>
        <path id="DejaVuSans-33" d="M 2597 2516 
Q 3050 2419 3304 2112 
Q 3559 1806 3559 1356 
Q 3559 666 3084 287 
Q 2609 -91 1734 -91 
Q 1441 -91 1130 -33 
Q 819 25 488 141 
L 488 750 
Q 750 597 1062 519 
Q 1375 441 1716 441 
Q 2309 441 2620 675 
Q 2931 909 2931 1356 
Q 2931 1769 2642 2001 
Q 2353 2234 1838 2234 
L 1294 2234 
L 1294 2753 
L 1863 2753 
Q 2328 2753 2575 2939 
Q 2822 3125 2822 3475 
Q 2822 3834 2567 4026 
Q 2313 4219 1838 4219 
Q 1578 4219 1281 4162 
Q 984 4106 628 3988 
L 628 4550 
Q 988 4650 1302 4700 
Q 1616 4750 1894 4750 
Q 2613 4750 3031 4423 
Q 3450 4097 3450 3541 
Q 3450 3153 3228 2886 
Q 3006 2619 2597 2516 
z
" transform="scale(0.015625)"/>
       </defs>
       <use xlink:href="#DejaVuSans-33"/>
      </g>
     </g>
    </g>
    <g id="xtick_5">
     <g id="line2d_5">
      <path d="M 261.351562 228.213041 
L 261.351562 32.28 
" clip-path="url(#pd6a822b80c)" style="fill: none; stroke-dasharray: 3.7,1.6; stroke-dashoffset: 0; stroke: #cccccc; stroke-opacity: 0.3"/>
     </g>
     <g id="text_5">
      <!-- 4 -->
      <g style="fill: #262626" transform="translate(261.023421 248.572102) rotate(-45) scale(0.11 -0.11)">
       <defs>
        <path id="DejaVuSans-34" d="M 2419 4116 
L 825 1625 
L 2419 1625 
L 2419 4116 
z
M 2253 4666 
L 3047 4666 
L 3047 1625 
L 3713 1625 
L 3713 1100 
L 3047 1100 
L 3047 0 
L 2419 0 
L 2419 1100 
L 313 1100 
L 313 1709 
L 2253 4666 
z
" transform="scale(0.015625)"/>
       </defs>
       <use xlink:href="#DejaVuSans-34"/>
      </g>
     </g>
    </g>
    <g id="xtick_6">
     <g id="line2d_6">
      <path d="M 306.139687 228.213041 
L 306.139687 32.28 
" clip-path="url(#pd6a822b80c)" style="fill: none; stroke-dasharray: 3.7,1.6; stroke-dashoffset: 0; stroke: #cccccc; stroke-opacity: 0.3"/>
     </g>
     <g id="text_6">
      <!-- 5 -->
      <g style="fill: #262626" transform="translate(305.811546 248.572102) rotate(-45) scale(0.11 -0.11)">
       <defs>
        <path id="DejaVuSans-35" d="M 691 4666 
L 3169 4666 
L 3169 4134 
L 1269 4134 
L 1269 2991 
Q 1406 3038 1543 3061 
Q 1681 3084 1819 3084 
Q 2600 3084 3056 2656 
Q 3513 2228 3513 1497 
Q 3513 744 3044 326 
Q 2575 -91 1722 -91 
Q 1428 -91 1123 -41 
Q 819 9 494 109 
L 494 744 
Q 775 591 1075 516 
Q 1375 441 1709 441 
Q 2250 441 2565 725 
Q 2881 1009 2881 1497 
Q 2881 1984 2565 2268 
Q 2250 2553 1709 2553 
Q 1456 2553 1204 2497 
Q 953 2441 691 2322 
L 691 4666 
z
" transform="scale(0.015625)"/>
       </defs>
       <use xlink:href="#DejaVuSans-35"/>
      </g>
     </g>
    </g>
    <g id="xtick_7">
     <g id="line2d_7">
      <path d="M 350.927812 228.213041 
L 350.927812 32.28 
" clip-path="url(#pd6a822b80c)" style="fill: none; stroke-dasharray: 3.7,1.6; stroke-dashoffset: 0; stroke: #cccccc; stroke-opacity: 0.3"/>
     </g>
     <g id="text_7">
      <!-- 6 -->
      <g style="fill: #262626" transform="translate(350.599671 248.572102) rotate(-45) scale(0.11 -0.11)">
       <defs>
        <path id="DejaVuSans-36" d="M 2113 2584 
Q 1688 2584 1439 2293 
Q 1191 2003 1191 1497 
Q 1191 994 1439 701 
Q 1688 409 2113 409 
Q 2538 409 2786 701 
Q 3034 994 3034 1497 
Q 3034 2003 2786 2293 
Q 2538 2584 2113 2584 
z
M 3366 4563 
L 3366 3988 
Q 3128 4100 2886 4159 
Q 2644 4219 2406 4219 
Q 1781 4219 1451 3797 
Q 1122 3375 1075 2522 
Q 1259 2794 1537 2939 
Q 1816 3084 2150 3084 
Q 2853 3084 3261 2657 
Q 3669 2231 3669 1497 
Q 3669 778 3244 343 
Q 2819 -91 2113 -91 
Q 1303 -91 875 529 
Q 447 1150 447 2328 
Q 447 3434 972 4092 
Q 1497 4750 2381 4750 
Q 2619 4750 2861 4703 
Q 3103 4656 3366 4563 
z
" transform="scale(0.015625)"/>
       </defs>
       <use xlink:href="#DejaVuSans-36"/>
      </g>
     </g>
    </g>
    <g id="xtick_8">
     <g id="line2d_8">
      <path d="M 395.715937 228.213041 
L 395.715937 32.28 
" clip-path="url(#pd6a822b80c)" style="fill: none; stroke-dasharray: 3.7,1.6; stroke-dashoffset: 0; stroke: #cccccc; stroke-opacity: 0.3"/>
     </g>
     <g id="text_8">
      <!-- 7 -->
      <g style="fill: #262626" transform="translate(395.387796 248.572102) rotate(-45) scale(0.11 -0.11)">
       <defs>
        <path id="DejaVuSans-37" d="M 525 4666 
L 3525 4666 
L 3525 4397 
L 1831 0 
L 1172 0 
L 2766 4134 
L 525 4134 
L 525 4666 
z
" transform="scale(0.015625)"/>
       </defs>
       <use xlink:href="#DejaVuSans-37"/>
      </g>
     </g>
    </g>
    <g id="xtick_9">
     <g id="line2d_9">
      <path d="M 440.504062 228.213041 
L 440.504062 32.28 
" clip-path="url(#pd6a822b80c)" style="fill: none; stroke-dasharray: 3.7,1.6; stroke-dashoffset: 0; stroke: #cccccc; stroke-opacity: 0.3"/>
     </g>
     <g id="text_9">
      <!-- 8 -->
      <g style="fill: #262626" transform="translate(440.175921 248.572102) rotate(-45) scale(0.11 -0.11)">
       <defs>
        <path id="DejaVuSans-38" d="M 2034 2216 
Q 1584 2216 1326 1975 
Q 1069 1734 1069 1313 
Q 1069 891 1326 650 
Q 1584 409 2034 409 
Q 2484 409 2743 651 
Q 3003 894 3003 1313 
Q 3003 1734 2745 1975 
Q 2488 2216 2034 2216 
z
M 1403 2484 
Q 997 2584 770 2862 
Q 544 3141 544 3541 
Q 544 4100 942 4425 
Q 1341 4750 2034 4750 
Q 2731 4750 3128 4425 
Q 3525 4100 3525 3541 
Q 3525 3141 3298 2862 
Q 3072 2584 2669 2484 
Q 3125 2378 3379 2068 
Q 3634 1759 3634 1313 
Q 3634 634 3220 271 
Q 2806 -91 2034 -91 
Q 1263 -91 848 271 
Q 434 634 434 1313 
Q 434 1759 690 2068 
Q 947 2378 1403 2484 
z
M 1172 3481 
Q 1172 3119 1398 2916 
Q 1625 2713 2034 2713 
Q 2441 2713 2670 2916 
Q 2900 3119 2900 3481 
Q 2900 3844 2670 4047 
Q 2441 4250 2034 4250 
Q 1625 4250 1398 4047 
Q 1172 3844 1172 3481 
z
" transform="scale(0.015625)"/>
       </defs>
       <use xlink:href="#DejaVuSans-38"/>
      </g>
     </g>
    </g>
    <g id="xtick_10">
     <g id="line2d_10">
      <path d="M 485.292187 228.213041 
L 485.292187 32.28 
" clip-path="url(#pd6a822b80c)" style="fill: none; stroke-dasharray: 3.7,1.6; stroke-dashoffset: 0; stroke: #cccccc; stroke-opacity: 0.3"/>
     </g>
     <g id="text_10">
      <!-- 9 -->
      <g style="fill: #262626" transform="translate(484.964046 248.572102) rotate(-45) scale(0.11 -0.11)">
       <defs>
        <path id="DejaVuSans-39" d="M 703 97 
L 703 672 
Q 941 559 1184 500 
Q 1428 441 1663 441 
Q 2288 441 2617 861 
Q 2947 1281 2994 2138 
Q 2813 1869 2534 1725 
Q 2256 1581 1919 1581 
Q 1219 1581 811 2004 
Q 403 2428 403 3163 
Q 403 3881 828 4315 
Q 1253 4750 1959 4750 
Q 2769 4750 3195 4129 
Q 3622 3509 3622 2328 
Q 3622 1225 3098 567 
Q 2575 -91 1691 -91 
Q 1453 -91 1209 -44 
Q 966 3 703 97 
z
M 1959 2075 
Q 2384 2075 2632 2365 
Q 2881 2656 2881 3163 
Q 2881 3666 2632 3958 
Q 2384 4250 1959 4250 
Q 1534 4250 1286 3958 
Q 1038 3666 1038 3163 
Q 1038 2656 1286 2365 
Q 1534 2075 1959 2075 
z
" transform="scale(0.015625)"/>
       </defs>
       <use xlink:href="#DejaVuSans-39"/>
      </g>
     </g>
    </g>
    <g id="xtick_11">
     <g id="line2d_11">
      <path d="M 530.080312 228.213041 
L 530.080312 32.28 
" clip-path="url(#pd6a822b80c)" style="fill: none; stroke-dasharray: 3.7,1.6; stroke-dashoffset: 0; stroke: #cccccc; stroke-opacity: 0.3"/>
     </g>
     <g id="text_11">
      <!-- 10 -->
      <g style="fill: #262626" transform="translate(527.277739 253.520966) rotate(-45) scale(0.11 -0.11)">
       <use xlink:href="#DejaVuSans-31"/>
       <use xlink:href="#DejaVuSans-30" x="63.623047"/>
      </g>
     </g>
    </g>
    <g id="xtick_12">
     <g id="line2d_12">
      <path d="M 574.868437 228.213041 
L 574.868437 32.28 
" clip-path="url(#pd6a822b80c)" style="fill: none; stroke-dasharray: 3.7,1.6; stroke-dashoffset: 0; stroke: #cccccc; stroke-opacity: 0.3"/>
     </g>
     <g id="text_12">
      <!-- 11 -->
      <g style="fill: #262626" transform="translate(572.065864 253.520966) rotate(-45) scale(0.11 -0.11)">
       <use xlink:href="#DejaVuSans-31"/>
       <use xlink:href="#DejaVuSans-31" x="63.623047"/>
      </g>
     </g>
    </g>
    <g id="xtick_13">
     <g id="line2d_13">
      <path d="M 619.656562 228.213041 
L 619.656562 32.28 
" clip-path="url(#pd6a822b80c)" style="fill: none; stroke-dasharray: 3.7,1.6; stroke-dashoffset: 0; stroke: #cccccc; stroke-opacity: 0.3"/>
     </g>
     <g id="text_13">
      <!-- 12 -->
      <g style="fill: #262626" transform="translate(616.853989 253.520966) rotate(-45) scale(0.11 -0.11)">
       <use xlink:href="#DejaVuSans-31"/>
       <use xlink:href="#DejaVuSans-32" x="63.623047"/>
      </g>
     </g>
    </g>
    <g id="xtick_14">
     <g id="line2d_14">
      <path d="M 664.444687 228.213041 
L 664.444687 32.28 
" clip-path="url(#pd6a822b80c)" style="fill: none; stroke-dasharray: 3.7,1.6; stroke-dashoffset: 0; stroke: #cccccc; stroke-opacity: 0.3"/>
     </g>
     <g id="text_14">
      <!-- 13 -->
      <g style="fill: #262626" transform="translate(661.642114 253.520966) rotate(-45) scale(0.11 -0.11)">
       <use xlink:href="#DejaVuSans-31"/>
       <use xlink:href="#DejaVuSans-33" x="63.623047"/>
      </g>
     </g>
    </g>
    <g id="xtick_15">
     <g id="line2d_15">
      <path d="M 709.232812 228.213041 
L 709.232812 32.28 
" clip-path="url(#pd6a822b80c)" style="fill: none; stroke-dasharray: 3.7,1.6; stroke-dashoffset: 0; stroke: #cccccc; stroke-opacity: 0.3"/>
     </g>
     <g id="text_15">
      <!-- 14 -->
      <g style="fill: #262626" transform="translate(706.430239 253.520966) rotate(-45) scale(0.11 -0.11)">
       <use xlink:href="#DejaVuSans-31"/>
       <use xlink:href="#DejaVuSans-34" x="63.623047"/>
      </g>
     </g>
    </g>
    <g id="xtick_16">
     <g id="line2d_16">
      <path d="M 754.020937 228.213041 
L 754.020937 32.28 
" clip-path="url(#pd6a822b80c)" style="fill: none; stroke-dasharray: 3.7,1.6; stroke-dashoffset: 0; stroke: #cccccc; stroke-opacity: 0.3"/>
     </g>
     <g id="text_16">
      <!-- 15 -->
      <g style="fill: #262626" transform="translate(751.218364 253.520966) rotate(-45) scale(0.11 -0.11)">
       <use xlink:href="#DejaVuSans-31"/>
       <use xlink:href="#DejaVuSans-35" x="63.623047"/>
      </g>
     </g>
    </g>
    <g id="xtick_17">
     <g id="line2d_17">
      <path d="M 798.809062 228.213041 
L 798.809062 32.28 
" clip-path="url(#pd6a822b80c)" style="fill: none; stroke-dasharray: 3.7,1.6; stroke-dashoffset: 0; stroke: #cccccc; stroke-opacity: 0.3"/>
     </g>
     <g id="text_17">
      <!-- 16 -->
      <g style="fill: #262626" transform="translate(796.006489 253.520966) rotate(-45) scale(0.11 -0.11)">
       <use xlink:href="#DejaVuSans-31"/>
       <use xlink:href="#DejaVuSans-36" x="63.623047"/>
      </g>
     </g>
    </g>
    <g id="xtick_18">
     <g id="line2d_18">
      <path d="M 843.597187 228.213041 
L 843.597187 32.28 
" clip-path="url(#pd6a822b80c)" style="fill: none; stroke-dasharray: 3.7,1.6; stroke-dashoffset: 0; stroke: #cccccc; stroke-opacity: 0.3"/>
     </g>
     <g id="text_18">
      <!-- 17 -->
      <g style="fill: #262626" transform="translate(840.794614 253.520966) rotate(-45) scale(0.11 -0.11)">
       <use xlink:href="#DejaVuSans-31"/>
       <use xlink:href="#DejaVuSans-37" x="63.623047"/>
      </g>
     </g>
    </g>
    <g id="xtick_19">
     <g id="line2d_19">
      <path d="M 888.385312 228.213041 
L 888.385312 32.28 
" clip-path="url(#pd6a822b80c)" style="fill: none; stroke-dasharray: 3.7,1.6; stroke-dashoffset: 0; stroke: #cccccc; stroke-opacity: 0.3"/>
     </g>
     <g id="text_19">
      <!-- 18 -->
      <g style="fill: #262626" transform="translate(885.582739 253.520966) rotate(-45) scale(0.11 -0.11)">
       <use xlink:href="#DejaVuSans-31"/>
       <use xlink:href="#DejaVuSans-38" x="63.623047"/>
      </g>
     </g>
    </g>
    <g id="xtick_20">
     <g id="line2d_20">
      <path d="M 933.173437 228.213041 
L 933.173437 32.28 
" clip-path="url(#pd6a822b80c)" style="fill: none; stroke-dasharray: 3.7,1.6; stroke-dashoffset: 0; stroke: #cccccc; stroke-opacity: 0.3"/>
     </g>
     <g id="text_20">
      <!-- 19 -->
      <g style="fill: #262626" transform="translate(930.370864 253.520966) rotate(-45) scale(0.11 -0.11)">
       <use xlink:href="#DejaVuSans-31"/>
       <use xlink:href="#DejaVuSans-39" x="63.623047"/>
      </g>
     </g>
    </g>
    <g id="xtick_21">
     <g id="line2d_21">
      <path d="M 977.961562 228.213041 
L 977.961562 32.28 
" clip-path="url(#pd6a822b80c)" style="fill: none; stroke-dasharray: 3.7,1.6; stroke-dashoffset: 0; stroke: #cccccc; stroke-opacity: 0.3"/>
     </g>
     <g id="text_21">
      <!-- 20 -->
      <g style="fill: #262626" transform="translate(975.158989 253.520966) rotate(-45) scale(0.11 -0.11)">
       <use xlink:href="#DejaVuSans-32"/>
       <use xlink:href="#DejaVuSans-30" x="63.623047"/>
      </g>
     </g>
    </g>
    <g id="xtick_22">
     <g id="line2d_22">
      <path d="M 1022.749687 228.213041 
L 1022.749687 32.28 
" clip-path="url(#pd6a822b80c)" style="fill: none; stroke-dasharray: 3.7,1.6; stroke-dashoffset: 0; stroke: #cccccc; stroke-opacity: 0.3"/>
     </g>
     <g id="text_22">
      <!-- 21 -->
      <g style="fill: #262626" transform="translate(1019.947114 253.520966) rotate(-45) scale(0.11 -0.11)">
       <use xlink:href="#DejaVuSans-32"/>
       <use xlink:href="#DejaVuSans-31" x="63.623047"/>
      </g>
     </g>
    </g>
    <g id="xtick_23">
     <g id="line2d_23">
      <path d="M 1067.537812 228.213041 
L 1067.537812 32.28 
" clip-path="url(#pd6a822b80c)" style="fill: none; stroke-dasharray: 3.7,1.6; stroke-dashoffset: 0; stroke: #cccccc; stroke-opacity: 0.3"/>
     </g>
     <g id="text_23">
      <!-- 22 -->
      <g style="fill: #262626" transform="translate(1064.735239 253.520966) rotate(-45) scale(0.11 -0.11)">
       <use xlink:href="#DejaVuSans-32"/>
       <use xlink:href="#DejaVuSans-32" x="63.623047"/>
      </g>
     </g>
    </g>
    <g id="xtick_24">
     <g id="line2d_24">
      <path d="M 1112.325938 228.213041 
L 1112.325938 32.28 
" clip-path="url(#pd6a822b80c)" style="fill: none; stroke-dasharray: 3.7,1.6; stroke-dashoffset: 0; stroke: #cccccc; stroke-opacity: 0.3"/>
     </g>
     <g id="text_24">
      <!-- 23 -->
      <g style="fill: #262626" transform="translate(1109.523364 253.520966) rotate(-45) scale(0.11 -0.11)">
       <use xlink:href="#DejaVuSans-32"/>
       <use xlink:href="#DejaVuSans-33" x="63.623047"/>
      </g>
     </g>
    </g>
    <g id="text_25">
     <!-- Hour of Day -->
     <g style="fill: #262626" transform="translate(561.364687 268.256708) scale(0.12 -0.12)">
      <defs>
       <path id="DejaVuSans-48" d="M 628 4666 
L 1259 4666 
L 1259 2753 
L 3553 2753 
L 3553 4666 
L 4184 4666 
L 4184 0 
L 3553 0 
L 3553 2222 
L 1259 2222 
L 1259 0 
L 628 0 
L 628 4666 
z
" transform="scale(0.015625)"/>
       <path id="DejaVuSans-6f" d="M 1959 3097 
Q 1497 3097 1228 2736 
Q 959 2375 959 1747 
Q 959 1119 1226 758 
Q 1494 397 1959 397 
Q 2419 397 2687 759 
Q 2956 1122 2956 1747 
Q 2956 2369 2687 2733 
Q 2419 3097 1959 3097 
z
M 1959 3584 
Q 2709 3584 3137 3096 
Q 3566 2609 3566 1747 
Q 3566 888 3137 398 
Q 2709 -91 1959 -91 
Q 1206 -91 779 398 
Q 353 888 353 1747 
Q 353 2609 779 3096 
Q 1206 3584 1959 3584 
z
" transform="scale(0.015625)"/>
       <path id="DejaVuSans-75" d="M 544 1381 
L 544 3500 
L 1119 3500 
L 1119 1403 
Q 1119 906 1312 657 
Q 1506 409 1894 409 
Q 2359 409 2629 706 
Q 2900 1003 2900 1516 
L 2900 3500 
L 3475 3500 
L 3475 0 
L 2900 0 
L 2900 538 
Q 2691 219 2414 64 
Q 2138 -91 1772 -91 
Q 1169 -91 856 284 
Q 544 659 544 1381 
z
M 1991 3584 
L 1991 3584 
z
" transform="scale(0.015625)"/>
       <path id="DejaVuSans-72" d="M 2631 2963 
Q 2534 3019 2420 3045 
Q 2306 3072 2169 3072 
Q 1681 3072 1420 2755 
Q 1159 2438 1159 1844 
L 1159 0 
L 581 0 
L 581 3500 
L 1159 3500 
L 1159 2956 
Q 1341 3275 1631 3429 
Q 1922 3584 2338 3584 
Q 2397 3584 2469 3576 
Q 2541 3569 2628 3553 
L 2631 2963 
z
" transform="scale(0.015625)"/>
       <path id="DejaVuSans-20" transform="scale(0.015625)"/>
       <path id="DejaVuSans-66" d="M 2375 4863 
L 2375 4384 
L 1825 4384 
Q 1516 4384 1395 4259 
Q 1275 4134 1275 3809 
L 1275 3500 
L 2222 3500 
L 2222 3053 
L 1275 3053 
L 1275 0 
L 697 0 
L 697 3053 
L 147 3053 
L 147 3500 
L 697 3500 
L 697 3744 
Q 697 4328 969 4595 
Q 1241 4863 1831 4863 
L 2375 4863 
z
" transform="scale(0.015625)"/>
       <path id="DejaVuSans-44" d="M 1259 4147 
L 1259 519 
L 2022 519 
Q 2988 519 3436 956 
Q 3884 1394 3884 2338 
Q 3884 3275 3436 3711 
Q 2988 4147 2022 4147 
L 1259 4147 
z
M 628 4666 
L 1925 4666 
Q 3281 4666 3915 4102 
Q 4550 3538 4550 2338 
Q 4550 1131 3912 565 
Q 3275 0 1925 0 
L 628 0 
L 628 4666 
z
" transform="scale(0.015625)"/>
       <path id="DejaVuSans-61" d="M 2194 1759 
Q 1497 1759 1228 1600 
Q 959 1441 959 1056 
Q 959 750 1161 570 
Q 1363 391 1709 391 
Q 2188 391 2477 730 
Q 2766 1069 2766 1631 
L 2766 1759 
L 2194 1759 
z
M 3341 1997 
L 3341 0 
L 2766 0 
L 2766 531 
Q 2569 213 2275 61 
Q 1981 -91 1556 -91 
Q 1019 -91 701 211 
Q 384 513 384 1019 
Q 384 1609 779 1909 
Q 1175 2209 1959 2209 
L 2766 2209 
L 2766 2266 
Q 2766 2663 2505 2880 
Q 2244 3097 1772 3097 
Q 1472 3097 1187 3025 
Q 903 2953 641 2809 
L 641 3341 
Q 956 3463 1253 3523 
Q 1550 3584 1831 3584 
Q 2591 3584 2966 3190 
Q 3341 2797 3341 1997 
z
" transform="scale(0.015625)"/>
       <path id="DejaVuSans-79" d="M 2059 -325 
Q 1816 -950 1584 -1140 
Q 1353 -1331 966 -1331 
L 506 -1331 
L 506 -850 
L 844 -850 
Q 1081 -850 1212 -737 
Q 1344 -625 1503 -206 
L 1606 56 
L 191 3500 
L 800 3500 
L 1894 763 
L 2988 3500 
L 3597 3500 
L 2059 -325 
z
" transform="scale(0.015625)"/>
      </defs>
      <use xlink:href="#DejaVuSans-48"/>
      <use xlink:href="#DejaVuSans-6f" x="75.195312"/>
      <use xlink:href="#DejaVuSans-75" x="136.376953"/>
      <use xlink:href="#DejaVuSans-72" x="199.755859"/>
      <use xlink:href="#DejaVuSans-20" x="240.869141"/>
      <use xlink:href="#DejaVuSans-6f" x="272.65625"/>
      <use xlink:href="#DejaVuSans-66" x="333.837891"/>
      <use xlink:href="#DejaVuSans-20" x="369.042969"/>
      <use xlink:href="#DejaVuSans-44" x="400.830078"/>
      <use xlink:href="#DejaVuSans-61" x="477.832031"/>
      <use xlink:href="#DejaVuSans-79" x="539.111328"/>
     </g>
    </g>
   </g>
   <g id="matplotlib.axis_2">
    <g id="ytick_1">
     <g id="line2d_25">
      <path d="M 59.805 228.213041 
L 1134.72 228.213041 
" clip-path="url(#pd6a822b80c)" style="fill: none; stroke-dasharray: 3.7,1.6; stroke-dashoffset: 0; stroke: #cccccc; stroke-opacity: 0.3"/>
     </g>
     <g id="text_26">
      <!-- 0.0 -->
      <g style="fill: #262626" transform="translate(32.811562 232.392182) scale(0.11 -0.11)">
       <defs>
        <path id="DejaVuSans-2e" d="M 684 794 
L 1344 794 
L 1344 0 
L 684 0 
L 684 794 
z
" transform="scale(0.015625)"/>
       </defs>
       <use xlink:href="#DejaVuSans-30"/>
       <use xlink:href="#DejaVuSans-2e" x="63.623047"/>
       <use xlink:href="#DejaVuSans-30" x="95.410156"/>
      </g>
     </g>
    </g>
    <g id="ytick_2">
     <g id="line2d_26">
      <path d="M 59.805 189.026433 
L 1134.72 189.026433 
" clip-path="url(#pd6a822b80c)" style="fill: none; stroke-dasharray: 3.7,1.6; stroke-dashoffset: 0; stroke: #cccccc; stroke-opacity: 0.3"/>
     </g>
     <g id="text_27">
      <!-- 0.2 -->
      <g style="fill: #262626" transform="translate(32.811562 193.205574) scale(0.11 -0.11)">
       <use xlink:href="#DejaVuSans-30"/>
       <use xlink:href="#DejaVuSans-2e" x="63.623047"/>
       <use xlink:href="#DejaVuSans-32" x="95.410156"/>
      </g>
     </g>
    </g>
    <g id="ytick_3">
     <g id="line2d_27">
      <path d="M 59.805 149.839825 
L 1134.72 149.839825 
" clip-path="url(#pd6a822b80c)" style="fill: none; stroke-dasharray: 3.7,1.6; stroke-dashoffset: 0; stroke: #cccccc; stroke-opacity: 0.3"/>
     </g>
     <g id="text_28">
      <!-- 0.4 -->
      <g style="fill: #262626" transform="translate(32.811562 154.018965) scale(0.11 -0.11)">
       <use xlink:href="#DejaVuSans-30"/>
       <use xlink:href="#DejaVuSans-2e" x="63.623047"/>
       <use xlink:href="#DejaVuSans-34" x="95.410156"/>
      </g>
     </g>
    </g>
    <g id="ytick_4">
     <g id="line2d_28">
      <path d="M 59.805 110.653216 
L 1134.72 110.653216 
" clip-path="url(#pd6a822b80c)" style="fill: none; stroke-dasharray: 3.7,1.6; stroke-dashoffset: 0; stroke: #cccccc; stroke-opacity: 0.3"/>
     </g>
     <g id="text_29">
      <!-- 0.6 -->
      <g style="fill: #262626" transform="translate(32.811562 114.832357) scale(0.11 -0.11)">
       <use xlink:href="#DejaVuSans-30"/>
       <use xlink:href="#DejaVuSans-2e" x="63.623047"/>
       <use xlink:href="#DejaVuSans-36" x="95.410156"/>
      </g>
     </g>
    </g>
    <g id="ytick_5">
     <g id="line2d_29">
      <path d="M 59.805 71.466608 
L 1134.72 71.466608 
" clip-path="url(#pd6a822b80c)" style="fill: none; stroke-dasharray: 3.7,1.6; stroke-dashoffset: 0; stroke: #cccccc; stroke-opacity: 0.3"/>
     </g>
     <g id="text_30">
      <!-- 0.8 -->
      <g style="fill: #262626" transform="translate(32.811562 75.645749) scale(0.11 -0.11)">
       <use xlink:href="#DejaVuSans-30"/>
       <use xlink:href="#DejaVuSans-2e" x="63.623047"/>
       <use xlink:href="#DejaVuSans-38" x="95.410156"/>
      </g>
     </g>
    </g>
    <g id="ytick_6">
     <g id="line2d_30">
      <path d="M 59.805 32.28 
L 1134.72 32.28 
" clip-path="url(#pd6a822b80c)" style="fill: none; stroke-dasharray: 3.7,1.6; stroke-dashoffset: 0; stroke: #cccccc; stroke-opacity: 0.3"/>
     </g>
     <g id="text_31">
      <!-- 1.0 -->
      <g style="fill: #262626" transform="translate(32.811562 36.459141) scale(0.11 -0.11)">
       <use xlink:href="#DejaVuSans-31"/>
       <use xlink:href="#DejaVuSans-2e" x="63.623047"/>
       <use xlink:href="#DejaVuSans-30" x="95.410156"/>
      </g>
     </g>
    </g>
    <g id="text_32">
     <!-- GPU Units Requested -->
     <g style="fill: #262626" transform="translate(26.315937 193.929958) rotate(-90) scale(0.12 -0.12)">
      <defs>
       <path id="DejaVuSans-47" d="M 3809 666 
L 3809 1919 
L 2778 1919 
L 2778 2438 
L 4434 2438 
L 4434 434 
Q 4069 175 3628 42 
Q 3188 -91 2688 -91 
Q 1594 -91 976 548 
Q 359 1188 359 2328 
Q 359 3472 976 4111 
Q 1594 4750 2688 4750 
Q 3144 4750 3555 4637 
Q 3966 4525 4313 4306 
L 4313 3634 
Q 3963 3931 3569 4081 
Q 3175 4231 2741 4231 
Q 1884 4231 1454 3753 
Q 1025 3275 1025 2328 
Q 1025 1384 1454 906 
Q 1884 428 2741 428 
Q 3075 428 3337 486 
Q 3600 544 3809 666 
z
" transform="scale(0.015625)"/>
       <path id="DejaVuSans-50" d="M 1259 4147 
L 1259 2394 
L 2053 2394 
Q 2494 2394 2734 2622 
Q 2975 2850 2975 3272 
Q 2975 3691 2734 3919 
Q 2494 4147 2053 4147 
L 1259 4147 
z
M 628 4666 
L 2053 4666 
Q 2838 4666 3239 4311 
Q 3641 3956 3641 3272 
Q 3641 2581 3239 2228 
Q 2838 1875 2053 1875 
L 1259 1875 
L 1259 0 
L 628 0 
L 628 4666 
z
" transform="scale(0.015625)"/>
       <path id="DejaVuSans-55" d="M 556 4666 
L 1191 4666 
L 1191 1831 
Q 1191 1081 1462 751 
Q 1734 422 2344 422 
Q 2950 422 3222 751 
Q 3494 1081 3494 1831 
L 3494 4666 
L 4128 4666 
L 4128 1753 
Q 4128 841 3676 375 
Q 3225 -91 2344 -91 
Q 1459 -91 1007 375 
Q 556 841 556 1753 
L 556 4666 
z
" transform="scale(0.015625)"/>
       <path id="DejaVuSans-6e" d="M 3513 2113 
L 3513 0 
L 2938 0 
L 2938 2094 
Q 2938 2591 2744 2837 
Q 2550 3084 2163 3084 
Q 1697 3084 1428 2787 
Q 1159 2491 1159 1978 
L 1159 0 
L 581 0 
L 581 3500 
L 1159 3500 
L 1159 2956 
Q 1366 3272 1645 3428 
Q 1925 3584 2291 3584 
Q 2894 3584 3203 3211 
Q 3513 2838 3513 2113 
z
" transform="scale(0.015625)"/>
       <path id="DejaVuSans-69" d="M 603 3500 
L 1178 3500 
L 1178 0 
L 603 0 
L 603 3500 
z
M 603 4863 
L 1178 4863 
L 1178 4134 
L 603 4134 
L 603 4863 
z
" transform="scale(0.015625)"/>
       <path id="DejaVuSans-74" d="M 1172 4494 
L 1172 3500 
L 2356 3500 
L 2356 3053 
L 1172 3053 
L 1172 1153 
Q 1172 725 1289 603 
Q 1406 481 1766 481 
L 2356 481 
L 2356 0 
L 1766 0 
Q 1100 0 847 248 
Q 594 497 594 1153 
L 594 3053 
L 172 3053 
L 172 3500 
L 594 3500 
L 594 4494 
L 1172 4494 
z
" transform="scale(0.015625)"/>
       <path id="DejaVuSans-73" d="M 2834 3397 
L 2834 2853 
Q 2591 2978 2328 3040 
Q 2066 3103 1784 3103 
Q 1356 3103 1142 2972 
Q 928 2841 928 2578 
Q 928 2378 1081 2264 
Q 1234 2150 1697 2047 
L 1894 2003 
Q 2506 1872 2764 1633 
Q 3022 1394 3022 966 
Q 3022 478 2636 193 
Q 2250 -91 1575 -91 
Q 1294 -91 989 -36 
Q 684 19 347 128 
L 347 722 
Q 666 556 975 473 
Q 1284 391 1588 391 
Q 1994 391 2212 530 
Q 2431 669 2431 922 
Q 2431 1156 2273 1281 
Q 2116 1406 1581 1522 
L 1381 1569 
Q 847 1681 609 1914 
Q 372 2147 372 2553 
Q 372 3047 722 3315 
Q 1072 3584 1716 3584 
Q 2034 3584 2315 3537 
Q 2597 3491 2834 3397 
z
" transform="scale(0.015625)"/>
       <path id="DejaVuSans-52" d="M 2841 2188 
Q 3044 2119 3236 1894 
Q 3428 1669 3622 1275 
L 4263 0 
L 3584 0 
L 2988 1197 
Q 2756 1666 2539 1819 
Q 2322 1972 1947 1972 
L 1259 1972 
L 1259 0 
L 628 0 
L 628 4666 
L 2053 4666 
Q 2853 4666 3247 4331 
Q 3641 3997 3641 3322 
Q 3641 2881 3436 2590 
Q 3231 2300 2841 2188 
z
M 1259 4147 
L 1259 2491 
L 2053 2491 
Q 2509 2491 2742 2702 
Q 2975 2913 2975 3322 
Q 2975 3731 2742 3939 
Q 2509 4147 2053 4147 
L 1259 4147 
z
" transform="scale(0.015625)"/>
       <path id="DejaVuSans-65" d="M 3597 1894 
L 3597 1613 
L 953 1613 
Q 991 1019 1311 708 
Q 1631 397 2203 397 
Q 2534 397 2845 478 
Q 3156 559 3463 722 
L 3463 178 
Q 3153 47 2828 -22 
Q 2503 -91 2169 -91 
Q 1331 -91 842 396 
Q 353 884 353 1716 
Q 353 2575 817 3079 
Q 1281 3584 2069 3584 
Q 2775 3584 3186 3129 
Q 3597 2675 3597 1894 
z
M 3022 2063 
Q 3016 2534 2758 2815 
Q 2500 3097 2075 3097 
Q 1594 3097 1305 2825 
Q 1016 2553 972 2059 
L 3022 2063 
z
" transform="scale(0.015625)"/>
       <path id="DejaVuSans-71" d="M 947 1747 
Q 947 1113 1208 752 
Q 1469 391 1925 391 
Q 2381 391 2643 752 
Q 2906 1113 2906 1747 
Q 2906 2381 2643 2742 
Q 2381 3103 1925 3103 
Q 1469 3103 1208 2742 
Q 947 2381 947 1747 
z
M 2906 525 
Q 2725 213 2448 61 
Q 2172 -91 1784 -91 
Q 1150 -91 751 415 
Q 353 922 353 1747 
Q 353 2572 751 3078 
Q 1150 3584 1784 3584 
Q 2172 3584 2448 3432 
Q 2725 3281 2906 2969 
L 2906 3500 
L 3481 3500 
L 3481 -1331 
L 2906 -1331 
L 2906 525 
z
" transform="scale(0.015625)"/>
       <path id="DejaVuSans-64" d="M 2906 2969 
L 2906 4863 
L 3481 4863 
L 3481 0 
L 2906 0 
L 2906 525 
Q 2725 213 2448 61 
Q 2172 -91 1784 -91 
Q 1150 -91 751 415 
Q 353 922 353 1747 
Q 353 2572 751 3078 
Q 1150 3584 1784 3584 
Q 2172 3584 2448 3432 
Q 2725 3281 2906 2969 
z
M 947 1747 
Q 947 1113 1208 752 
Q 1469 391 1925 391 
Q 2381 391 2643 752 
Q 2906 1113 2906 1747 
Q 2906 2381 2643 2742 
Q 2381 3103 1925 3103 
Q 1469 3103 1208 2742 
Q 947 2381 947 1747 
z
" transform="scale(0.015625)"/>
      </defs>
      <use xlink:href="#DejaVuSans-47"/>
      <use xlink:href="#DejaVuSans-50" x="77.490234"/>
      <use xlink:href="#DejaVuSans-55" x="137.792969"/>
      <use xlink:href="#DejaVuSans-20" x="210.986328"/>
      <use xlink:href="#DejaVuSans-55" x="242.773438"/>
      <use xlink:href="#DejaVuSans-6e" x="315.966797"/>
      <use xlink:href="#DejaVuSans-69" x="379.345703"/>
      <use xlink:href="#DejaVuSans-74" x="407.128906"/>
      <use xlink:href="#DejaVuSans-73" x="446.337891"/>
      <use xlink:href="#DejaVuSans-20" x="498.4375"/>
      <use xlink:href="#DejaVuSans-52" x="530.224609"/>
      <use xlink:href="#DejaVuSans-65" x="595.207031"/>
      <use xlink:href="#DejaVuSans-71" x="656.730469"/>
      <use xlink:href="#DejaVuSans-75" x="720.207031"/>
      <use xlink:href="#DejaVuSans-65" x="783.585938"/>
      <use xlink:href="#DejaVuSans-73" x="845.109375"/>
      <use xlink:href="#DejaVuSans-74" x="897.208984"/>
      <use xlink:href="#DejaVuSans-65" x="936.417969"/>
      <use xlink:href="#DejaVuSans-64" x="997.941406"/>
     </g>
    </g>
   </g>
   <g id="patch_3">
    <path d="M 64.283812 225.31787 
L 100.114312 225.31787 
L 100.114312 170.470368 
L 64.283812 170.470368 
L 64.283812 225.31787 
z
" clip-path="url(#pd6a822b80c)" style="fill: #d62728; opacity: 0.7; stroke: #000000; stroke-width: 1.2; stroke-linejoin: miter"/>
   </g>
   <g id="line2d_31">
    <path d="M 82.199062 225.31787 
L 82.199062 228.213041 
" clip-path="url(#pd6a822b80c)" style="fill: none; stroke: #4c4c4c"/>
   </g>
   <g id="line2d_32">
    <path d="M 82.199062 170.470368 
L 82.199062 115.658028 
" clip-path="url(#pd6a822b80c)" style="fill: none; stroke: #4c4c4c"/>
   </g>
   <g id="line2d_33">
    <path d="M 73.241438 228.213041 
L 91.156687 228.213041 
" clip-path="url(#pd6a822b80c)" style="fill: none; stroke: #4c4c4c; stroke-linecap: round"/>
   </g>
   <g id="line2d_34">
    <path d="M 73.241438 115.658028 
L 91.156687 115.658028 
" clip-path="url(#pd6a822b80c)" style="fill: none; stroke: #4c4c4c; stroke-linecap: round"/>
   </g>
   <g id="line2d_35"/>
   <g id="patch_4">
    <path d="M 109.071937 228.213041 
L 144.902437 228.213041 
L 144.902437 183.707394 
L 109.071937 183.707394 
L 109.071937 228.213041 
z
" clip-path="url(#pd6a822b80c)" style="fill: #d62728; opacity: 0.7; stroke: #000000; stroke-width: 1.2; stroke-linejoin: miter"/>
   </g>
   <g id="line2d_36">
    <path d="M 126.987187 228.213041 
L 126.987187 228.213041 
" clip-path="url(#pd6a822b80c)" style="fill: none; stroke: #4c4c4c"/>
   </g>
   <g id="line2d_37">
    <path d="M 126.987187 183.707394 
L 126.987187 139.794883 
" clip-path="url(#pd6a822b80c)" style="fill: none; stroke: #4c4c4c"/>
   </g>
   <g id="line2d_38">
    <path d="M 118.029562 228.213041 
L 135.944812 228.213041 
" clip-path="url(#pd6a822b80c)" style="fill: none; stroke: #4c4c4c; stroke-linecap: round"/>
   </g>
   <g id="line2d_39">
    <path d="M 118.029562 139.794883 
L 135.944812 139.794883 
" clip-path="url(#pd6a822b80c)" style="fill: none; stroke: #4c4c4c; stroke-linecap: round"/>
   </g>
   <g id="line2d_40"/>
   <g id="patch_5">
    <path d="M 153.860062 228.213041 
L 189.690562 228.213041 
L 189.690562 193.764514 
L 153.860062 193.764514 
L 153.860062 228.213041 
z
" clip-path="url(#pd6a822b80c)" style="fill: #d62728; opacity: 0.7; stroke: #000000; stroke-width: 1.2; stroke-linejoin: miter"/>
   </g>
   <g id="line2d_41">
    <path d="M 171.775312 228.213041 
L 171.775312 228.213041 
" clip-path="url(#pd6a822b80c)" style="fill: none; stroke: #4c4c4c"/>
   </g>
   <g id="line2d_42">
    <path d="M 171.775312 193.764514 
L 171.775312 159.333097 
" clip-path="url(#pd6a822b80c)" style="fill: none; stroke: #4c4c4c"/>
   </g>
   <g id="line2d_43">
    <path d="M 162.817687 228.213041 
L 180.732937 228.213041 
" clip-path="url(#pd6a822b80c)" style="fill: none; stroke: #4c4c4c; stroke-linecap: round"/>
   </g>
   <g id="line2d_44">
    <path d="M 162.817687 159.333097 
L 180.732937 159.333097 
" clip-path="url(#pd6a822b80c)" style="fill: none; stroke: #4c4c4c; stroke-linecap: round"/>
   </g>
   <g id="line2d_45"/>
   <g id="patch_6">
    <path d="M 198.648187 225.367853 
L 234.478687 225.367853 
L 234.478687 159.246902 
L 198.648187 159.246902 
L 198.648187 225.367853 
z
" clip-path="url(#pd6a822b80c)" style="fill: #d62728; opacity: 0.7; stroke: #000000; stroke-width: 1.2; stroke-linejoin: miter"/>
   </g>
   <g id="line2d_46">
    <path d="M 216.563437 225.367853 
L 216.563437 228.213041 
" clip-path="url(#pd6a822b80c)" style="fill: none; stroke: #4c4c4c"/>
   </g>
   <g id="line2d_47">
    <path d="M 216.563437 159.246902 
L 216.563437 93.163563 
" clip-path="url(#pd6a822b80c)" style="fill: none; stroke: #4c4c4c"/>
   </g>
   <g id="line2d_48">
    <path d="M 207.605812 228.213041 
L 225.521062 228.213041 
" clip-path="url(#pd6a822b80c)" style="fill: none; stroke: #4c4c4c; stroke-linecap: round"/>
   </g>
   <g id="line2d_49">
    <path d="M 207.605812 93.163563 
L 225.521062 93.163563 
" clip-path="url(#pd6a822b80c)" style="fill: none; stroke: #4c4c4c; stroke-linecap: round"/>
   </g>
   <g id="line2d_50"/>
   <g id="patch_7">
    <path d="M 243.436312 226.052754 
L 279.266813 226.052754 
L 279.266813 151.719588 
L 243.436312 151.719588 
L 243.436312 226.052754 
z
" clip-path="url(#pd6a822b80c)" style="fill: #d62728; opacity: 0.7; stroke: #000000; stroke-width: 1.2; stroke-linejoin: miter"/>
   </g>
   <g id="line2d_51">
    <path d="M 261.351562 226.052754 
L 261.351562 228.213041 
" clip-path="url(#pd6a822b80c)" style="fill: none; stroke: #4c4c4c"/>
   </g>
   <g id="line2d_52">
    <path d="M 261.351562 151.719588 
L 261.351562 77.431222 
" clip-path="url(#pd6a822b80c)" style="fill: none; stroke: #4c4c4c"/>
   </g>
   <g id="line2d_53">
    <path d="M 252.393937 228.213041 
L 270.309188 228.213041 
" clip-path="url(#pd6a822b80c)" style="fill: none; stroke: #4c4c4c; stroke-linecap: round"/>
   </g>
   <g id="line2d_54">
    <path d="M 252.393937 77.431222 
L 270.309188 77.431222 
" clip-path="url(#pd6a822b80c)" style="fill: none; stroke: #4c4c4c; stroke-linecap: round"/>
   </g>
   <g id="line2d_55"/>
   <g id="patch_8">
    <path d="M 288.224437 225.740493 
L 324.054937 225.740493 
L 324.054937 157.855775 
L 288.224437 157.855775 
L 288.224437 225.740493 
z
" clip-path="url(#pd6a822b80c)" style="fill: #d62728; opacity: 0.7; stroke: #000000; stroke-width: 1.2; stroke-linejoin: miter"/>
   </g>
   <g id="line2d_56">
    <path d="M 306.139687 225.740493 
L 306.139687 228.213041 
" clip-path="url(#pd6a822b80c)" style="fill: none; stroke: #4c4c4c"/>
   </g>
   <g id="line2d_57">
    <path d="M 306.139687 157.855775 
L 306.139687 90.018466 
" clip-path="url(#pd6a822b80c)" style="fill: none; stroke: #4c4c4c"/>
   </g>
   <g id="line2d_58">
    <path d="M 297.182062 228.213041 
L 315.097312 228.213041 
" clip-path="url(#pd6a822b80c)" style="fill: none; stroke: #4c4c4c; stroke-linecap: round"/>
   </g>
   <g id="line2d_59">
    <path d="M 297.182062 90.018466 
L 315.097312 90.018466 
" clip-path="url(#pd6a822b80c)" style="fill: none; stroke: #4c4c4c; stroke-linecap: round"/>
   </g>
   <g id="line2d_60"/>
   <g id="patch_9">
    <path d="M 333.012562 228.213041 
L 368.843062 228.213041 
L 368.843062 174.16253 
L 333.012562 174.16253 
L 333.012562 228.213041 
z
" clip-path="url(#pd6a822b80c)" style="fill: #d62728; opacity: 0.7; stroke: #000000; stroke-width: 1.2; stroke-linejoin: miter"/>
   </g>
   <g id="line2d_61">
    <path d="M 350.927812 228.213041 
L 350.927812 228.213041 
" clip-path="url(#pd6a822b80c)" style="fill: none; stroke: #4c4c4c"/>
   </g>
   <g id="line2d_62">
    <path d="M 350.927812 174.16253 
L 350.927812 120.482254 
" clip-path="url(#pd6a822b80c)" style="fill: none; stroke: #4c4c4c"/>
   </g>
   <g id="line2d_63">
    <path d="M 341.970187 228.213041 
L 359.885437 228.213041 
" clip-path="url(#pd6a822b80c)" style="fill: none; stroke: #4c4c4c; stroke-linecap: round"/>
   </g>
   <g id="line2d_64">
    <path d="M 341.970187 120.482254 
L 359.885437 120.482254 
" clip-path="url(#pd6a822b80c)" style="fill: none; stroke: #4c4c4c; stroke-linecap: round"/>
   </g>
   <g id="line2d_65"/>
   <g id="patch_10">
    <path d="M 377.800687 225.777117 
L 413.631188 225.777117 
L 413.631188 171.616666 
L 377.800687 171.616666 
L 377.800687 225.777117 
z
" clip-path="url(#pd6a822b80c)" style="fill: #d62728; opacity: 0.7; stroke: #000000; stroke-width: 1.2; stroke-linejoin: miter"/>
   </g>
   <g id="line2d_66">
    <path d="M 395.715937 225.777117 
L 395.715937 228.213041 
" clip-path="url(#pd6a822b80c)" style="fill: none; stroke: #4c4c4c"/>
   </g>
   <g id="line2d_67">
    <path d="M 395.715937 171.616666 
L 395.715937 117.510873 
" clip-path="url(#pd6a822b80c)" style="fill: none; stroke: #4c4c4c"/>
   </g>
   <g id="line2d_68">
    <path d="M 386.758312 228.213041 
L 404.673563 228.213041 
" clip-path="url(#pd6a822b80c)" style="fill: none; stroke: #4c4c4c; stroke-linecap: round"/>
   </g>
   <g id="line2d_69">
    <path d="M 386.758312 117.510873 
L 404.673563 117.510873 
" clip-path="url(#pd6a822b80c)" style="fill: none; stroke: #4c4c4c; stroke-linecap: round"/>
   </g>
   <g id="line2d_70"/>
   <g id="patch_11">
    <path d="M 422.588812 228.213041 
L 458.419312 228.213041 
L 458.419312 173.1303 
L 422.588812 173.1303 
L 422.588812 228.213041 
z
" clip-path="url(#pd6a822b80c)" style="fill: #d62728; opacity: 0.7; stroke: #000000; stroke-width: 1.2; stroke-linejoin: miter"/>
   </g>
   <g id="line2d_71">
    <path d="M 440.504062 228.213041 
L 440.504062 228.213041 
" clip-path="url(#pd6a822b80c)" style="fill: none; stroke: #4c4c4c"/>
   </g>
   <g id="line2d_72">
    <path d="M 440.504062 173.1303 
L 440.504062 118.206283 
" clip-path="url(#pd6a822b80c)" style="fill: none; stroke: #4c4c4c"/>
   </g>
   <g id="line2d_73">
    <path d="M 431.546437 228.213041 
L 449.461687 228.213041 
" clip-path="url(#pd6a822b80c)" style="fill: none; stroke: #4c4c4c; stroke-linecap: round"/>
   </g>
   <g id="line2d_74">
    <path d="M 431.546437 118.206283 
L 449.461687 118.206283 
" clip-path="url(#pd6a822b80c)" style="fill: none; stroke: #4c4c4c; stroke-linecap: round"/>
   </g>
   <g id="line2d_75"/>
   <g id="patch_12">
    <path d="M 467.376937 228.213041 
L 503.207437 228.213041 
L 503.207437 218.706096 
L 467.376937 218.706096 
L 467.376937 228.213041 
z
" clip-path="url(#pd6a822b80c)" style="fill: #d62728; opacity: 0.7; stroke: #000000; stroke-width: 1.2; stroke-linejoin: miter"/>
   </g>
   <g id="line2d_76">
    <path d="M 485.292187 228.213041 
L 485.292187 228.213041 
" clip-path="url(#pd6a822b80c)" style="fill: none; stroke: #4c4c4c"/>
   </g>
   <g id="line2d_77">
    <path d="M 485.292187 218.706096 
L 485.292187 209.226392 
" clip-path="url(#pd6a822b80c)" style="fill: none; stroke: #4c4c4c"/>
   </g>
   <g id="line2d_78">
    <path d="M 476.334562 228.213041 
L 494.249812 228.213041 
" clip-path="url(#pd6a822b80c)" style="fill: none; stroke: #4c4c4c; stroke-linecap: round"/>
   </g>
   <g id="line2d_79">
    <path d="M 476.334562 209.226392 
L 494.249812 209.226392 
" clip-path="url(#pd6a822b80c)" style="fill: none; stroke: #4c4c4c; stroke-linecap: round"/>
   </g>
   <g id="line2d_80"/>
   <g id="patch_13">
    <path d="M 512.165062 228.213041 
L 547.995562 228.213041 
L 547.995562 227.36652 
L 512.165062 227.36652 
L 512.165062 228.213041 
z
" clip-path="url(#pd6a822b80c)" style="fill: #d62728; opacity: 0.7; stroke: #000000; stroke-width: 1.2; stroke-linejoin: miter"/>
   </g>
   <g id="line2d_81">
    <path d="M 530.080312 228.213041 
L 530.080312 228.213041 
" clip-path="url(#pd6a822b80c)" style="fill: none; stroke: #4c4c4c"/>
   </g>
   <g id="line2d_82">
    <path d="M 530.080312 227.36652 
L 530.080312 226.521159 
" clip-path="url(#pd6a822b80c)" style="fill: none; stroke: #4c4c4c"/>
   </g>
   <g id="line2d_83">
    <path d="M 521.122687 228.213041 
L 539.037937 228.213041 
" clip-path="url(#pd6a822b80c)" style="fill: none; stroke: #4c4c4c; stroke-linecap: round"/>
   </g>
   <g id="line2d_84">
    <path d="M 521.122687 226.521159 
L 539.037937 226.521159 
" clip-path="url(#pd6a822b80c)" style="fill: none; stroke: #4c4c4c; stroke-linecap: round"/>
   </g>
   <g id="line2d_85"/>
   <g id="patch_14">
    <path d="M 556.953187 226.89418 
L 592.783687 226.89418 
L 592.783687 181.613415 
L 556.953187 181.613415 
L 556.953187 226.89418 
z
" clip-path="url(#pd6a822b80c)" style="fill: #d62728; opacity: 0.7; stroke: #000000; stroke-width: 1.2; stroke-linejoin: miter"/>
   </g>
   <g id="line2d_86">
    <path d="M 574.868437 226.89418 
L 574.868437 228.213041 
" clip-path="url(#pd6a822b80c)" style="fill: none; stroke: #4c4c4c"/>
   </g>
   <g id="line2d_87">
    <path d="M 574.868437 181.613415 
L 574.868437 136.512498 
" clip-path="url(#pd6a822b80c)" style="fill: none; stroke: #4c4c4c"/>
   </g>
   <g id="line2d_88">
    <path d="M 565.910812 228.213041 
L 583.826062 228.213041 
" clip-path="url(#pd6a822b80c)" style="fill: none; stroke: #4c4c4c; stroke-linecap: round"/>
   </g>
   <g id="line2d_89">
    <path d="M 565.910812 136.512498 
L 583.826062 136.512498 
" clip-path="url(#pd6a822b80c)" style="fill: none; stroke: #4c4c4c; stroke-linecap: round"/>
   </g>
   <g id="line2d_90"/>
   <g id="patch_15">
    <path d="M 601.741312 224.771435 
L 637.571812 224.771435 
L 637.571812 177.577621 
L 601.741312 177.577621 
L 601.741312 224.771435 
z
" clip-path="url(#pd6a822b80c)" style="fill: #d62728; opacity: 0.7; stroke: #000000; stroke-width: 1.2; stroke-linejoin: miter"/>
   </g>
   <g id="line2d_91">
    <path d="M 619.656562 224.771435 
L 619.656562 228.213041 
" clip-path="url(#pd6a822b80c)" style="fill: none; stroke: #4c4c4c"/>
   </g>
   <g id="line2d_92">
    <path d="M 619.656562 177.577621 
L 619.656562 130.406597 
" clip-path="url(#pd6a822b80c)" style="fill: none; stroke: #4c4c4c"/>
   </g>
   <g id="line2d_93">
    <path d="M 610.698937 228.213041 
L 628.614187 228.213041 
" clip-path="url(#pd6a822b80c)" style="fill: none; stroke: #4c4c4c; stroke-linecap: round"/>
   </g>
   <g id="line2d_94">
    <path d="M 610.698937 130.406597 
L 628.614187 130.406597 
" clip-path="url(#pd6a822b80c)" style="fill: none; stroke: #4c4c4c; stroke-linecap: round"/>
   </g>
   <g id="line2d_95"/>
   <g id="patch_16">
    <path d="M 646.529437 228.213041 
L 682.359937 228.213041 
L 682.359937 144.364588 
L 646.529437 144.364588 
L 646.529437 228.213041 
z
" clip-path="url(#pd6a822b80c)" style="fill: #d62728; opacity: 0.7; stroke: #000000; stroke-width: 1.2; stroke-linejoin: miter"/>
   </g>
   <g id="line2d_96">
    <path d="M 664.444687 228.213041 
L 664.444687 228.213041 
" clip-path="url(#pd6a822b80c)" style="fill: none; stroke: #4c4c4c"/>
   </g>
   <g id="line2d_97">
    <path d="M 664.444687 144.364588 
L 664.444687 60.771059 
" clip-path="url(#pd6a822b80c)" style="fill: none; stroke: #4c4c4c"/>
   </g>
   <g id="line2d_98">
    <path d="M 655.487062 228.213041 
L 673.402312 228.213041 
" clip-path="url(#pd6a822b80c)" style="fill: none; stroke: #4c4c4c; stroke-linecap: round"/>
   </g>
   <g id="line2d_99">
    <path d="M 655.487062 60.771059 
L 673.402312 60.771059 
" clip-path="url(#pd6a822b80c)" style="fill: none; stroke: #4c4c4c; stroke-linecap: round"/>
   </g>
   <g id="line2d_100"/>
   <g id="patch_17">
    <path d="M 691.317562 228.213041 
L 727.148062 228.213041 
L 727.148062 177.081816 
L 691.317562 177.081816 
L 691.317562 228.213041 
z
" clip-path="url(#pd6a822b80c)" style="fill: #d62728; opacity: 0.7; stroke: #000000; stroke-width: 1.2; stroke-linejoin: miter"/>
   </g>
   <g id="line2d_101">
    <path d="M 709.232812 228.213041 
L 709.232812 228.213041 
" clip-path="url(#pd6a822b80c)" style="fill: none; stroke: #4c4c4c"/>
   </g>
   <g id="line2d_102">
    <path d="M 709.232812 177.081816 
L 709.232812 126.32786 
" clip-path="url(#pd6a822b80c)" style="fill: none; stroke: #4c4c4c"/>
   </g>
   <g id="line2d_103">
    <path d="M 700.275187 228.213041 
L 718.190437 228.213041 
" clip-path="url(#pd6a822b80c)" style="fill: none; stroke: #4c4c4c; stroke-linecap: round"/>
   </g>
   <g id="line2d_104">
    <path d="M 700.275187 126.32786 
L 718.190437 126.32786 
" clip-path="url(#pd6a822b80c)" style="fill: none; stroke: #4c4c4c; stroke-linecap: round"/>
   </g>
   <g id="line2d_105"/>
   <g id="patch_18">
    <path d="M 736.105687 228.213041 
L 771.936187 228.213041 
L 771.936187 153.053172 
L 736.105687 153.053172 
L 736.105687 228.213041 
z
" clip-path="url(#pd6a822b80c)" style="fill: #d62728; opacity: 0.7; stroke: #000000; stroke-width: 1.2; stroke-linejoin: miter"/>
   </g>
   <g id="line2d_106">
    <path d="M 754.020937 228.213041 
L 754.020937 228.213041 
" clip-path="url(#pd6a822b80c)" style="fill: none; stroke: #4c4c4c"/>
   </g>
   <g id="line2d_107">
    <path d="M 754.020937 153.053172 
L 754.020937 78.42596 
" clip-path="url(#pd6a822b80c)" style="fill: none; stroke: #4c4c4c"/>
   </g>
   <g id="line2d_108">
    <path d="M 745.063312 228.213041 
L 762.978562 228.213041 
" clip-path="url(#pd6a822b80c)" style="fill: none; stroke: #4c4c4c; stroke-linecap: round"/>
   </g>
   <g id="line2d_109">
    <path d="M 745.063312 78.42596 
L 762.978562 78.42596 
" clip-path="url(#pd6a822b80c)" style="fill: none; stroke: #4c4c4c; stroke-linecap: round"/>
   </g>
   <g id="line2d_110"/>
   <g id="patch_19">
    <path d="M 780.893812 228.213041 
L 816.724312 228.213041 
L 816.724312 153.621388 
L 780.893812 153.621388 
L 780.893812 228.213041 
z
" clip-path="url(#pd6a822b80c)" style="fill: #d62728; opacity: 0.7; stroke: #000000; stroke-width: 1.2; stroke-linejoin: miter"/>
   </g>
   <g id="line2d_111">
    <path d="M 798.809062 228.213041 
L 798.809062 228.213041 
" clip-path="url(#pd6a822b80c)" style="fill: none; stroke: #4c4c4c"/>
   </g>
   <g id="line2d_112">
    <path d="M 798.809062 153.621388 
L 798.809062 79.064644 
" clip-path="url(#pd6a822b80c)" style="fill: none; stroke: #4c4c4c"/>
   </g>
   <g id="line2d_113">
    <path d="M 789.851437 228.213041 
L 807.766687 228.213041 
" clip-path="url(#pd6a822b80c)" style="fill: none; stroke: #4c4c4c; stroke-linecap: round"/>
   </g>
   <g id="line2d_114">
    <path d="M 789.851437 79.064644 
L 807.766687 79.064644 
" clip-path="url(#pd6a822b80c)" style="fill: none; stroke: #4c4c4c; stroke-linecap: round"/>
   </g>
   <g id="line2d_115"/>
   <g id="patch_20">
    <path d="M 825.681937 225.595376 
L 861.512437 225.595376 
L 861.512437 165.327175 
L 825.681937 165.327175 
L 825.681937 225.595376 
z
" clip-path="url(#pd6a822b80c)" style="fill: #d62728; opacity: 0.7; stroke: #000000; stroke-width: 1.2; stroke-linejoin: miter"/>
   </g>
   <g id="line2d_116">
    <path d="M 843.597187 225.595376 
L 843.597187 228.213041 
" clip-path="url(#pd6a822b80c)" style="fill: none; stroke: #4c4c4c"/>
   </g>
   <g id="line2d_117">
    <path d="M 843.597187 165.327175 
L 843.597187 105.518116 
" clip-path="url(#pd6a822b80c)" style="fill: none; stroke: #4c4c4c"/>
   </g>
   <g id="line2d_118">
    <path d="M 834.639562 228.213041 
L 852.554812 228.213041 
" clip-path="url(#pd6a822b80c)" style="fill: none; stroke: #4c4c4c; stroke-linecap: round"/>
   </g>
   <g id="line2d_119">
    <path d="M 834.639562 105.518116 
L 852.554812 105.518116 
" clip-path="url(#pd6a822b80c)" style="fill: none; stroke: #4c4c4c; stroke-linecap: round"/>
   </g>
   <g id="line2d_120"/>
   <g id="patch_21">
    <path d="M 870.470062 226.758962 
L 906.300562 226.758962 
L 906.300562 152.588696 
L 870.470062 152.588696 
L 870.470062 226.758962 
z
" clip-path="url(#pd6a822b80c)" style="fill: #d62728; opacity: 0.7; stroke: #000000; stroke-width: 1.2; stroke-linejoin: miter"/>
   </g>
   <g id="line2d_121">
    <path d="M 888.385312 226.758962 
L 888.385312 228.213041 
" clip-path="url(#pd6a822b80c)" style="fill: none; stroke: #4c4c4c"/>
   </g>
   <g id="line2d_122">
    <path d="M 888.385312 152.588696 
L 888.385312 78.499437 
" clip-path="url(#pd6a822b80c)" style="fill: none; stroke: #4c4c4c"/>
   </g>
   <g id="line2d_123">
    <path d="M 879.427687 228.213041 
L 897.342937 228.213041 
" clip-path="url(#pd6a822b80c)" style="fill: none; stroke: #4c4c4c; stroke-linecap: round"/>
   </g>
   <g id="line2d_124">
    <path d="M 879.427687 78.499437 
L 897.342937 78.499437 
" clip-path="url(#pd6a822b80c)" style="fill: none; stroke: #4c4c4c; stroke-linecap: round"/>
   </g>
   <g id="line2d_125"/>
   <g id="patch_22">
    <path d="M 915.258187 225.424159 
L 951.088687 225.424159 
L 951.088687 167.842967 
L 915.258187 167.842967 
L 915.258187 225.424159 
z
" clip-path="url(#pd6a822b80c)" style="fill: #d62728; opacity: 0.7; stroke: #000000; stroke-width: 1.2; stroke-linejoin: miter"/>
   </g>
   <g id="line2d_126">
    <path d="M 933.173437 225.424159 
L 933.173437 228.213041 
" clip-path="url(#pd6a822b80c)" style="fill: none; stroke: #4c4c4c"/>
   </g>
   <g id="line2d_127">
    <path d="M 933.173437 167.842967 
L 933.173437 110.527896 
" clip-path="url(#pd6a822b80c)" style="fill: none; stroke: #4c4c4c"/>
   </g>
   <g id="line2d_128">
    <path d="M 924.215812 228.213041 
L 942.131062 228.213041 
" clip-path="url(#pd6a822b80c)" style="fill: none; stroke: #4c4c4c; stroke-linecap: round"/>
   </g>
   <g id="line2d_129">
    <path d="M 924.215812 110.527896 
L 942.131062 110.527896 
" clip-path="url(#pd6a822b80c)" style="fill: none; stroke: #4c4c4c; stroke-linecap: round"/>
   </g>
   <g id="line2d_130"/>
   <g id="patch_23">
    <path d="M 960.046312 225.064989 
L 995.876812 225.064989 
L 995.876812 172.197763 
L 960.046312 172.197763 
L 960.046312 225.064989 
z
" clip-path="url(#pd6a822b80c)" style="fill: #d62728; opacity: 0.7; stroke: #000000; stroke-width: 1.2; stroke-linejoin: miter"/>
   </g>
   <g id="line2d_131">
    <path d="M 977.961562 225.064989 
L 977.961562 228.213041 
" clip-path="url(#pd6a822b80c)" style="fill: none; stroke: #4c4c4c"/>
   </g>
   <g id="line2d_132">
    <path d="M 977.961562 172.197763 
L 977.961562 119.540179 
" clip-path="url(#pd6a822b80c)" style="fill: none; stroke: #4c4c4c"/>
   </g>
   <g id="line2d_133">
    <path d="M 969.003937 228.213041 
L 986.919187 228.213041 
" clip-path="url(#pd6a822b80c)" style="fill: none; stroke: #4c4c4c; stroke-linecap: round"/>
   </g>
   <g id="line2d_134">
    <path d="M 969.003937 119.540179 
L 986.919187 119.540179 
" clip-path="url(#pd6a822b80c)" style="fill: none; stroke: #4c4c4c; stroke-linecap: round"/>
   </g>
   <g id="line2d_135"/>
   <g id="patch_24">
    <path d="M 1004.834437 223.664596 
L 1040.664937 223.664596 
L 1040.664937 170.890067 
L 1004.834437 170.890067 
L 1004.834437 223.664596 
z
" clip-path="url(#pd6a822b80c)" style="fill: #d62728; opacity: 0.7; stroke: #000000; stroke-width: 1.2; stroke-linejoin: miter"/>
   </g>
   <g id="line2d_136">
    <path d="M 1022.749687 223.664596 
L 1022.749687 228.213041 
" clip-path="url(#pd6a822b80c)" style="fill: none; stroke: #4c4c4c"/>
   </g>
   <g id="line2d_137">
    <path d="M 1022.749687 170.890067 
L 1022.749687 118.212055 
" clip-path="url(#pd6a822b80c)" style="fill: none; stroke: #4c4c4c"/>
   </g>
   <g id="line2d_138">
    <path d="M 1013.792062 228.213041 
L 1031.707312 228.213041 
" clip-path="url(#pd6a822b80c)" style="fill: none; stroke: #4c4c4c; stroke-linecap: round"/>
   </g>
   <g id="line2d_139">
    <path d="M 1013.792062 118.212055 
L 1031.707312 118.212055 
" clip-path="url(#pd6a822b80c)" style="fill: none; stroke: #4c4c4c; stroke-linecap: round"/>
   </g>
   <g id="line2d_140"/>
   <g id="patch_25">
    <path d="M 1049.622562 224.761258 
L 1085.453062 224.761258 
L 1085.453062 176.503123 
L 1049.622562 176.503123 
L 1049.622562 224.761258 
z
" clip-path="url(#pd6a822b80c)" style="fill: #d62728; opacity: 0.7; stroke: #000000; stroke-width: 1.2; stroke-linejoin: miter"/>
   </g>
   <g id="line2d_141">
    <path d="M 1067.537812 224.761258 
L 1067.537812 228.213041 
" clip-path="url(#pd6a822b80c)" style="fill: none; stroke: #4c4c4c"/>
   </g>
   <g id="line2d_142">
    <path d="M 1067.537812 176.503123 
L 1067.537812 128.444989 
" clip-path="url(#pd6a822b80c)" style="fill: none; stroke: #4c4c4c"/>
   </g>
   <g id="line2d_143">
    <path d="M 1058.580187 228.213041 
L 1076.495437 228.213041 
" clip-path="url(#pd6a822b80c)" style="fill: none; stroke: #4c4c4c; stroke-linecap: round"/>
   </g>
   <g id="line2d_144">
    <path d="M 1058.580187 128.444989 
L 1076.495437 128.444989 
" clip-path="url(#pd6a822b80c)" style="fill: none; stroke: #4c4c4c; stroke-linecap: round"/>
   </g>
   <g id="line2d_145"/>
   <g id="patch_26">
    <path d="M 1094.410687 224.076677 
L 1130.241187 224.076677 
L 1130.241187 178.67955 
L 1094.410687 178.67955 
L 1094.410687 224.076677 
z
" clip-path="url(#pd6a822b80c)" style="fill: #d62728; opacity: 0.7; stroke: #000000; stroke-width: 1.2; stroke-linejoin: miter"/>
   </g>
   <g id="line2d_146">
    <path d="M 1112.325938 224.076677 
L 1112.325938 228.213041 
" clip-path="url(#pd6a822b80c)" style="fill: none; stroke: #4c4c4c"/>
   </g>
   <g id="line2d_147">
    <path d="M 1112.325938 178.67955 
L 1112.325938 133.620392 
" clip-path="url(#pd6a822b80c)" style="fill: none; stroke: #4c4c4c"/>
   </g>
   <g id="line2d_148">
    <path d="M 1103.368313 228.213041 
L 1121.283563 228.213041 
" clip-path="url(#pd6a822b80c)" style="fill: none; stroke: #4c4c4c; stroke-linecap: round"/>
   </g>
   <g id="line2d_149">
    <path d="M 1103.368313 133.620392 
L 1121.283563 133.620392 
" clip-path="url(#pd6a822b80c)" style="fill: none; stroke: #4c4c4c; stroke-linecap: round"/>
   </g>
   <g id="line2d_150"/>
   <g id="line2d_151">
    <path d="M 64.283812 209.912747 
L 100.114312 209.912747 
" clip-path="url(#pd6a822b80c)" style="fill: none; stroke: #4c4c4c"/>
   </g>
   <g id="line2d_152">
    <path d="M 109.071937 219.988306 
L 144.902437 219.988306 
" clip-path="url(#pd6a822b80c)" style="fill: none; stroke: #4c4c4c"/>
   </g>
   <g id="line2d_153">
    <path d="M 153.860062 228.210528 
L 189.690562 228.210528 
" clip-path="url(#pd6a822b80c)" style="fill: none; stroke: #4c4c4c"/>
   </g>
   <g id="line2d_154">
    <path d="M 198.648187 204.2254 
L 234.478687 204.2254 
" clip-path="url(#pd6a822b80c)" style="fill: none; stroke: #4c4c4c"/>
   </g>
   <g id="line2d_155">
    <path d="M 243.436312 210.268326 
L 279.266813 210.268326 
" clip-path="url(#pd6a822b80c)" style="fill: none; stroke: #4c4c4c"/>
   </g>
   <g id="line2d_156">
    <path d="M 288.224437 215.035769 
L 324.054937 215.035769 
" clip-path="url(#pd6a822b80c)" style="fill: none; stroke: #4c4c4c"/>
   </g>
   <g id="line2d_157">
    <path d="M 333.012562 221.158394 
L 368.843062 221.158394 
" clip-path="url(#pd6a822b80c)" style="fill: none; stroke: #4c4c4c"/>
   </g>
   <g id="line2d_158">
    <path d="M 377.800687 205.035464 
L 413.631188 205.035464 
" clip-path="url(#pd6a822b80c)" style="fill: none; stroke: #4c4c4c"/>
   </g>
   <g id="line2d_159">
    <path d="M 422.588812 217.978728 
L 458.419312 217.978728 
" clip-path="url(#pd6a822b80c)" style="fill: none; stroke: #4c4c4c"/>
   </g>
   <g id="line2d_160">
    <path d="M 467.376937 228.036297 
L 503.207437 228.036297 
" clip-path="url(#pd6a822b80c)" style="fill: none; stroke: #4c4c4c"/>
   </g>
   <g id="line2d_161">
    <path d="M 512.165062 228.213041 
L 547.995562 228.213041 
" clip-path="url(#pd6a822b80c)" style="fill: none; stroke: #4c4c4c"/>
   </g>
   <g id="line2d_162">
    <path d="M 556.953187 216.557132 
L 592.783687 216.557132 
" clip-path="url(#pd6a822b80c)" style="fill: none; stroke: #4c4c4c"/>
   </g>
   <g id="line2d_163">
    <path d="M 601.741312 212.447205 
L 637.571812 212.447205 
" clip-path="url(#pd6a822b80c)" style="fill: none; stroke: #4c4c4c"/>
   </g>
   <g id="line2d_164">
    <path d="M 646.529437 215.217668 
L 682.359937 215.217668 
" clip-path="url(#pd6a822b80c)" style="fill: none; stroke: #4c4c4c"/>
   </g>
   <g id="line2d_165">
    <path d="M 691.317562 222.923839 
L 727.148062 222.923839 
" clip-path="url(#pd6a822b80c)" style="fill: none; stroke: #4c4c4c"/>
   </g>
   <g id="line2d_166">
    <path d="M 736.105687 219.729028 
L 771.936187 219.729028 
" clip-path="url(#pd6a822b80c)" style="fill: none; stroke: #4c4c4c"/>
   </g>
   <g id="line2d_167">
    <path d="M 780.893812 216.870662 
L 816.724312 216.870662 
" clip-path="url(#pd6a822b80c)" style="fill: none; stroke: #4c4c4c"/>
   </g>
   <g id="line2d_168">
    <path d="M 825.681937 215.650797 
L 861.512437 215.650797 
" clip-path="url(#pd6a822b80c)" style="fill: none; stroke: #4c4c4c"/>
   </g>
   <g id="line2d_169">
    <path d="M 870.470062 212.922124 
L 906.300562 212.922124 
" clip-path="url(#pd6a822b80c)" style="fill: none; stroke: #4c4c4c"/>
   </g>
   <g id="line2d_170">
    <path d="M 915.258187 209.528169 
L 951.088687 209.528169 
" clip-path="url(#pd6a822b80c)" style="fill: none; stroke: #4c4c4c"/>
   </g>
   <g id="line2d_171">
    <path d="M 960.046312 211.52821 
L 995.876812 211.52821 
" clip-path="url(#pd6a822b80c)" style="fill: none; stroke: #4c4c4c"/>
   </g>
   <g id="line2d_172">
    <path d="M 1004.834437 200.892138 
L 1040.664937 200.892138 
" clip-path="url(#pd6a822b80c)" style="fill: none; stroke: #4c4c4c"/>
   </g>
   <g id="line2d_173">
    <path d="M 1049.622562 214.198236 
L 1085.453062 214.198236 
" clip-path="url(#pd6a822b80c)" style="fill: none; stroke: #4c4c4c"/>
   </g>
   <g id="line2d_174">
    <path d="M 1094.410687 214.191088 
L 1130.241187 214.191088 
" clip-path="url(#pd6a822b80c)" style="fill: none; stroke: #4c4c4c"/>
   </g>
   <g id="patch_27">
    <path d="M 59.805 228.213041 
L 59.805 32.28 
" style="fill: none; stroke: #cccccc; stroke-width: 1.25; stroke-linejoin: miter; stroke-linecap: square"/>
   </g>
   <g id="patch_28">
    <path d="M 1134.72 228.213041 
L 1134.72 32.28 
" style="fill: none; stroke: #cccccc; stroke-width: 1.25; stroke-linejoin: miter; stroke-linecap: square"/>
   </g>
   <g id="patch_29">
    <path d="M 59.805 228.213041 
L 1134.72 228.213041 
" style="fill: none; stroke: #cccccc; stroke-width: 1.25; stroke-linejoin: miter; stroke-linecap: square"/>
   </g>
   <g id="patch_30">
    <path d="M 59.805 32.28 
L 1134.72 32.28 
" style="fill: none; stroke: #cccccc; stroke-width: 1.25; stroke-linejoin: miter; stroke-linecap: square"/>
   </g>
   <g id="text_33">
    <!-- Hourly Distribution of GPU Requests (&gt;15 min duration) -->
    <g style="fill: #262626" transform="translate(429.395625 26.28) scale(0.12 -0.12)">
     <defs>
      <path id="DejaVuSans-6c" d="M 603 4863 
L 1178 4863 
L 1178 0 
L 603 0 
L 603 4863 
z
" transform="scale(0.015625)"/>
      <path id="DejaVuSans-62" d="M 3116 1747 
Q 3116 2381 2855 2742 
Q 2594 3103 2138 3103 
Q 1681 3103 1420 2742 
Q 1159 2381 1159 1747 
Q 1159 1113 1420 752 
Q 1681 391 2138 391 
Q 2594 391 2855 752 
Q 3116 1113 3116 1747 
z
M 1159 2969 
Q 1341 3281 1617 3432 
Q 1894 3584 2278 3584 
Q 2916 3584 3314 3078 
Q 3713 2572 3713 1747 
Q 3713 922 3314 415 
Q 2916 -91 2278 -91 
Q 1894 -91 1617 61 
Q 1341 213 1159 525 
L 1159 0 
L 581 0 
L 581 4863 
L 1159 4863 
L 1159 2969 
z
" transform="scale(0.015625)"/>
      <path id="DejaVuSans-28" d="M 1984 4856 
Q 1566 4138 1362 3434 
Q 1159 2731 1159 2009 
Q 1159 1288 1364 580 
Q 1569 -128 1984 -844 
L 1484 -844 
Q 1016 -109 783 600 
Q 550 1309 550 2009 
Q 550 2706 781 3412 
Q 1013 4119 1484 4856 
L 1984 4856 
z
" transform="scale(0.015625)"/>
      <path id="DejaVuSans-3e" d="M 678 3150 
L 678 3719 
L 4684 2266 
L 4684 1747 
L 678 294 
L 678 863 
L 3897 2003 
L 678 3150 
z
" transform="scale(0.015625)"/>
      <path id="DejaVuSans-6d" d="M 3328 2828 
Q 3544 3216 3844 3400 
Q 4144 3584 4550 3584 
Q 5097 3584 5394 3201 
Q 5691 2819 5691 2113 
L 5691 0 
L 5113 0 
L 5113 2094 
Q 5113 2597 4934 2840 
Q 4756 3084 4391 3084 
Q 3944 3084 3684 2787 
Q 3425 2491 3425 1978 
L 3425 0 
L 2847 0 
L 2847 2094 
Q 2847 2600 2669 2842 
Q 2491 3084 2119 3084 
Q 1678 3084 1418 2786 
Q 1159 2488 1159 1978 
L 1159 0 
L 581 0 
L 581 3500 
L 1159 3500 
L 1159 2956 
Q 1356 3278 1631 3431 
Q 1906 3584 2284 3584 
Q 2666 3584 2933 3390 
Q 3200 3197 3328 2828 
z
" transform="scale(0.015625)"/>
      <path id="DejaVuSans-29" d="M 513 4856 
L 1013 4856 
Q 1481 4119 1714 3412 
Q 1947 2706 1947 2009 
Q 1947 1309 1714 600 
Q 1481 -109 1013 -844 
L 513 -844 
Q 928 -128 1133 580 
Q 1338 1288 1338 2009 
Q 1338 2731 1133 3434 
Q 928 4138 513 4856 
z
" transform="scale(0.015625)"/>
     </defs>
     <use xlink:href="#DejaVuSans-48"/>
     <use xlink:href="#DejaVuSans-6f" x="75.195312"/>
     <use xlink:href="#DejaVuSans-75" x="136.376953"/>
     <use xlink:href="#DejaVuSans-72" x="199.755859"/>
     <use xlink:href="#DejaVuSans-6c" x="240.869141"/>
     <use xlink:href="#DejaVuSans-79" x="268.652344"/>
     <use xlink:href="#DejaVuSans-20" x="327.832031"/>
     <use xlink:href="#DejaVuSans-44" x="359.619141"/>
     <use xlink:href="#DejaVuSans-69" x="436.621094"/>
     <use xlink:href="#DejaVuSans-73" x="464.404297"/>
     <use xlink:href="#DejaVuSans-74" x="516.503906"/>
     <use xlink:href="#DejaVuSans-72" x="555.712891"/>
     <use xlink:href="#DejaVuSans-69" x="596.826172"/>
     <use xlink:href="#DejaVuSans-62" x="624.609375"/>
     <use xlink:href="#DejaVuSans-75" x="688.085938"/>
     <use xlink:href="#DejaVuSans-74" x="751.464844"/>
     <use xlink:href="#DejaVuSans-69" x="790.673828"/>
     <use xlink:href="#DejaVuSans-6f" x="818.457031"/>
     <use xlink:href="#DejaVuSans-6e" x="879.638672"/>
     <use xlink:href="#DejaVuSans-20" x="943.017578"/>
     <use xlink:href="#DejaVuSans-6f" x="974.804688"/>
     <use xlink:href="#DejaVuSans-66" x="1035.986328"/>
     <use xlink:href="#DejaVuSans-20" x="1071.191406"/>
     <use xlink:href="#DejaVuSans-47" x="1102.978516"/>
     <use xlink:href="#DejaVuSans-50" x="1180.46875"/>
     <use xlink:href="#DejaVuSans-55" x="1240.771484"/>
     <use xlink:href="#DejaVuSans-20" x="1313.964844"/>
     <use xlink:href="#DejaVuSans-52" x="1345.751953"/>
     <use xlink:href="#DejaVuSans-65" x="1410.734375"/>
     <use xlink:href="#DejaVuSans-71" x="1472.257812"/>
     <use xlink:href="#DejaVuSans-75" x="1535.734375"/>
     <use xlink:href="#DejaVuSans-65" x="1599.113281"/>
     <use xlink:href="#DejaVuSans-73" x="1660.636719"/>
     <use xlink:href="#DejaVuSans-74" x="1712.736328"/>
     <use xlink:href="#DejaVuSans-73" x="1751.945312"/>
     <use xlink:href="#DejaVuSans-20" x="1804.044922"/>
     <use xlink:href="#DejaVuSans-28" x="1835.832031"/>
     <use xlink:href="#DejaVuSans-3e" x="1874.845703"/>
     <use xlink:href="#DejaVuSans-31" x="1958.634766"/>
     <use xlink:href="#DejaVuSans-35" x="2022.257812"/>
     <use xlink:href="#DejaVuSans-20" x="2085.880859"/>
     <use xlink:href="#DejaVuSans-6d" x="2117.667969"/>
     <use xlink:href="#DejaVuSans-69" x="2215.080078"/>
     <use xlink:href="#DejaVuSans-6e" x="2242.863281"/>
     <use xlink:href="#DejaVuSans-20" x="2306.242188"/>
     <use xlink:href="#DejaVuSans-64" x="2338.029297"/>
     <use xlink:href="#DejaVuSans-75" x="2401.505859"/>
     <use xlink:href="#DejaVuSans-72" x="2464.884766"/>
     <use xlink:href="#DejaVuSans-61" x="2505.998047"/>
     <use xlink:href="#DejaVuSans-74" x="2567.277344"/>
     <use xlink:href="#DejaVuSans-69" x="2606.486328"/>
     <use xlink:href="#DejaVuSans-6f" x="2634.269531"/>
     <use xlink:href="#DejaVuSans-6e" x="2695.451172"/>
     <use xlink:href="#DejaVuSans-29" x="2758.830078"/>
    </g>
   </g>
  </g>
 </g>
 <defs>
  <clipPath id="pd6a822b80c">
   <rect x="59.805" y="32.28" width="1074.915" height="195.933041"/>
  </clipPath>
 </defs>
</svg>
