<?xml version="1.0" encoding="utf-8" standalone="no"?>
<!DOCTYPE svg PUBLIC "-//W3C//DTD SVG 1.1//EN"
  "http://www.w3.org/Graphics/SVG/1.1/DTD/svg11.dtd">
<svg xmlns:xlink="http://www.w3.org/1999/xlink" width="842.04839pt" height="409.5648pt" viewBox="0 0 842.04839 409.5648" xmlns="http://www.w3.org/2000/svg" version="1.1">
 <metadata>
  <rdf:RDF xmlns:dc="http://purl.org/dc/elements/1.1/" xmlns:cc="http://creativecommons.org/ns#" xmlns:rdf="http://www.w3.org/1999/02/22-rdf-syntax-ns#">
   <cc:Work>
    <dc:type rdf:resource="http://purl.org/dc/dcmitype/StillImage"/>
    <dc:date>2025-04-15T11:54:57.867898</dc:date>
    <dc:format>image/svg+xml</dc:format>
    <dc:creator>
     <cc:Agent>
      <dc:title>Matplotlib v3.8.3, https://matplotlib.org/</dc:title>
     </cc:Agent>
    </dc:creator>
   </cc:Work>
  </rdf:RDF>
 </metadata>
 <defs>
  <style type="text/css">*{stroke-linejoin: round; stroke-linecap: butt}</style>
 </defs>
 <g id="figure_1">
  <g id="patch_1">
   <path d="M 0 409.5648 
L 842.04839 409.5648 
L 842.04839 0 
L 0 0 
z
" style="fill: #ffffff"/>
  </g>
  <g id="axes_1">
   <g id="patch_2">
    <path d="M 53.31 347.307508 
L 686.874 347.307508 
L 686.874 22.318125 
L 53.31 22.318125 
z
" style="fill: #ffffff"/>
   </g>
   <g id="matplotlib.axis_1">
    <g id="xtick_1">
     <g id="line2d_1">
      <path d="M 53.31 347.307508 
L 53.31 22.318125 
" clip-path="url(#p668f101ba2)" style="fill: none; stroke-dasharray: 3.7,1.6; stroke-dashoffset: 0; stroke: #cccccc; stroke-opacity: 0.7"/>
     </g>
     <g id="text_1">
      <!-- 00:00 -->
      <g style="fill: #262626" transform="translate(44.248427 385.133432) rotate(-45) scale(0.11 -0.11)">
       <defs>
        <path id="DejaVuSans-30" d="M 2034 4250 
Q 1547 4250 1301 3770 
Q 1056 3291 1056 2328 
Q 1056 1369 1301 889 
Q 1547 409 2034 409 
Q 2525 409 2770 889 
Q 3016 1369 3016 2328 
Q 3016 3291 2770 3770 
Q 2525 4250 2034 4250 
z
M 2034 4750 
Q 2819 4750 3233 4129 
Q 3647 3509 3647 2328 
Q 3647 1150 3233 529 
Q 2819 -91 2034 -91 
Q 1250 -91 836 529 
Q 422 1150 422 2328 
Q 422 3509 836 4129 
Q 1250 4750 2034 4750 
z
" transform="scale(0.015625)"/>
        <path id="DejaVuSans-3a" d="M 750 794 
L 1409 794 
L 1409 0 
L 750 0 
L 750 794 
z
M 750 3309 
L 1409 3309 
L 1409 2516 
L 750 2516 
L 750 3309 
z
" transform="scale(0.015625)"/>
       </defs>
       <use xlink:href="#DejaVuSans-30"/>
       <use xlink:href="#DejaVuSans-30" x="63.623047"/>
       <use xlink:href="#DejaVuSans-3a" x="127.246094"/>
       <use xlink:href="#DejaVuSans-30" x="160.9375"/>
       <use xlink:href="#DejaVuSans-30" x="224.560547"/>
      </g>
     </g>
    </g>
    <g id="xtick_2">
     <g id="line2d_2">
      <path d="M 80.856261 347.307508 
L 80.856261 22.318125 
" clip-path="url(#p668f101ba2)" style="fill: none; stroke-dasharray: 3.7,1.6; stroke-dashoffset: 0; stroke: #cccccc; stroke-opacity: 0.7"/>
     </g>
     <g id="text_2">
      <!-- 01:00 -->
      <g style="fill: #262626" transform="translate(71.794687 385.133432) rotate(-45) scale(0.11 -0.11)">
       <defs>
        <path id="DejaVuSans-31" d="M 794 531 
L 1825 531 
L 1825 4091 
L 703 3866 
L 703 4441 
L 1819 4666 
L 2450 4666 
L 2450 531 
L 3481 531 
L 3481 0 
L 794 0 
L 794 531 
z
" transform="scale(0.015625)"/>
       </defs>
       <use xlink:href="#DejaVuSans-30"/>
       <use xlink:href="#DejaVuSans-31" x="63.623047"/>
       <use xlink:href="#DejaVuSans-3a" x="127.246094"/>
       <use xlink:href="#DejaVuSans-30" x="160.9375"/>
       <use xlink:href="#DejaVuSans-30" x="224.560547"/>
      </g>
     </g>
    </g>
    <g id="xtick_3">
     <g id="line2d_3">
      <path d="M 108.402522 347.307508 
L 108.402522 22.318125 
" clip-path="url(#p668f101ba2)" style="fill: none; stroke-dasharray: 3.7,1.6; stroke-dashoffset: 0; stroke: #cccccc; stroke-opacity: 0.7"/>
     </g>
     <g id="text_3">
      <!-- 02:00 -->
      <g style="fill: #262626" transform="translate(99.340948 385.133432) rotate(-45) scale(0.11 -0.11)">
       <defs>
        <path id="DejaVuSans-32" d="M 1228 531 
L 3431 531 
L 3431 0 
L 469 0 
L 469 531 
Q 828 903 1448 1529 
Q 2069 2156 2228 2338 
Q 2531 2678 2651 2914 
Q 2772 3150 2772 3378 
Q 2772 3750 2511 3984 
Q 2250 4219 1831 4219 
Q 1534 4219 1204 4116 
Q 875 4013 500 3803 
L 500 4441 
Q 881 4594 1212 4672 
Q 1544 4750 1819 4750 
Q 2544 4750 2975 4387 
Q 3406 4025 3406 3419 
Q 3406 3131 3298 2873 
Q 3191 2616 2906 2266 
Q 2828 2175 2409 1742 
Q 1991 1309 1228 531 
z
" transform="scale(0.015625)"/>
       </defs>
       <use xlink:href="#DejaVuSans-30"/>
       <use xlink:href="#DejaVuSans-32" x="63.623047"/>
       <use xlink:href="#DejaVuSans-3a" x="127.246094"/>
       <use xlink:href="#DejaVuSans-30" x="160.9375"/>
       <use xlink:href="#DejaVuSans-30" x="224.560547"/>
      </g>
     </g>
    </g>
    <g id="xtick_4">
     <g id="line2d_4">
      <path d="M 135.948783 347.307508 
L 135.948783 22.318125 
" clip-path="url(#p668f101ba2)" style="fill: none; stroke-dasharray: 3.7,1.6; stroke-dashoffset: 0; stroke: #cccccc; stroke-opacity: 0.7"/>
     </g>
     <g id="text_4">
      <!-- 03:00 -->
      <g style="fill: #262626" transform="translate(126.887209 385.133432) rotate(-45) scale(0.11 -0.11)">
       <defs>
        <path id="DejaVuSans-33" d="M 2597 2516 
Q 3050 2419 3304 2112 
Q 3559 1806 3559 1356 
Q 3559 666 3084 287 
Q 2609 -91 1734 -91 
Q 1441 -91 1130 -33 
Q 819 25 488 141 
L 488 750 
Q 750 597 1062 519 
Q 1375 441 1716 441 
Q 2309 441 2620 675 
Q 2931 909 2931 1356 
Q 2931 1769 2642 2001 
Q 2353 2234 1838 2234 
L 1294 2234 
L 1294 2753 
L 1863 2753 
Q 2328 2753 2575 2939 
Q 2822 3125 2822 3475 
Q 2822 3834 2567 4026 
Q 2313 4219 1838 4219 
Q 1578 4219 1281 4162 
Q 984 4106 628 3988 
L 628 4550 
Q 988 4650 1302 4700 
Q 1616 4750 1894 4750 
Q 2613 4750 3031 4423 
Q 3450 4097 3450 3541 
Q 3450 3153 3228 2886 
Q 3006 2619 2597 2516 
z
" transform="scale(0.015625)"/>
       </defs>
       <use xlink:href="#DejaVuSans-30"/>
       <use xlink:href="#DejaVuSans-33" x="63.623047"/>
       <use xlink:href="#DejaVuSans-3a" x="127.246094"/>
       <use xlink:href="#DejaVuSans-30" x="160.9375"/>
       <use xlink:href="#DejaVuSans-30" x="224.560547"/>
      </g>
     </g>
    </g>
    <g id="xtick_5">
     <g id="line2d_5">
      <path d="M 163.495043 347.307508 
L 163.495043 22.318125 
" clip-path="url(#p668f101ba2)" style="fill: none; stroke-dasharray: 3.7,1.6; stroke-dashoffset: 0; stroke: #cccccc; stroke-opacity: 0.7"/>
     </g>
     <g id="text_5">
      <!-- 04:00 -->
      <g style="fill: #262626" transform="translate(154.43347 385.133432) rotate(-45) scale(0.11 -0.11)">
       <defs>
        <path id="DejaVuSans-34" d="M 2419 4116 
L 825 1625 
L 2419 1625 
L 2419 4116 
z
M 2253 4666 
L 3047 4666 
L 3047 1625 
L 3713 1625 
L 3713 1100 
L 3047 1100 
L 3047 0 
L 2419 0 
L 2419 1100 
L 313 1100 
L 313 1709 
L 2253 4666 
z
" transform="scale(0.015625)"/>
       </defs>
       <use xlink:href="#DejaVuSans-30"/>
       <use xlink:href="#DejaVuSans-34" x="63.623047"/>
       <use xlink:href="#DejaVuSans-3a" x="127.246094"/>
       <use xlink:href="#DejaVuSans-30" x="160.9375"/>
       <use xlink:href="#DejaVuSans-30" x="224.560547"/>
      </g>
     </g>
    </g>
    <g id="xtick_6">
     <g id="line2d_6">
      <path d="M 191.041304 347.307508 
L 191.041304 22.318125 
" clip-path="url(#p668f101ba2)" style="fill: none; stroke-dasharray: 3.7,1.6; stroke-dashoffset: 0; stroke: #cccccc; stroke-opacity: 0.7"/>
     </g>
     <g id="text_6">
      <!-- 05:00 -->
      <g style="fill: #262626" transform="translate(181.979731 385.133432) rotate(-45) scale(0.11 -0.11)">
       <defs>
        <path id="DejaVuSans-35" d="M 691 4666 
L 3169 4666 
L 3169 4134 
L 1269 4134 
L 1269 2991 
Q 1406 3038 1543 3061 
Q 1681 3084 1819 3084 
Q 2600 3084 3056 2656 
Q 3513 2228 3513 1497 
Q 3513 744 3044 326 
Q 2575 -91 1722 -91 
Q 1428 -91 1123 -41 
Q 819 9 494 109 
L 494 744 
Q 775 591 1075 516 
Q 1375 441 1709 441 
Q 2250 441 2565 725 
Q 2881 1009 2881 1497 
Q 2881 1984 2565 2268 
Q 2250 2553 1709 2553 
Q 1456 2553 1204 2497 
Q 953 2441 691 2322 
L 691 4666 
z
" transform="scale(0.015625)"/>
       </defs>
       <use xlink:href="#DejaVuSans-30"/>
       <use xlink:href="#DejaVuSans-35" x="63.623047"/>
       <use xlink:href="#DejaVuSans-3a" x="127.246094"/>
       <use xlink:href="#DejaVuSans-30" x="160.9375"/>
       <use xlink:href="#DejaVuSans-30" x="224.560547"/>
      </g>
     </g>
    </g>
    <g id="xtick_7">
     <g id="line2d_7">
      <path d="M 218.587565 347.307508 
L 218.587565 22.318125 
" clip-path="url(#p668f101ba2)" style="fill: none; stroke-dasharray: 3.7,1.6; stroke-dashoffset: 0; stroke: #cccccc; stroke-opacity: 0.7"/>
     </g>
     <g id="text_7">
      <!-- 06:00 -->
      <g style="fill: #262626" transform="translate(209.525992 385.133432) rotate(-45) scale(0.11 -0.11)">
       <defs>
        <path id="DejaVuSans-36" d="M 2113 2584 
Q 1688 2584 1439 2293 
Q 1191 2003 1191 1497 
Q 1191 994 1439 701 
Q 1688 409 2113 409 
Q 2538 409 2786 701 
Q 3034 994 3034 1497 
Q 3034 2003 2786 2293 
Q 2538 2584 2113 2584 
z
M 3366 4563 
L 3366 3988 
Q 3128 4100 2886 4159 
Q 2644 4219 2406 4219 
Q 1781 4219 1451 3797 
Q 1122 3375 1075 2522 
Q 1259 2794 1537 2939 
Q 1816 3084 2150 3084 
Q 2853 3084 3261 2657 
Q 3669 2231 3669 1497 
Q 3669 778 3244 343 
Q 2819 -91 2113 -91 
Q 1303 -91 875 529 
Q 447 1150 447 2328 
Q 447 3434 972 4092 
Q 1497 4750 2381 4750 
Q 2619 4750 2861 4703 
Q 3103 4656 3366 4563 
z
" transform="scale(0.015625)"/>
       </defs>
       <use xlink:href="#DejaVuSans-30"/>
       <use xlink:href="#DejaVuSans-36" x="63.623047"/>
       <use xlink:href="#DejaVuSans-3a" x="127.246094"/>
       <use xlink:href="#DejaVuSans-30" x="160.9375"/>
       <use xlink:href="#DejaVuSans-30" x="224.560547"/>
      </g>
     </g>
    </g>
    <g id="xtick_8">
     <g id="line2d_8">
      <path d="M 246.133826 347.307508 
L 246.133826 22.318125 
" clip-path="url(#p668f101ba2)" style="fill: none; stroke-dasharray: 3.7,1.6; stroke-dashoffset: 0; stroke: #cccccc; stroke-opacity: 0.7"/>
     </g>
     <g id="text_8">
      <!-- 07:00 -->
      <g style="fill: #262626" transform="translate(237.072253 385.133432) rotate(-45) scale(0.11 -0.11)">
       <defs>
        <path id="DejaVuSans-37" d="M 525 4666 
L 3525 4666 
L 3525 4397 
L 1831 0 
L 1172 0 
L 2766 4134 
L 525 4134 
L 525 4666 
z
" transform="scale(0.015625)"/>
       </defs>
       <use xlink:href="#DejaVuSans-30"/>
       <use xlink:href="#DejaVuSans-37" x="63.623047"/>
       <use xlink:href="#DejaVuSans-3a" x="127.246094"/>
       <use xlink:href="#DejaVuSans-30" x="160.9375"/>
       <use xlink:href="#DejaVuSans-30" x="224.560547"/>
      </g>
     </g>
    </g>
    <g id="xtick_9">
     <g id="line2d_9">
      <path d="M 273.680087 347.307508 
L 273.680087 22.318125 
" clip-path="url(#p668f101ba2)" style="fill: none; stroke-dasharray: 3.7,1.6; stroke-dashoffset: 0; stroke: #cccccc; stroke-opacity: 0.7"/>
     </g>
     <g id="text_9">
      <!-- 08:00 -->
      <g style="fill: #262626" transform="translate(264.618514 385.133432) rotate(-45) scale(0.11 -0.11)">
       <defs>
        <path id="DejaVuSans-38" d="M 2034 2216 
Q 1584 2216 1326 1975 
Q 1069 1734 1069 1313 
Q 1069 891 1326 650 
Q 1584 409 2034 409 
Q 2484 409 2743 651 
Q 3003 894 3003 1313 
Q 3003 1734 2745 1975 
Q 2488 2216 2034 2216 
z
M 1403 2484 
Q 997 2584 770 2862 
Q 544 3141 544 3541 
Q 544 4100 942 4425 
Q 1341 4750 2034 4750 
Q 2731 4750 3128 4425 
Q 3525 4100 3525 3541 
Q 3525 3141 3298 2862 
Q 3072 2584 2669 2484 
Q 3125 2378 3379 2068 
Q 3634 1759 3634 1313 
Q 3634 634 3220 271 
Q 2806 -91 2034 -91 
Q 1263 -91 848 271 
Q 434 634 434 1313 
Q 434 1759 690 2068 
Q 947 2378 1403 2484 
z
M 1172 3481 
Q 1172 3119 1398 2916 
Q 1625 2713 2034 2713 
Q 2441 2713 2670 2916 
Q 2900 3119 2900 3481 
Q 2900 3844 2670 4047 
Q 2441 4250 2034 4250 
Q 1625 4250 1398 4047 
Q 1172 3844 1172 3481 
z
" transform="scale(0.015625)"/>
       </defs>
       <use xlink:href="#DejaVuSans-30"/>
       <use xlink:href="#DejaVuSans-38" x="63.623047"/>
       <use xlink:href="#DejaVuSans-3a" x="127.246094"/>
       <use xlink:href="#DejaVuSans-30" x="160.9375"/>
       <use xlink:href="#DejaVuSans-30" x="224.560547"/>
      </g>
     </g>
    </g>
    <g id="xtick_10">
     <g id="line2d_10">
      <path d="M 301.226348 347.307508 
L 301.226348 22.318125 
" clip-path="url(#p668f101ba2)" style="fill: none; stroke-dasharray: 3.7,1.6; stroke-dashoffset: 0; stroke: #cccccc; stroke-opacity: 0.7"/>
     </g>
     <g id="text_10">
      <!-- 09:00 -->
      <g style="fill: #262626" transform="translate(292.164774 385.133432) rotate(-45) scale(0.11 -0.11)">
       <defs>
        <path id="DejaVuSans-39" d="M 703 97 
L 703 672 
Q 941 559 1184 500 
Q 1428 441 1663 441 
Q 2288 441 2617 861 
Q 2947 1281 2994 2138 
Q 2813 1869 2534 1725 
Q 2256 1581 1919 1581 
Q 1219 1581 811 2004 
Q 403 2428 403 3163 
Q 403 3881 828 4315 
Q 1253 4750 1959 4750 
Q 2769 4750 3195 4129 
Q 3622 3509 3622 2328 
Q 3622 1225 3098 567 
Q 2575 -91 1691 -91 
Q 1453 -91 1209 -44 
Q 966 3 703 97 
z
M 1959 2075 
Q 2384 2075 2632 2365 
Q 2881 2656 2881 3163 
Q 2881 3666 2632 3958 
Q 2384 4250 1959 4250 
Q 1534 4250 1286 3958 
Q 1038 3666 1038 3163 
Q 1038 2656 1286 2365 
Q 1534 2075 1959 2075 
z
" transform="scale(0.015625)"/>
       </defs>
       <use xlink:href="#DejaVuSans-30"/>
       <use xlink:href="#DejaVuSans-39" x="63.623047"/>
       <use xlink:href="#DejaVuSans-3a" x="127.246094"/>
       <use xlink:href="#DejaVuSans-30" x="160.9375"/>
       <use xlink:href="#DejaVuSans-30" x="224.560547"/>
      </g>
     </g>
    </g>
    <g id="xtick_11">
     <g id="line2d_11">
      <path d="M 328.772609 347.307508 
L 328.772609 22.318125 
" clip-path="url(#p668f101ba2)" style="fill: none; stroke-dasharray: 3.7,1.6; stroke-dashoffset: 0; stroke: #cccccc; stroke-opacity: 0.7"/>
     </g>
     <g id="text_11">
      <!-- 10:00 -->
      <g style="fill: #262626" transform="translate(319.711035 385.133432) rotate(-45) scale(0.11 -0.11)">
       <use xlink:href="#DejaVuSans-31"/>
       <use xlink:href="#DejaVuSans-30" x="63.623047"/>
       <use xlink:href="#DejaVuSans-3a" x="127.246094"/>
       <use xlink:href="#DejaVuSans-30" x="160.9375"/>
       <use xlink:href="#DejaVuSans-30" x="224.560547"/>
      </g>
     </g>
    </g>
    <g id="xtick_12">
     <g id="line2d_12">
      <path d="M 356.31887 347.307508 
L 356.31887 22.318125 
" clip-path="url(#p668f101ba2)" style="fill: none; stroke-dasharray: 3.7,1.6; stroke-dashoffset: 0; stroke: #cccccc; stroke-opacity: 0.7"/>
     </g>
     <g id="text_12">
      <!-- 11:00 -->
      <g style="fill: #262626" transform="translate(347.257296 385.133432) rotate(-45) scale(0.11 -0.11)">
       <use xlink:href="#DejaVuSans-31"/>
       <use xlink:href="#DejaVuSans-31" x="63.623047"/>
       <use xlink:href="#DejaVuSans-3a" x="127.246094"/>
       <use xlink:href="#DejaVuSans-30" x="160.9375"/>
       <use xlink:href="#DejaVuSans-30" x="224.560547"/>
      </g>
     </g>
    </g>
    <g id="xtick_13">
     <g id="line2d_13">
      <path d="M 383.86513 347.307508 
L 383.86513 22.318125 
" clip-path="url(#p668f101ba2)" style="fill: none; stroke-dasharray: 3.7,1.6; stroke-dashoffset: 0; stroke: #cccccc; stroke-opacity: 0.7"/>
     </g>
     <g id="text_13">
      <!-- 12:00 -->
      <g style="fill: #262626" transform="translate(374.803557 385.133432) rotate(-45) scale(0.11 -0.11)">
       <use xlink:href="#DejaVuSans-31"/>
       <use xlink:href="#DejaVuSans-32" x="63.623047"/>
       <use xlink:href="#DejaVuSans-3a" x="127.246094"/>
       <use xlink:href="#DejaVuSans-30" x="160.9375"/>
       <use xlink:href="#DejaVuSans-30" x="224.560547"/>
      </g>
     </g>
    </g>
    <g id="xtick_14">
     <g id="line2d_14">
      <path d="M 411.411391 347.307508 
L 411.411391 22.318125 
" clip-path="url(#p668f101ba2)" style="fill: none; stroke-dasharray: 3.7,1.6; stroke-dashoffset: 0; stroke: #cccccc; stroke-opacity: 0.7"/>
     </g>
     <g id="text_14">
      <!-- 13:00 -->
      <g style="fill: #262626" transform="translate(402.349818 385.133432) rotate(-45) scale(0.11 -0.11)">
       <use xlink:href="#DejaVuSans-31"/>
       <use xlink:href="#DejaVuSans-33" x="63.623047"/>
       <use xlink:href="#DejaVuSans-3a" x="127.246094"/>
       <use xlink:href="#DejaVuSans-30" x="160.9375"/>
       <use xlink:href="#DejaVuSans-30" x="224.560547"/>
      </g>
     </g>
    </g>
    <g id="xtick_15">
     <g id="line2d_15">
      <path d="M 438.957652 347.307508 
L 438.957652 22.318125 
" clip-path="url(#p668f101ba2)" style="fill: none; stroke-dasharray: 3.7,1.6; stroke-dashoffset: 0; stroke: #cccccc; stroke-opacity: 0.7"/>
     </g>
     <g id="text_15">
      <!-- 14:00 -->
      <g style="fill: #262626" transform="translate(429.896079 385.133432) rotate(-45) scale(0.11 -0.11)">
       <use xlink:href="#DejaVuSans-31"/>
       <use xlink:href="#DejaVuSans-34" x="63.623047"/>
       <use xlink:href="#DejaVuSans-3a" x="127.246094"/>
       <use xlink:href="#DejaVuSans-30" x="160.9375"/>
       <use xlink:href="#DejaVuSans-30" x="224.560547"/>
      </g>
     </g>
    </g>
    <g id="xtick_16">
     <g id="line2d_16">
      <path d="M 466.503913 347.307508 
L 466.503913 22.318125 
" clip-path="url(#p668f101ba2)" style="fill: none; stroke-dasharray: 3.7,1.6; stroke-dashoffset: 0; stroke: #cccccc; stroke-opacity: 0.7"/>
     </g>
     <g id="text_16">
      <!-- 15:00 -->
      <g style="fill: #262626" transform="translate(457.44234 385.133432) rotate(-45) scale(0.11 -0.11)">
       <use xlink:href="#DejaVuSans-31"/>
       <use xlink:href="#DejaVuSans-35" x="63.623047"/>
       <use xlink:href="#DejaVuSans-3a" x="127.246094"/>
       <use xlink:href="#DejaVuSans-30" x="160.9375"/>
       <use xlink:href="#DejaVuSans-30" x="224.560547"/>
      </g>
     </g>
    </g>
    <g id="xtick_17">
     <g id="line2d_17">
      <path d="M 494.050174 347.307508 
L 494.050174 22.318125 
" clip-path="url(#p668f101ba2)" style="fill: none; stroke-dasharray: 3.7,1.6; stroke-dashoffset: 0; stroke: #cccccc; stroke-opacity: 0.7"/>
     </g>
     <g id="text_17">
      <!-- 16:00 -->
      <g style="fill: #262626" transform="translate(484.988601 385.133432) rotate(-45) scale(0.11 -0.11)">
       <use xlink:href="#DejaVuSans-31"/>
       <use xlink:href="#DejaVuSans-36" x="63.623047"/>
       <use xlink:href="#DejaVuSans-3a" x="127.246094"/>
       <use xlink:href="#DejaVuSans-30" x="160.9375"/>
       <use xlink:href="#DejaVuSans-30" x="224.560547"/>
      </g>
     </g>
    </g>
    <g id="xtick_18">
     <g id="line2d_18">
      <path d="M 521.596435 347.307508 
L 521.596435 22.318125 
" clip-path="url(#p668f101ba2)" style="fill: none; stroke-dasharray: 3.7,1.6; stroke-dashoffset: 0; stroke: #cccccc; stroke-opacity: 0.7"/>
     </g>
     <g id="text_18">
      <!-- 17:00 -->
      <g style="fill: #262626" transform="translate(512.534861 385.133432) rotate(-45) scale(0.11 -0.11)">
       <use xlink:href="#DejaVuSans-31"/>
       <use xlink:href="#DejaVuSans-37" x="63.623047"/>
       <use xlink:href="#DejaVuSans-3a" x="127.246094"/>
       <use xlink:href="#DejaVuSans-30" x="160.9375"/>
       <use xlink:href="#DejaVuSans-30" x="224.560547"/>
      </g>
     </g>
    </g>
    <g id="xtick_19">
     <g id="line2d_19">
      <path d="M 549.142696 347.307508 
L 549.142696 22.318125 
" clip-path="url(#p668f101ba2)" style="fill: none; stroke-dasharray: 3.7,1.6; stroke-dashoffset: 0; stroke: #cccccc; stroke-opacity: 0.7"/>
     </g>
     <g id="text_19">
      <!-- 18:00 -->
      <g style="fill: #262626" transform="translate(540.081122 385.133432) rotate(-45) scale(0.11 -0.11)">
       <use xlink:href="#DejaVuSans-31"/>
       <use xlink:href="#DejaVuSans-38" x="63.623047"/>
       <use xlink:href="#DejaVuSans-3a" x="127.246094"/>
       <use xlink:href="#DejaVuSans-30" x="160.9375"/>
       <use xlink:href="#DejaVuSans-30" x="224.560547"/>
      </g>
     </g>
    </g>
    <g id="xtick_20">
     <g id="line2d_20">
      <path d="M 576.688957 347.307508 
L 576.688957 22.318125 
" clip-path="url(#p668f101ba2)" style="fill: none; stroke-dasharray: 3.7,1.6; stroke-dashoffset: 0; stroke: #cccccc; stroke-opacity: 0.7"/>
     </g>
     <g id="text_20">
      <!-- 19:00 -->
      <g style="fill: #262626" transform="translate(567.627383 385.133432) rotate(-45) scale(0.11 -0.11)">
       <use xlink:href="#DejaVuSans-31"/>
       <use xlink:href="#DejaVuSans-39" x="63.623047"/>
       <use xlink:href="#DejaVuSans-3a" x="127.246094"/>
       <use xlink:href="#DejaVuSans-30" x="160.9375"/>
       <use xlink:href="#DejaVuSans-30" x="224.560547"/>
      </g>
     </g>
    </g>
    <g id="xtick_21">
     <g id="line2d_21">
      <path d="M 604.235217 347.307508 
L 604.235217 22.318125 
" clip-path="url(#p668f101ba2)" style="fill: none; stroke-dasharray: 3.7,1.6; stroke-dashoffset: 0; stroke: #cccccc; stroke-opacity: 0.7"/>
     </g>
     <g id="text_21">
      <!-- 20:00 -->
      <g style="fill: #262626" transform="translate(595.173644 385.133432) rotate(-45) scale(0.11 -0.11)">
       <use xlink:href="#DejaVuSans-32"/>
       <use xlink:href="#DejaVuSans-30" x="63.623047"/>
       <use xlink:href="#DejaVuSans-3a" x="127.246094"/>
       <use xlink:href="#DejaVuSans-30" x="160.9375"/>
       <use xlink:href="#DejaVuSans-30" x="224.560547"/>
      </g>
     </g>
    </g>
    <g id="xtick_22">
     <g id="line2d_22">
      <path d="M 631.781478 347.307508 
L 631.781478 22.318125 
" clip-path="url(#p668f101ba2)" style="fill: none; stroke-dasharray: 3.7,1.6; stroke-dashoffset: 0; stroke: #cccccc; stroke-opacity: 0.7"/>
     </g>
     <g id="text_22">
      <!-- 21:00 -->
      <g style="fill: #262626" transform="translate(622.719905 385.133432) rotate(-45) scale(0.11 -0.11)">
       <use xlink:href="#DejaVuSans-32"/>
       <use xlink:href="#DejaVuSans-31" x="63.623047"/>
       <use xlink:href="#DejaVuSans-3a" x="127.246094"/>
       <use xlink:href="#DejaVuSans-30" x="160.9375"/>
       <use xlink:href="#DejaVuSans-30" x="224.560547"/>
      </g>
     </g>
    </g>
    <g id="xtick_23">
     <g id="line2d_23">
      <path d="M 659.327739 347.307508 
L 659.327739 22.318125 
" clip-path="url(#p668f101ba2)" style="fill: none; stroke-dasharray: 3.7,1.6; stroke-dashoffset: 0; stroke: #cccccc; stroke-opacity: 0.7"/>
     </g>
     <g id="text_23">
      <!-- 22:00 -->
      <g style="fill: #262626" transform="translate(650.266166 385.133432) rotate(-45) scale(0.11 -0.11)">
       <use xlink:href="#DejaVuSans-32"/>
       <use xlink:href="#DejaVuSans-32" x="63.623047"/>
       <use xlink:href="#DejaVuSans-3a" x="127.246094"/>
       <use xlink:href="#DejaVuSans-30" x="160.9375"/>
       <use xlink:href="#DejaVuSans-30" x="224.560547"/>
      </g>
     </g>
    </g>
    <g id="xtick_24">
     <g id="line2d_24">
      <path d="M 686.874 347.307508 
L 686.874 22.318125 
" clip-path="url(#p668f101ba2)" style="fill: none; stroke-dasharray: 3.7,1.6; stroke-dashoffset: 0; stroke: #cccccc; stroke-opacity: 0.7"/>
     </g>
     <g id="text_24">
      <!-- 23:00 -->
      <g style="fill: #262626" transform="translate(677.812427 385.133432) rotate(-45) scale(0.11 -0.11)">
       <use xlink:href="#DejaVuSans-32"/>
       <use xlink:href="#DejaVuSans-33" x="63.623047"/>
       <use xlink:href="#DejaVuSans-3a" x="127.246094"/>
       <use xlink:href="#DejaVuSans-30" x="160.9375"/>
       <use xlink:href="#DejaVuSans-30" x="224.560547"/>
      </g>
     </g>
    </g>
    <g id="text_25">
     <!-- Time of Day (HH:MM) (UTC) -->
     <g style="fill: #262626" transform="translate(287.496375 399.869175) scale(0.12 -0.12)">
      <defs>
       <path id="DejaVuSans-54" d="M -19 4666 
L 3928 4666 
L 3928 4134 
L 2272 4134 
L 2272 0 
L 1638 0 
L 1638 4134 
L -19 4134 
L -19 4666 
z
" transform="scale(0.015625)"/>
       <path id="DejaVuSans-69" d="M 603 3500 
L 1178 3500 
L 1178 0 
L 603 0 
L 603 3500 
z
M 603 4863 
L 1178 4863 
L 1178 4134 
L 603 4134 
L 603 4863 
z
" transform="scale(0.015625)"/>
       <path id="DejaVuSans-6d" d="M 3328 2828 
Q 3544 3216 3844 3400 
Q 4144 3584 4550 3584 
Q 5097 3584 5394 3201 
Q 5691 2819 5691 2113 
L 5691 0 
L 5113 0 
L 5113 2094 
Q 5113 2597 4934 2840 
Q 4756 3084 4391 3084 
Q 3944 3084 3684 2787 
Q 3425 2491 3425 1978 
L 3425 0 
L 2847 0 
L 2847 2094 
Q 2847 2600 2669 2842 
Q 2491 3084 2119 3084 
Q 1678 3084 1418 2786 
Q 1159 2488 1159 1978 
L 1159 0 
L 581 0 
L 581 3500 
L 1159 3500 
L 1159 2956 
Q 1356 3278 1631 3431 
Q 1906 3584 2284 3584 
Q 2666 3584 2933 3390 
Q 3200 3197 3328 2828 
z
" transform="scale(0.015625)"/>
       <path id="DejaVuSans-65" d="M 3597 1894 
L 3597 1613 
L 953 1613 
Q 991 1019 1311 708 
Q 1631 397 2203 397 
Q 2534 397 2845 478 
Q 3156 559 3463 722 
L 3463 178 
Q 3153 47 2828 -22 
Q 2503 -91 2169 -91 
Q 1331 -91 842 396 
Q 353 884 353 1716 
Q 353 2575 817 3079 
Q 1281 3584 2069 3584 
Q 2775 3584 3186 3129 
Q 3597 2675 3597 1894 
z
M 3022 2063 
Q 3016 2534 2758 2815 
Q 2500 3097 2075 3097 
Q 1594 3097 1305 2825 
Q 1016 2553 972 2059 
L 3022 2063 
z
" transform="scale(0.015625)"/>
       <path id="DejaVuSans-20" transform="scale(0.015625)"/>
       <path id="DejaVuSans-6f" d="M 1959 3097 
Q 1497 3097 1228 2736 
Q 959 2375 959 1747 
Q 959 1119 1226 758 
Q 1494 397 1959 397 
Q 2419 397 2687 759 
Q 2956 1122 2956 1747 
Q 2956 2369 2687 2733 
Q 2419 3097 1959 3097 
z
M 1959 3584 
Q 2709 3584 3137 3096 
Q 3566 2609 3566 1747 
Q 3566 888 3137 398 
Q 2709 -91 1959 -91 
Q 1206 -91 779 398 
Q 353 888 353 1747 
Q 353 2609 779 3096 
Q 1206 3584 1959 3584 
z
" transform="scale(0.015625)"/>
       <path id="DejaVuSans-66" d="M 2375 4863 
L 2375 4384 
L 1825 4384 
Q 1516 4384 1395 4259 
Q 1275 4134 1275 3809 
L 1275 3500 
L 2222 3500 
L 2222 3053 
L 1275 3053 
L 1275 0 
L 697 0 
L 697 3053 
L 147 3053 
L 147 3500 
L 697 3500 
L 697 3744 
Q 697 4328 969 4595 
Q 1241 4863 1831 4863 
L 2375 4863 
z
" transform="scale(0.015625)"/>
       <path id="DejaVuSans-44" d="M 1259 4147 
L 1259 519 
L 2022 519 
Q 2988 519 3436 956 
Q 3884 1394 3884 2338 
Q 3884 3275 3436 3711 
Q 2988 4147 2022 4147 
L 1259 4147 
z
M 628 4666 
L 1925 4666 
Q 3281 4666 3915 4102 
Q 4550 3538 4550 2338 
Q 4550 1131 3912 565 
Q 3275 0 1925 0 
L 628 0 
L 628 4666 
z
" transform="scale(0.015625)"/>
       <path id="DejaVuSans-61" d="M 2194 1759 
Q 1497 1759 1228 1600 
Q 959 1441 959 1056 
Q 959 750 1161 570 
Q 1363 391 1709 391 
Q 2188 391 2477 730 
Q 2766 1069 2766 1631 
L 2766 1759 
L 2194 1759 
z
M 3341 1997 
L 3341 0 
L 2766 0 
L 2766 531 
Q 2569 213 2275 61 
Q 1981 -91 1556 -91 
Q 1019 -91 701 211 
Q 384 513 384 1019 
Q 384 1609 779 1909 
Q 1175 2209 1959 2209 
L 2766 2209 
L 2766 2266 
Q 2766 2663 2505 2880 
Q 2244 3097 1772 3097 
Q 1472 3097 1187 3025 
Q 903 2953 641 2809 
L 641 3341 
Q 956 3463 1253 3523 
Q 1550 3584 1831 3584 
Q 2591 3584 2966 3190 
Q 3341 2797 3341 1997 
z
" transform="scale(0.015625)"/>
       <path id="DejaVuSans-79" d="M 2059 -325 
Q 1816 -950 1584 -1140 
Q 1353 -1331 966 -1331 
L 506 -1331 
L 506 -850 
L 844 -850 
Q 1081 -850 1212 -737 
Q 1344 -625 1503 -206 
L 1606 56 
L 191 3500 
L 800 3500 
L 1894 763 
L 2988 3500 
L 3597 3500 
L 2059 -325 
z
" transform="scale(0.015625)"/>
       <path id="DejaVuSans-28" d="M 1984 4856 
Q 1566 4138 1362 3434 
Q 1159 2731 1159 2009 
Q 1159 1288 1364 580 
Q 1569 -128 1984 -844 
L 1484 -844 
Q 1016 -109 783 600 
Q 550 1309 550 2009 
Q 550 2706 781 3412 
Q 1013 4119 1484 4856 
L 1984 4856 
z
" transform="scale(0.015625)"/>
       <path id="DejaVuSans-48" d="M 628 4666 
L 1259 4666 
L 1259 2753 
L 3553 2753 
L 3553 4666 
L 4184 4666 
L 4184 0 
L 3553 0 
L 3553 2222 
L 1259 2222 
L 1259 0 
L 628 0 
L 628 4666 
z
" transform="scale(0.015625)"/>
       <path id="DejaVuSans-4d" d="M 628 4666 
L 1569 4666 
L 2759 1491 
L 3956 4666 
L 4897 4666 
L 4897 0 
L 4281 0 
L 4281 4097 
L 3078 897 
L 2444 897 
L 1241 4097 
L 1241 0 
L 628 0 
L 628 4666 
z
" transform="scale(0.015625)"/>
       <path id="DejaVuSans-29" d="M 513 4856 
L 1013 4856 
Q 1481 4119 1714 3412 
Q 1947 2706 1947 2009 
Q 1947 1309 1714 600 
Q 1481 -109 1013 -844 
L 513 -844 
Q 928 -128 1133 580 
Q 1338 1288 1338 2009 
Q 1338 2731 1133 3434 
Q 928 4138 513 4856 
z
" transform="scale(0.015625)"/>
       <path id="DejaVuSans-55" d="M 556 4666 
L 1191 4666 
L 1191 1831 
Q 1191 1081 1462 751 
Q 1734 422 2344 422 
Q 2950 422 3222 751 
Q 3494 1081 3494 1831 
L 3494 4666 
L 4128 4666 
L 4128 1753 
Q 4128 841 3676 375 
Q 3225 -91 2344 -91 
Q 1459 -91 1007 375 
Q 556 841 556 1753 
L 556 4666 
z
" transform="scale(0.015625)"/>
       <path id="DejaVuSans-43" d="M 4122 4306 
L 4122 3641 
Q 3803 3938 3442 4084 
Q 3081 4231 2675 4231 
Q 1875 4231 1450 3742 
Q 1025 3253 1025 2328 
Q 1025 1406 1450 917 
Q 1875 428 2675 428 
Q 3081 428 3442 575 
Q 3803 722 4122 1019 
L 4122 359 
Q 3791 134 3420 21 
Q 3050 -91 2638 -91 
Q 1578 -91 968 557 
Q 359 1206 359 2328 
Q 359 3453 968 4101 
Q 1578 4750 2638 4750 
Q 3056 4750 3426 4639 
Q 3797 4528 4122 4306 
z
" transform="scale(0.015625)"/>
      </defs>
      <use xlink:href="#DejaVuSans-54"/>
      <use xlink:href="#DejaVuSans-69" x="57.958984"/>
      <use xlink:href="#DejaVuSans-6d" x="85.742188"/>
      <use xlink:href="#DejaVuSans-65" x="183.154297"/>
      <use xlink:href="#DejaVuSans-20" x="244.677734"/>
      <use xlink:href="#DejaVuSans-6f" x="276.464844"/>
      <use xlink:href="#DejaVuSans-66" x="337.646484"/>
      <use xlink:href="#DejaVuSans-20" x="372.851562"/>
      <use xlink:href="#DejaVuSans-44" x="404.638672"/>
      <use xlink:href="#DejaVuSans-61" x="481.640625"/>
      <use xlink:href="#DejaVuSans-79" x="542.919922"/>
      <use xlink:href="#DejaVuSans-20" x="602.099609"/>
      <use xlink:href="#DejaVuSans-28" x="633.886719"/>
      <use xlink:href="#DejaVuSans-48" x="672.900391"/>
      <use xlink:href="#DejaVuSans-48" x="748.095703"/>
      <use xlink:href="#DejaVuSans-3a" x="823.291016"/>
      <use xlink:href="#DejaVuSans-4d" x="856.982422"/>
      <use xlink:href="#DejaVuSans-4d" x="943.261719"/>
      <use xlink:href="#DejaVuSans-29" x="1029.541016"/>
      <use xlink:href="#DejaVuSans-20" x="1068.554688"/>
      <use xlink:href="#DejaVuSans-28" x="1100.341797"/>
      <use xlink:href="#DejaVuSans-55" x="1139.355469"/>
      <use xlink:href="#DejaVuSans-54" x="1212.548828"/>
      <use xlink:href="#DejaVuSans-43" x="1267.757812"/>
      <use xlink:href="#DejaVuSans-29" x="1337.582031"/>
     </g>
    </g>
   </g>
   <g id="matplotlib.axis_2">
    <g id="ytick_1">
     <g id="line2d_25">
      <path d="M 53.31 342.648172 
L 686.874 342.648172 
" clip-path="url(#p668f101ba2)" style="fill: none; stroke-dasharray: 3.7,1.6; stroke-dashoffset: 0; stroke: #cccccc; stroke-opacity: 0.7"/>
     </g>
     <g id="text_26">
      <!-- 0 -->
      <g style="fill: #262626" transform="translate(36.81125 346.827312) scale(0.11 -0.11)">
       <use xlink:href="#DejaVuSans-30"/>
      </g>
     </g>
    </g>
    <g id="ytick_2">
     <g id="line2d_26">
      <path d="M 53.31 298.836375 
L 686.874 298.836375 
" clip-path="url(#p668f101ba2)" style="fill: none; stroke-dasharray: 3.7,1.6; stroke-dashoffset: 0; stroke: #cccccc; stroke-opacity: 0.7"/>
     </g>
     <g id="text_27">
      <!-- 100 -->
      <g style="fill: #262626" transform="translate(22.81375 303.015515) scale(0.11 -0.11)">
       <use xlink:href="#DejaVuSans-31"/>
       <use xlink:href="#DejaVuSans-30" x="63.623047"/>
       <use xlink:href="#DejaVuSans-30" x="127.246094"/>
      </g>
     </g>
    </g>
    <g id="ytick_3">
     <g id="line2d_27">
      <path d="M 53.31 255.024577 
L 686.874 255.024577 
" clip-path="url(#p668f101ba2)" style="fill: none; stroke-dasharray: 3.7,1.6; stroke-dashoffset: 0; stroke: #cccccc; stroke-opacity: 0.7"/>
     </g>
     <g id="text_28">
      <!-- 200 -->
      <g style="fill: #262626" transform="translate(22.81375 259.203718) scale(0.11 -0.11)">
       <use xlink:href="#DejaVuSans-32"/>
       <use xlink:href="#DejaVuSans-30" x="63.623047"/>
       <use xlink:href="#DejaVuSans-30" x="127.246094"/>
      </g>
     </g>
    </g>
    <g id="ytick_4">
     <g id="line2d_28">
      <path d="M 53.31 211.21278 
L 686.874 211.21278 
" clip-path="url(#p668f101ba2)" style="fill: none; stroke-dasharray: 3.7,1.6; stroke-dashoffset: 0; stroke: #cccccc; stroke-opacity: 0.7"/>
     </g>
     <g id="text_29">
      <!-- 300 -->
      <g style="fill: #262626" transform="translate(22.81375 215.391921) scale(0.11 -0.11)">
       <use xlink:href="#DejaVuSans-33"/>
       <use xlink:href="#DejaVuSans-30" x="63.623047"/>
       <use xlink:href="#DejaVuSans-30" x="127.246094"/>
      </g>
     </g>
    </g>
    <g id="ytick_5">
     <g id="line2d_29">
      <path d="M 53.31 167.400983 
L 686.874 167.400983 
" clip-path="url(#p668f101ba2)" style="fill: none; stroke-dasharray: 3.7,1.6; stroke-dashoffset: 0; stroke: #cccccc; stroke-opacity: 0.7"/>
     </g>
     <g id="text_30">
      <!-- 400 -->
      <g style="fill: #262626" transform="translate(22.81375 171.580123) scale(0.11 -0.11)">
       <use xlink:href="#DejaVuSans-34"/>
       <use xlink:href="#DejaVuSans-30" x="63.623047"/>
       <use xlink:href="#DejaVuSans-30" x="127.246094"/>
      </g>
     </g>
    </g>
    <g id="ytick_6">
     <g id="line2d_30">
      <path d="M 53.31 123.589186 
L 686.874 123.589186 
" clip-path="url(#p668f101ba2)" style="fill: none; stroke-dasharray: 3.7,1.6; stroke-dashoffset: 0; stroke: #cccccc; stroke-opacity: 0.7"/>
     </g>
     <g id="text_31">
      <!-- 500 -->
      <g style="fill: #262626" transform="translate(22.81375 127.768326) scale(0.11 -0.11)">
       <use xlink:href="#DejaVuSans-35"/>
       <use xlink:href="#DejaVuSans-30" x="63.623047"/>
       <use xlink:href="#DejaVuSans-30" x="127.246094"/>
      </g>
     </g>
    </g>
    <g id="ytick_7">
     <g id="line2d_31">
      <path d="M 53.31 79.777388 
L 686.874 79.777388 
" clip-path="url(#p668f101ba2)" style="fill: none; stroke-dasharray: 3.7,1.6; stroke-dashoffset: 0; stroke: #cccccc; stroke-opacity: 0.7"/>
     </g>
     <g id="text_32">
      <!-- 600 -->
      <g style="fill: #262626" transform="translate(22.81375 83.956529) scale(0.11 -0.11)">
       <use xlink:href="#DejaVuSans-36"/>
       <use xlink:href="#DejaVuSans-30" x="63.623047"/>
       <use xlink:href="#DejaVuSans-30" x="127.246094"/>
      </g>
     </g>
    </g>
    <g id="ytick_8">
     <g id="line2d_32">
      <path d="M 53.31 35.965591 
L 686.874 35.965591 
" clip-path="url(#p668f101ba2)" style="fill: none; stroke-dasharray: 3.7,1.6; stroke-dashoffset: 0; stroke: #cccccc; stroke-opacity: 0.7"/>
     </g>
     <g id="text_33">
      <!-- 700 -->
      <g style="fill: #262626" transform="translate(22.81375 40.144732) scale(0.11 -0.11)">
       <use xlink:href="#DejaVuSans-37"/>
       <use xlink:href="#DejaVuSans-30" x="63.623047"/>
       <use xlink:href="#DejaVuSans-30" x="127.246094"/>
      </g>
     </g>
    </g>
    <g id="text_34">
     <!-- Average Carbon Intensity (gCO₂eq/kWh) -->
     <g style="fill: #262626" transform="translate(16.318125 305.444692) rotate(-90) scale(0.12 -0.12)">
      <defs>
       <path id="DejaVuSans-41" d="M 2188 4044 
L 1331 1722 
L 3047 1722 
L 2188 4044 
z
M 1831 4666 
L 2547 4666 
L 4325 0 
L 3669 0 
L 3244 1197 
L 1141 1197 
L 716 0 
L 50 0 
L 1831 4666 
z
" transform="scale(0.015625)"/>
       <path id="DejaVuSans-76" d="M 191 3500 
L 800 3500 
L 1894 563 
L 2988 3500 
L 3597 3500 
L 2284 0 
L 1503 0 
L 191 3500 
z
" transform="scale(0.015625)"/>
       <path id="DejaVuSans-72" d="M 2631 2963 
Q 2534 3019 2420 3045 
Q 2306 3072 2169 3072 
Q 1681 3072 1420 2755 
Q 1159 2438 1159 1844 
L 1159 0 
L 581 0 
L 581 3500 
L 1159 3500 
L 1159 2956 
Q 1341 3275 1631 3429 
Q 1922 3584 2338 3584 
Q 2397 3584 2469 3576 
Q 2541 3569 2628 3553 
L 2631 2963 
z
" transform="scale(0.015625)"/>
       <path id="DejaVuSans-67" d="M 2906 1791 
Q 2906 2416 2648 2759 
Q 2391 3103 1925 3103 
Q 1463 3103 1205 2759 
Q 947 2416 947 1791 
Q 947 1169 1205 825 
Q 1463 481 1925 481 
Q 2391 481 2648 825 
Q 2906 1169 2906 1791 
z
M 3481 434 
Q 3481 -459 3084 -895 
Q 2688 -1331 1869 -1331 
Q 1566 -1331 1297 -1286 
Q 1028 -1241 775 -1147 
L 775 -588 
Q 1028 -725 1275 -790 
Q 1522 -856 1778 -856 
Q 2344 -856 2625 -561 
Q 2906 -266 2906 331 
L 2906 616 
Q 2728 306 2450 153 
Q 2172 0 1784 0 
Q 1141 0 747 490 
Q 353 981 353 1791 
Q 353 2603 747 3093 
Q 1141 3584 1784 3584 
Q 2172 3584 2450 3431 
Q 2728 3278 2906 2969 
L 2906 3500 
L 3481 3500 
L 3481 434 
z
" transform="scale(0.015625)"/>
       <path id="DejaVuSans-62" d="M 3116 1747 
Q 3116 2381 2855 2742 
Q 2594 3103 2138 3103 
Q 1681 3103 1420 2742 
Q 1159 2381 1159 1747 
Q 1159 1113 1420 752 
Q 1681 391 2138 391 
Q 2594 391 2855 752 
Q 3116 1113 3116 1747 
z
M 1159 2969 
Q 1341 3281 1617 3432 
Q 1894 3584 2278 3584 
Q 2916 3584 3314 3078 
Q 3713 2572 3713 1747 
Q 3713 922 3314 415 
Q 2916 -91 2278 -91 
Q 1894 -91 1617 61 
Q 1341 213 1159 525 
L 1159 0 
L 581 0 
L 581 4863 
L 1159 4863 
L 1159 2969 
z
" transform="scale(0.015625)"/>
       <path id="DejaVuSans-6e" d="M 3513 2113 
L 3513 0 
L 2938 0 
L 2938 2094 
Q 2938 2591 2744 2837 
Q 2550 3084 2163 3084 
Q 1697 3084 1428 2787 
Q 1159 2491 1159 1978 
L 1159 0 
L 581 0 
L 581 3500 
L 1159 3500 
L 1159 2956 
Q 1366 3272 1645 3428 
Q 1925 3584 2291 3584 
Q 2894 3584 3203 3211 
Q 3513 2838 3513 2113 
z
" transform="scale(0.015625)"/>
       <path id="DejaVuSans-49" d="M 628 4666 
L 1259 4666 
L 1259 0 
L 628 0 
L 628 4666 
z
" transform="scale(0.015625)"/>
       <path id="DejaVuSans-74" d="M 1172 4494 
L 1172 3500 
L 2356 3500 
L 2356 3053 
L 1172 3053 
L 1172 1153 
Q 1172 725 1289 603 
Q 1406 481 1766 481 
L 2356 481 
L 2356 0 
L 1766 0 
Q 1100 0 847 248 
Q 594 497 594 1153 
L 594 3053 
L 172 3053 
L 172 3500 
L 594 3500 
L 594 4494 
L 1172 4494 
z
" transform="scale(0.015625)"/>
       <path id="DejaVuSans-73" d="M 2834 3397 
L 2834 2853 
Q 2591 2978 2328 3040 
Q 2066 3103 1784 3103 
Q 1356 3103 1142 2972 
Q 928 2841 928 2578 
Q 928 2378 1081 2264 
Q 1234 2150 1697 2047 
L 1894 2003 
Q 2506 1872 2764 1633 
Q 3022 1394 3022 966 
Q 3022 478 2636 193 
Q 2250 -91 1575 -91 
Q 1294 -91 989 -36 
Q 684 19 347 128 
L 347 722 
Q 666 556 975 473 
Q 1284 391 1588 391 
Q 1994 391 2212 530 
Q 2431 669 2431 922 
Q 2431 1156 2273 1281 
Q 2116 1406 1581 1522 
L 1381 1569 
Q 847 1681 609 1914 
Q 372 2147 372 2553 
Q 372 3047 722 3315 
Q 1072 3584 1716 3584 
Q 2034 3584 2315 3537 
Q 2597 3491 2834 3397 
z
" transform="scale(0.015625)"/>
       <path id="DejaVuSans-4f" d="M 2522 4238 
Q 1834 4238 1429 3725 
Q 1025 3213 1025 2328 
Q 1025 1447 1429 934 
Q 1834 422 2522 422 
Q 3209 422 3611 934 
Q 4013 1447 4013 2328 
Q 4013 3213 3611 3725 
Q 3209 4238 2522 4238 
z
M 2522 4750 
Q 3503 4750 4090 4092 
Q 4678 3434 4678 2328 
Q 4678 1225 4090 567 
Q 3503 -91 2522 -91 
Q 1538 -91 948 565 
Q 359 1222 359 2328 
Q 359 3434 948 4092 
Q 1538 4750 2522 4750 
z
" transform="scale(0.015625)"/>
       <path id="DejaVuSans-2082" d="M 838 332 
L 2163 332 
L 2163 -24 
L 294 -24 
L 294 319 
Q 400 416 597 591 
Q 1672 1544 1672 1838 
Q 1672 2044 1509 2170 
Q 1347 2297 1081 2297 
Q 919 2297 728 2242 
Q 538 2188 313 2079 
L 313 2463 
Q 553 2551 761 2594 
Q 969 2638 1147 2638 
Q 1600 2638 1872 2432 
Q 2144 2226 2144 1888 
Q 2144 1454 1109 566 
Q 934 416 838 332 
z
" transform="scale(0.015625)"/>
       <path id="DejaVuSans-71" d="M 947 1747 
Q 947 1113 1208 752 
Q 1469 391 1925 391 
Q 2381 391 2643 752 
Q 2906 1113 2906 1747 
Q 2906 2381 2643 2742 
Q 2381 3103 1925 3103 
Q 1469 3103 1208 2742 
Q 947 2381 947 1747 
z
M 2906 525 
Q 2725 213 2448 61 
Q 2172 -91 1784 -91 
Q 1150 -91 751 415 
Q 353 922 353 1747 
Q 353 2572 751 3078 
Q 1150 3584 1784 3584 
Q 2172 3584 2448 3432 
Q 2725 3281 2906 2969 
L 2906 3500 
L 3481 3500 
L 3481 -1331 
L 2906 -1331 
L 2906 525 
z
" transform="scale(0.015625)"/>
       <path id="DejaVuSans-2f" d="M 1625 4666 
L 2156 4666 
L 531 -594 
L 0 -594 
L 1625 4666 
z
" transform="scale(0.015625)"/>
       <path id="DejaVuSans-6b" d="M 581 4863 
L 1159 4863 
L 1159 1991 
L 2875 3500 
L 3609 3500 
L 1753 1863 
L 3688 0 
L 2938 0 
L 1159 1709 
L 1159 0 
L 581 0 
L 581 4863 
z
" transform="scale(0.015625)"/>
       <path id="DejaVuSans-57" d="M 213 4666 
L 850 4666 
L 1831 722 
L 2809 4666 
L 3519 4666 
L 4500 722 
L 5478 4666 
L 6119 4666 
L 4947 0 
L 4153 0 
L 3169 4050 
L 2175 0 
L 1381 0 
L 213 4666 
z
" transform="scale(0.015625)"/>
       <path id="DejaVuSans-68" d="M 3513 2113 
L 3513 0 
L 2938 0 
L 2938 2094 
Q 2938 2591 2744 2837 
Q 2550 3084 2163 3084 
Q 1697 3084 1428 2787 
Q 1159 2491 1159 1978 
L 1159 0 
L 581 0 
L 581 4863 
L 1159 4863 
L 1159 2956 
Q 1366 3272 1645 3428 
Q 1925 3584 2291 3584 
Q 2894 3584 3203 3211 
Q 3513 2838 3513 2113 
z
" transform="scale(0.015625)"/>
      </defs>
      <use xlink:href="#DejaVuSans-41"/>
      <use xlink:href="#DejaVuSans-76" x="62.533203"/>
      <use xlink:href="#DejaVuSans-65" x="121.712891"/>
      <use xlink:href="#DejaVuSans-72" x="183.236328"/>
      <use xlink:href="#DejaVuSans-61" x="224.349609"/>
      <use xlink:href="#DejaVuSans-67" x="285.628906"/>
      <use xlink:href="#DejaVuSans-65" x="349.105469"/>
      <use xlink:href="#DejaVuSans-20" x="410.628906"/>
      <use xlink:href="#DejaVuSans-43" x="442.416016"/>
      <use xlink:href="#DejaVuSans-61" x="512.240234"/>
      <use xlink:href="#DejaVuSans-72" x="573.519531"/>
      <use xlink:href="#DejaVuSans-62" x="614.632812"/>
      <use xlink:href="#DejaVuSans-6f" x="678.109375"/>
      <use xlink:href="#DejaVuSans-6e" x="739.291016"/>
      <use xlink:href="#DejaVuSans-20" x="802.669922"/>
      <use xlink:href="#DejaVuSans-49" x="834.457031"/>
      <use xlink:href="#DejaVuSans-6e" x="863.949219"/>
      <use xlink:href="#DejaVuSans-74" x="927.328125"/>
      <use xlink:href="#DejaVuSans-65" x="966.537109"/>
      <use xlink:href="#DejaVuSans-6e" x="1028.060547"/>
      <use xlink:href="#DejaVuSans-73" x="1091.439453"/>
      <use xlink:href="#DejaVuSans-69" x="1143.539062"/>
      <use xlink:href="#DejaVuSans-74" x="1171.322266"/>
      <use xlink:href="#DejaVuSans-79" x="1210.53125"/>
      <use xlink:href="#DejaVuSans-20" x="1269.710938"/>
      <use xlink:href="#DejaVuSans-28" x="1301.498047"/>
      <use xlink:href="#DejaVuSans-67" x="1340.511719"/>
      <use xlink:href="#DejaVuSans-43" x="1403.988281"/>
      <use xlink:href="#DejaVuSans-4f" x="1473.8125"/>
      <use xlink:href="#DejaVuSans-2082" x="1552.523438"/>
      <use xlink:href="#DejaVuSans-65" x="1592.611328"/>
      <use xlink:href="#DejaVuSans-71" x="1654.134766"/>
      <use xlink:href="#DejaVuSans-2f" x="1717.611328"/>
      <use xlink:href="#DejaVuSans-6b" x="1751.302734"/>
      <use xlink:href="#DejaVuSans-57" x="1809.212891"/>
      <use xlink:href="#DejaVuSans-68" x="1908.089844"/>
      <use xlink:href="#DejaVuSans-29" x="1971.46875"/>
     </g>
    </g>
   </g>
   <g id="line2d_33">
    <path d="M 53.31 180.559201 
L 80.856261 180.79887 
L 108.402522 186.062469 
L 135.948783 191.471001 
L 163.495043 196.371826 
L 191.041304 201.098036 
L 218.587565 204.419049 
L 246.133826 205.604636 
L 273.680087 205.048151 
L 301.226348 202.788233 
L 328.772609 199.082817 
L 356.31887 193.953889 
L 383.86513 190.975466 
L 411.411391 196.045301 
L 438.957652 204.693956 
L 466.503913 207.913086 
L 494.050174 207.445034 
L 521.596435 206.233445 
L 549.142696 205.162758 
L 576.688957 204.677448 
L 604.235217 204.370793 
L 631.781478 203.471991 
L 659.327739 199.029811 
L 686.874 188.462177 
" clip-path="url(#p668f101ba2)" style="fill: none; stroke: #4c72b0; stroke-opacity: 0.9; stroke-width: 1.5; stroke-linecap: round"/>
   </g>
   <g id="line2d_34">
    <path d="M 53.31 185.331811 
L 80.856261 186.065012 
L 108.402522 185.783264 
L 135.948783 184.165724 
L 163.495043 182.877619 
L 191.041304 183.92177 
L 218.587565 189.029482 
L 246.133826 198.341474 
L 273.680087 208.981791 
L 301.226348 217.643572 
L 328.772609 222.819524 
L 356.31887 224.895378 
L 383.86513 223.673362 
L 411.411391 218.579288 
L 438.957652 209.258594 
L 466.503913 196.315012 
L 494.050174 183.680982 
L 521.596435 175.244143 
L 549.142696 172.306893 
L 576.688957 173.183834 
L 604.235217 175.005415 
L 631.781478 177.359968 
L 659.327739 181.059198 
L 686.874 183.938272 
" clip-path="url(#p668f101ba2)" style="fill: none; stroke-dasharray: 5.55,2.4; stroke-dashoffset: 0; stroke: #dd8452; stroke-opacity: 0.9; stroke-width: 1.5"/>
   </g>
   <g id="line2d_35">
    <path d="M 53.31 46.053982 
L 80.856261 45.731606 
L 108.402522 45.21374 
L 135.948783 46.109578 
L 163.495043 49.174446 
L 191.041304 55.574429 
L 218.587565 61.597732 
L 246.133826 65.822818 
L 273.680087 68.103796 
L 301.226348 69.507099 
L 328.772609 70.334776 
L 356.31887 70.678988 
L 383.86513 70.398647 
L 411.411391 69.126369 
L 438.957652 66.115442 
L 466.503913 62.313124 
L 494.050174 60.883348 
L 521.596435 58.774975 
L 549.142696 55.650513 
L 576.688957 52.378939 
L 604.235217 48.553617 
L 631.781478 47.294707 
L 659.327739 46.754526 
L 686.874 46.364553 
" clip-path="url(#p668f101ba2)" style="fill: none; stroke-dasharray: 9.6,2.4,1.5,2.4; stroke-dashoffset: 0; stroke: #55a868; stroke-opacity: 0.9; stroke-width: 1.5"/>
   </g>
   <g id="line2d_36">
    <path d="M 53.31 286.594339 
L 80.856261 286.675998 
L 108.402522 287.561515 
L 135.948783 287.425476 
L 163.495043 286.368047 
L 191.041304 283.375614 
L 218.587565 279.276023 
L 246.133826 278.39845 
L 273.680087 281.666912 
L 301.226348 285.688202 
L 328.772609 289.52195 
L 356.31887 291.817341 
L 383.86513 292.741416 
L 411.411391 292.703299 
L 438.957652 290.814359 
L 466.503913 286.325767 
L 494.050174 279.893974 
L 521.596435 274.439087 
L 549.142696 271.130903 
L 576.688957 269.653828 
L 604.235217 270.009687 
L 631.781478 273.20531 
L 659.327739 279.671475 
L 686.874 284.912479 
" clip-path="url(#p668f101ba2)" style="fill: none; stroke: #c44e52; stroke-opacity: 0.9; stroke-width: 1.5; stroke-linecap: round"/>
   </g>
   <g id="line2d_37">
    <path d="M 53.31 155.664825 
L 80.856261 161.195016 
L 108.402522 163.2911 
L 135.948783 162.920035 
L 163.495043 160.327417 
L 191.041304 155.115723 
L 218.587565 147.869914 
L 246.133826 142.063664 
L 273.680087 136.56773 
L 301.226348 130.426201 
L 328.772609 125.457295 
L 356.31887 119.275106 
L 383.86513 112.737243 
L 411.411391 109.508056 
L 438.957652 105.33893 
L 466.503913 100.506138 
L 494.050174 97.474853 
L 521.596435 96.797801 
L 549.142696 98.139848 
L 576.688957 102.618952 
L 604.235217 112.511401 
L 631.781478 124.652517 
L 659.327739 136.902205 
L 686.874 147.596056 
" clip-path="url(#p668f101ba2)" style="fill: none; stroke-dasharray: 5.55,2.4; stroke-dashoffset: 0; stroke: #8172b3; stroke-opacity: 0.9; stroke-width: 1.5"/>
   </g>
   <g id="line2d_38">
    <path d="M 53.31 37.112096 
L 80.856261 37.09037 
L 108.402522 38.185086 
L 135.948783 38.845052 
L 163.495043 39.150649 
L 191.041304 39.46392 
L 218.587565 44.460474 
L 246.133826 46.820541 
L 273.680087 46.782412 
L 301.226348 46.993749 
L 328.772609 47.604748 
L 356.31887 47.820635 
L 383.86513 45.649348 
L 411.411391 42.405095 
L 438.957652 42.42019 
L 466.503913 42.831967 
L 494.050174 42.724591 
L 521.596435 42.740895 
L 549.142696 40.378635 
L 576.688957 38.392162 
L 604.235217 38.386806 
L 631.781478 38.460362 
L 659.327739 38.351979 
L 686.874 37.74277 
" clip-path="url(#p668f101ba2)" style="fill: none; stroke-dasharray: 9.6,2.4,1.5,2.4; stroke-dashoffset: 0; stroke: #937860; stroke-opacity: 0.9; stroke-width: 1.5"/>
   </g>
   <g id="line2d_39">
    <path d="M 53.31 245.455256 
L 80.856261 246.409523 
L 108.402522 248.393636 
L 135.948783 250.282689 
L 163.495043 252.728692 
L 191.041304 254.472267 
L 218.587565 255.623434 
L 246.133826 256.356648 
L 273.680087 256.265978 
L 301.226348 255.095633 
L 328.772609 253.253333 
L 356.31887 251.465434 
L 383.86513 249.958254 
L 411.411391 249.182057 
L 438.957652 249.290887 
L 466.503913 249.465619 
L 494.050174 249.469796 
L 521.596435 249.446139 
L 549.142696 249.431562 
L 576.688957 249.048354 
L 604.235217 247.988607 
L 631.781478 246.661031 
L 659.327739 245.554506 
L 686.874 245.114966 
" clip-path="url(#p668f101ba2)" style="fill: none; stroke: #da8bc3; stroke-opacity: 0.9; stroke-width: 1.5; stroke-linecap: round"/>
   </g>
   <g id="line2d_40">
    <path d="M 53.31 187.870967 
L 80.856261 187.281802 
L 108.402522 187.685884 
L 135.948783 189.616656 
L 163.495043 192.916848 
L 191.041304 195.637842 
L 218.587565 197.29681 
L 246.133826 198.268337 
L 273.680087 198.356797 
L 301.226348 197.380247 
L 328.772609 195.658623 
L 356.31887 194.447148 
L 383.86513 193.863473 
L 411.411391 193.812455 
L 438.957652 193.706974 
L 466.503913 193.396435 
L 494.050174 193.375084 
L 521.596435 193.572411 
L 549.142696 193.822747 
L 576.688957 193.966771 
L 604.235217 193.64388 
L 631.781478 192.385666 
L 659.327739 190.62789 
L 686.874 188.872137 
" clip-path="url(#p668f101ba2)" style="fill: none; stroke-dasharray: 5.55,2.4; stroke-dashoffset: 0; stroke: #8c8c8c; stroke-opacity: 0.9; stroke-width: 1.5"/>
   </g>
   <g id="line2d_41">
    <path d="M 53.31 264.87095 
L 80.856261 251.370607 
L 108.402522 242.617103 
L 135.948783 240.67407 
L 163.495043 240.231681 
L 191.041304 239.474991 
L 218.587565 239.609143 
L 246.133826 240.122929 
L 273.680087 240.699385 
L 301.226348 241.152758 
L 328.772609 241.197058 
L 356.31887 241.010728 
L 383.86513 240.547903 
L 411.411391 243.086006 
L 438.957652 253.635797 
L 466.503913 269.317308 
L 494.050174 281.767607 
L 521.596435 286.872428 
L 549.142696 288.370495 
L 576.688957 288.973562 
L 604.235217 289.000614 
L 631.781478 288.186839 
L 659.327739 285.607983 
L 686.874 278.228166 
" clip-path="url(#p668f101ba2)" style="fill: none; stroke-dasharray: 9.6,2.4,1.5,2.4; stroke-dashoffset: 0; stroke: #ccb974; stroke-opacity: 0.9; stroke-width: 1.5"/>
   </g>
   <g id="line2d_42">
    <path d="M 53.31 209.736457 
L 80.856261 207.94902 
L 108.402522 206.596882 
L 135.948783 204.978622 
L 163.495043 203.408723 
L 191.041304 202.517935 
L 218.587565 201.919005 
L 246.133826 201.522186 
L 273.680087 200.917493 
L 301.226348 200.796686 
L 328.772609 206.047375 
L 356.31887 225.387204 
L 383.86513 251.368382 
L 411.411391 264.043306 
L 438.957652 267.589171 
L 466.503913 269.225114 
L 494.050174 270.453233 
L 521.596435 271.247702 
L 549.142696 271.295241 
L 576.688957 269.65647 
L 604.235217 263.421883 
L 631.781478 245.192595 
L 659.327739 223.295279 
L 686.874 212.381275 
" clip-path="url(#p668f101ba2)" style="fill: none; stroke: #64b5cd; stroke-opacity: 0.9; stroke-width: 1.5; stroke-linecap: round"/>
   </g>
   <g id="line2d_43">
    <path d="M 53.31 177.421167 
L 80.856261 179.902429 
L 108.402522 182.095789 
L 135.948783 183.34056 
L 163.495043 182.063604 
L 191.041304 180.452916 
L 218.587565 178.326688 
L 246.133826 175.284027 
L 273.680087 172.297172 
L 301.226348 169.685287 
L 328.772609 168.249279 
L 356.31887 167.920937 
L 383.86513 168.132955 
L 411.411391 168.096127 
L 438.957652 168.083403 
L 466.503913 168.832594 
L 494.050174 169.064407 
L 521.596435 169.247169 
L 549.142696 169.436207 
L 576.688957 169.396768 
L 604.235217 169.438792 
L 631.781478 169.832022 
L 659.327739 171.54775 
L 686.874 174.355079 
" clip-path="url(#p668f101ba2)" style="fill: none; stroke-dasharray: 5.55,2.4; stroke-dashoffset: 0; stroke: #4c72b0; stroke-opacity: 0.9; stroke-width: 1.5"/>
   </g>
   <g id="line2d_44">
    <path d="M 53.31 180.436822 
L 80.856261 182.450014 
L 108.402522 184.089985 
L 135.948783 185.210349 
L 163.495043 185.709747 
L 191.041304 185.591998 
L 218.587565 184.661682 
L 246.133826 183.410839 
L 273.680087 181.995568 
L 301.226348 180.358029 
L 328.772609 179.160729 
L 356.31887 178.826869 
L 383.86513 178.476338 
L 411.411391 178.415844 
L 438.957652 178.371481 
L 466.503913 178.305451 
L 494.050174 178.208523 
L 521.596435 178.179591 
L 549.142696 178.126285 
L 576.688957 178.072103 
L 604.235217 178.076976 
L 631.781478 178.131224 
L 659.327739 178.510356 
L 686.874 178.903589 
" clip-path="url(#p668f101ba2)" style="fill: none; stroke-dasharray: 9.6,2.4,1.5,2.4; stroke-dashoffset: 0; stroke: #dd8452; stroke-opacity: 0.9; stroke-width: 1.5"/>
   </g>
   <g id="line2d_45">
    <path d="M 53.31 169.25827 
L 80.856261 175.263266 
L 108.402522 175.684087 
L 135.948783 172.44833 
L 163.495043 164.1483 
L 191.041304 147.019336 
L 218.587565 122.095296 
L 246.133826 102.3272 
L 273.680087 90.137712 
L 301.226348 80.916351 
L 328.772609 76.11208 
L 356.31887 72.875747 
L 383.86513 71.054822 
L 411.411391 69.745347 
L 438.957652 68.52929 
L 466.503913 68.043015 
L 494.050174 68.207799 
L 521.596435 68.317071 
L 549.142696 67.746789 
L 576.688957 67.961889 
L 604.235217 83.554994 
L 631.781478 112.854336 
L 659.327739 139.325696 
L 686.874 157.812323 
" clip-path="url(#p668f101ba2)" style="fill: none; stroke: #55a868; stroke-opacity: 0.9; stroke-width: 1.5; stroke-linecap: round"/>
   </g>
   <g id="line2d_46">
    <path d="M 53.31 309.931939 
L 80.856261 309.147683 
L 108.402522 307.90428 
L 135.948783 306.53217 
L 163.495043 305.265517 
L 191.041304 304.373715 
L 218.587565 303.884786 
L 246.133826 303.786064 
L 273.680087 304.084905 
L 301.226348 304.65961 
L 328.772609 305.776376 
L 356.31887 307.432963 
L 383.86513 308.453604 
L 411.411391 309.197853 
L 438.957652 309.593052 
L 466.503913 309.431021 
L 494.050174 309.775254 
L 521.596435 310.222503 
L 549.142696 310.282211 
L 576.688957 310.26199 
L 604.235217 310.083217 
L 631.781478 310.857087 
L 659.327739 310.949572 
L 686.874 310.341203 
" clip-path="url(#p668f101ba2)" style="fill: none; stroke-dasharray: 5.55,2.4; stroke-dashoffset: 0; stroke: #c44e52; stroke-opacity: 0.9; stroke-width: 1.5"/>
   </g>
   <g id="line2d_47">
    <path d="M 53.31 175.994138 
L 80.856261 186.277102 
L 108.402522 190.305188 
L 135.948783 190.397429 
L 163.495043 181.892366 
L 191.041304 168.81895 
L 218.587565 151.706931 
L 246.133826 134.630922 
L 273.680087 125.521787 
L 301.226348 122.837563 
L 328.772609 122.659836 
L 356.31887 122.916037 
L 383.86513 123.223365 
L 411.411391 123.406561 
L 438.957652 123.475413 
L 466.503913 123.853868 
L 494.050174 123.897616 
L 521.596435 123.767923 
L 549.142696 123.555471 
L 576.688957 123.566074 
L 604.235217 124.782156 
L 631.781478 131.388441 
L 659.327739 146.274871 
L 686.874 163.181445 
" clip-path="url(#p668f101ba2)" style="fill: none; stroke-dasharray: 9.6,2.4,1.5,2.4; stroke-dashoffset: 0; stroke: #8172b3; stroke-opacity: 0.9; stroke-width: 1.5"/>
   </g>
   <g id="line2d_48">
    <path d="M 53.31 318.598314 
L 80.856261 319.178516 
L 108.402522 320.534504 
L 135.948783 323.341359 
L 163.495043 326.894079 
L 191.041304 329.781289 
L 218.587565 332.031143 
L 246.133826 332.535263 
L 273.680087 332.118853 
L 301.226348 330.918791 
L 328.772609 329.025971 
L 356.31887 326.893132 
L 383.86513 324.907645 
L 411.411391 323.472138 
L 438.957652 322.418985 
L 466.503913 321.674226 
L 494.050174 321.176898 
L 521.596435 320.98197 
L 549.142696 320.88544 
L 576.688957 320.624635 
L 604.235217 320.171778 
L 631.781478 319.381403 
L 659.327739 318.66118 
L 686.874 318.374679 
" clip-path="url(#p668f101ba2)" style="fill: none; stroke: #937860; stroke-opacity: 0.9; stroke-width: 1.5; stroke-linecap: round"/>
   </g>
   <g id="patch_3">
    <path d="M 53.31 347.307508 
L 53.31 22.318125 
" style="fill: none; stroke: #cccccc; stroke-width: 1.25; stroke-linejoin: miter; stroke-linecap: square"/>
   </g>
   <g id="patch_4">
    <path d="M 686.874 347.307508 
L 686.874 22.318125 
" style="fill: none; stroke: #cccccc; stroke-width: 1.25; stroke-linejoin: miter; stroke-linecap: square"/>
   </g>
   <g id="patch_5">
    <path d="M 53.31 347.307508 
L 686.874 347.307508 
" style="fill: none; stroke: #cccccc; stroke-width: 1.25; stroke-linejoin: miter; stroke-linecap: square"/>
   </g>
   <g id="patch_6">
    <path d="M 53.31 22.318125 
L 686.874 22.318125 
" style="fill: none; stroke: #cccccc; stroke-width: 1.25; stroke-linejoin: miter; stroke-linecap: square"/>
   </g>
   <g id="text_35">
    <!-- Typical Daily Carbon Intensity Variation Across Locations -->
    <g style="fill: #262626" transform="translate(200.665125 16.318125) scale(0.12 -0.12)">
     <defs>
      <path id="DejaVuSans-70" d="M 1159 525 
L 1159 -1331 
L 581 -1331 
L 581 3500 
L 1159 3500 
L 1159 2969 
Q 1341 3281 1617 3432 
Q 1894 3584 2278 3584 
Q 2916 3584 3314 3078 
Q 3713 2572 3713 1747 
Q 3713 922 3314 415 
Q 2916 -91 2278 -91 
Q 1894 -91 1617 61 
Q 1341 213 1159 525 
z
M 3116 1747 
Q 3116 2381 2855 2742 
Q 2594 3103 2138 3103 
Q 1681 3103 1420 2742 
Q 1159 2381 1159 1747 
Q 1159 1113 1420 752 
Q 1681 391 2138 391 
Q 2594 391 2855 752 
Q 3116 1113 3116 1747 
z
" transform="scale(0.015625)"/>
      <path id="DejaVuSans-63" d="M 3122 3366 
L 3122 2828 
Q 2878 2963 2633 3030 
Q 2388 3097 2138 3097 
Q 1578 3097 1268 2742 
Q 959 2388 959 1747 
Q 959 1106 1268 751 
Q 1578 397 2138 397 
Q 2388 397 2633 464 
Q 2878 531 3122 666 
L 3122 134 
Q 2881 22 2623 -34 
Q 2366 -91 2075 -91 
Q 1284 -91 818 406 
Q 353 903 353 1747 
Q 353 2603 823 3093 
Q 1294 3584 2113 3584 
Q 2378 3584 2631 3529 
Q 2884 3475 3122 3366 
z
" transform="scale(0.015625)"/>
      <path id="DejaVuSans-6c" d="M 603 4863 
L 1178 4863 
L 1178 0 
L 603 0 
L 603 4863 
z
" transform="scale(0.015625)"/>
      <path id="DejaVuSans-56" d="M 1831 0 
L 50 4666 
L 709 4666 
L 2188 738 
L 3669 4666 
L 4325 4666 
L 2547 0 
L 1831 0 
z
" transform="scale(0.015625)"/>
      <path id="DejaVuSans-4c" d="M 628 4666 
L 1259 4666 
L 1259 531 
L 3531 531 
L 3531 0 
L 628 0 
L 628 4666 
z
" transform="scale(0.015625)"/>
     </defs>
     <use xlink:href="#DejaVuSans-54"/>
     <use xlink:href="#DejaVuSans-79" x="45.458984"/>
     <use xlink:href="#DejaVuSans-70" x="104.638672"/>
     <use xlink:href="#DejaVuSans-69" x="168.115234"/>
     <use xlink:href="#DejaVuSans-63" x="195.898438"/>
     <use xlink:href="#DejaVuSans-61" x="250.878906"/>
     <use xlink:href="#DejaVuSans-6c" x="312.158203"/>
     <use xlink:href="#DejaVuSans-20" x="339.941406"/>
     <use xlink:href="#DejaVuSans-44" x="371.728516"/>
     <use xlink:href="#DejaVuSans-61" x="448.730469"/>
     <use xlink:href="#DejaVuSans-69" x="510.009766"/>
     <use xlink:href="#DejaVuSans-6c" x="537.792969"/>
     <use xlink:href="#DejaVuSans-79" x="565.576172"/>
     <use xlink:href="#DejaVuSans-20" x="624.755859"/>
     <use xlink:href="#DejaVuSans-43" x="656.542969"/>
     <use xlink:href="#DejaVuSans-61" x="726.367188"/>
     <use xlink:href="#DejaVuSans-72" x="787.646484"/>
     <use xlink:href="#DejaVuSans-62" x="828.759766"/>
     <use xlink:href="#DejaVuSans-6f" x="892.236328"/>
     <use xlink:href="#DejaVuSans-6e" x="953.417969"/>
     <use xlink:href="#DejaVuSans-20" x="1016.796875"/>
     <use xlink:href="#DejaVuSans-49" x="1048.583984"/>
     <use xlink:href="#DejaVuSans-6e" x="1078.076172"/>
     <use xlink:href="#DejaVuSans-74" x="1141.455078"/>
     <use xlink:href="#DejaVuSans-65" x="1180.664062"/>
     <use xlink:href="#DejaVuSans-6e" x="1242.1875"/>
     <use xlink:href="#DejaVuSans-73" x="1305.566406"/>
     <use xlink:href="#DejaVuSans-69" x="1357.666016"/>
     <use xlink:href="#DejaVuSans-74" x="1385.449219"/>
     <use xlink:href="#DejaVuSans-79" x="1424.658203"/>
     <use xlink:href="#DejaVuSans-20" x="1483.837891"/>
     <use xlink:href="#DejaVuSans-56" x="1515.625"/>
     <use xlink:href="#DejaVuSans-61" x="1576.283203"/>
     <use xlink:href="#DejaVuSans-72" x="1637.5625"/>
     <use xlink:href="#DejaVuSans-69" x="1678.675781"/>
     <use xlink:href="#DejaVuSans-61" x="1706.458984"/>
     <use xlink:href="#DejaVuSans-74" x="1767.738281"/>
     <use xlink:href="#DejaVuSans-69" x="1806.947266"/>
     <use xlink:href="#DejaVuSans-6f" x="1834.730469"/>
     <use xlink:href="#DejaVuSans-6e" x="1895.912109"/>
     <use xlink:href="#DejaVuSans-20" x="1959.291016"/>
     <use xlink:href="#DejaVuSans-41" x="1991.078125"/>
     <use xlink:href="#DejaVuSans-63" x="2057.736328"/>
     <use xlink:href="#DejaVuSans-72" x="2112.716797"/>
     <use xlink:href="#DejaVuSans-6f" x="2151.580078"/>
     <use xlink:href="#DejaVuSans-73" x="2212.761719"/>
     <use xlink:href="#DejaVuSans-73" x="2264.861328"/>
     <use xlink:href="#DejaVuSans-20" x="2316.960938"/>
     <use xlink:href="#DejaVuSans-4c" x="2348.748047"/>
     <use xlink:href="#DejaVuSans-6f" x="2402.710938"/>
     <use xlink:href="#DejaVuSans-63" x="2463.892578"/>
     <use xlink:href="#DejaVuSans-61" x="2518.873047"/>
     <use xlink:href="#DejaVuSans-74" x="2580.152344"/>
     <use xlink:href="#DejaVuSans-69" x="2619.361328"/>
     <use xlink:href="#DejaVuSans-6f" x="2647.144531"/>
     <use xlink:href="#DejaVuSans-6e" x="2708.326172"/>
     <use xlink:href="#DejaVuSans-73" x="2771.705078"/>
    </g>
   </g>
   <g id="legend_1">
    <g id="patch_7">
     <path d="M 695.40964 283.953125 
L 832.64839 283.953125 
Q 834.84839 283.953125 834.84839 281.753125 
L 834.84839 24.518125 
Q 834.84839 22.318125 832.64839 22.318125 
L 695.40964 22.318125 
Q 693.20964 22.318125 693.20964 24.518125 
L 693.20964 281.753125 
Q 693.20964 283.953125 695.40964 283.953125 
z
" style="fill: #ffffff; opacity: 0.8; stroke: #cccccc; stroke-linejoin: miter"/>
    </g>
    <g id="line2d_49">
     <path d="M 697.60964 31.226406 
L 708.60964 31.226406 
L 719.60964 31.226406 
" style="fill: none; stroke: #4c72b0; stroke-opacity: 0.9; stroke-width: 1.5; stroke-linecap: round"/>
    </g>
    <g id="text_36">
     <!-- Dallas/USA -->
     <g style="fill: #262626" transform="translate(728.40964 35.076406) scale(0.11 -0.11)">
      <defs>
       <path id="DejaVuSans-53" d="M 3425 4513 
L 3425 3897 
Q 3066 4069 2747 4153 
Q 2428 4238 2131 4238 
Q 1616 4238 1336 4038 
Q 1056 3838 1056 3469 
Q 1056 3159 1242 3001 
Q 1428 2844 1947 2747 
L 2328 2669 
Q 3034 2534 3370 2195 
Q 3706 1856 3706 1288 
Q 3706 609 3251 259 
Q 2797 -91 1919 -91 
Q 1588 -91 1214 -16 
Q 841 59 441 206 
L 441 856 
Q 825 641 1194 531 
Q 1563 422 1919 422 
Q 2459 422 2753 634 
Q 3047 847 3047 1241 
Q 3047 1584 2836 1778 
Q 2625 1972 2144 2069 
L 1759 2144 
Q 1053 2284 737 2584 
Q 422 2884 422 3419 
Q 422 4038 858 4394 
Q 1294 4750 2059 4750 
Q 2388 4750 2728 4690 
Q 3069 4631 3425 4513 
z
" transform="scale(0.015625)"/>
      </defs>
      <use xlink:href="#DejaVuSans-44"/>
      <use xlink:href="#DejaVuSans-61" x="77.001953"/>
      <use xlink:href="#DejaVuSans-6c" x="138.28125"/>
      <use xlink:href="#DejaVuSans-6c" x="166.064453"/>
      <use xlink:href="#DejaVuSans-61" x="193.847656"/>
      <use xlink:href="#DejaVuSans-73" x="255.126953"/>
      <use xlink:href="#DejaVuSans-2f" x="307.226562"/>
      <use xlink:href="#DejaVuSans-55" x="340.917969"/>
      <use xlink:href="#DejaVuSans-53" x="414.111328"/>
      <use xlink:href="#DejaVuSans-41" x="479.462891"/>
     </g>
    </g>
    <g id="line2d_50">
     <path d="M 697.60964 47.372344 
L 708.60964 47.372344 
L 719.60964 47.372344 
" style="fill: none; stroke-dasharray: 5.55,2.4; stroke-dashoffset: 0; stroke: #dd8452; stroke-opacity: 0.9; stroke-width: 1.5"/>
    </g>
    <g id="text_37">
     <!-- Frankfurt/GE -->
     <g style="fill: #262626" transform="translate(728.40964 51.222344) scale(0.11 -0.11)">
      <defs>
       <path id="DejaVuSans-46" d="M 628 4666 
L 3309 4666 
L 3309 4134 
L 1259 4134 
L 1259 2759 
L 3109 2759 
L 3109 2228 
L 1259 2228 
L 1259 0 
L 628 0 
L 628 4666 
z
" transform="scale(0.015625)"/>
       <path id="DejaVuSans-75" d="M 544 1381 
L 544 3500 
L 1119 3500 
L 1119 1403 
Q 1119 906 1312 657 
Q 1506 409 1894 409 
Q 2359 409 2629 706 
Q 2900 1003 2900 1516 
L 2900 3500 
L 3475 3500 
L 3475 0 
L 2900 0 
L 2900 538 
Q 2691 219 2414 64 
Q 2138 -91 1772 -91 
Q 1169 -91 856 284 
Q 544 659 544 1381 
z
M 1991 3584 
L 1991 3584 
z
" transform="scale(0.015625)"/>
       <path id="DejaVuSans-47" d="M 3809 666 
L 3809 1919 
L 2778 1919 
L 2778 2438 
L 4434 2438 
L 4434 434 
Q 4069 175 3628 42 
Q 3188 -91 2688 -91 
Q 1594 -91 976 548 
Q 359 1188 359 2328 
Q 359 3472 976 4111 
Q 1594 4750 2688 4750 
Q 3144 4750 3555 4637 
Q 3966 4525 4313 4306 
L 4313 3634 
Q 3963 3931 3569 4081 
Q 3175 4231 2741 4231 
Q 1884 4231 1454 3753 
Q 1025 3275 1025 2328 
Q 1025 1384 1454 906 
Q 1884 428 2741 428 
Q 3075 428 3337 486 
Q 3600 544 3809 666 
z
" transform="scale(0.015625)"/>
       <path id="DejaVuSans-45" d="M 628 4666 
L 3578 4666 
L 3578 4134 
L 1259 4134 
L 1259 2753 
L 3481 2753 
L 3481 2222 
L 1259 2222 
L 1259 531 
L 3634 531 
L 3634 0 
L 628 0 
L 628 4666 
z
" transform="scale(0.015625)"/>
      </defs>
      <use xlink:href="#DejaVuSans-46"/>
      <use xlink:href="#DejaVuSans-72" x="50.269531"/>
      <use xlink:href="#DejaVuSans-61" x="91.382812"/>
      <use xlink:href="#DejaVuSans-6e" x="152.662109"/>
      <use xlink:href="#DejaVuSans-6b" x="216.041016"/>
      <use xlink:href="#DejaVuSans-66" x="273.951172"/>
      <use xlink:href="#DejaVuSans-75" x="309.15625"/>
      <use xlink:href="#DejaVuSans-72" x="372.535156"/>
      <use xlink:href="#DejaVuSans-74" x="413.648438"/>
      <use xlink:href="#DejaVuSans-2f" x="452.857422"/>
      <use xlink:href="#DejaVuSans-47" x="486.548828"/>
      <use xlink:href="#DejaVuSans-45" x="564.039062"/>
     </g>
    </g>
    <g id="line2d_51">
     <path d="M 697.60964 63.518281 
L 708.60964 63.518281 
L 719.60964 63.518281 
" style="fill: none; stroke-dasharray: 9.6,2.4,1.5,2.4; stroke-dashoffset: 0; stroke: #55a868; stroke-opacity: 0.9; stroke-width: 1.5"/>
    </g>
    <g id="text_38">
     <!-- Johannesburg/ZA -->
     <g style="fill: #262626" transform="translate(728.40964 67.368281) scale(0.11 -0.11)">
      <defs>
       <path id="DejaVuSans-4a" d="M 628 4666 
L 1259 4666 
L 1259 325 
Q 1259 -519 939 -900 
Q 619 -1281 -91 -1281 
L -331 -1281 
L -331 -750 
L -134 -750 
Q 284 -750 456 -515 
Q 628 -281 628 325 
L 628 4666 
z
" transform="scale(0.015625)"/>
       <path id="DejaVuSans-5a" d="M 359 4666 
L 4025 4666 
L 4025 4184 
L 1075 531 
L 4097 531 
L 4097 0 
L 288 0 
L 288 481 
L 3238 4134 
L 359 4134 
L 359 4666 
z
" transform="scale(0.015625)"/>
      </defs>
      <use xlink:href="#DejaVuSans-4a"/>
      <use xlink:href="#DejaVuSans-6f" x="29.492188"/>
      <use xlink:href="#DejaVuSans-68" x="90.673828"/>
      <use xlink:href="#DejaVuSans-61" x="154.052734"/>
      <use xlink:href="#DejaVuSans-6e" x="215.332031"/>
      <use xlink:href="#DejaVuSans-6e" x="278.710938"/>
      <use xlink:href="#DejaVuSans-65" x="342.089844"/>
      <use xlink:href="#DejaVuSans-73" x="403.613281"/>
      <use xlink:href="#DejaVuSans-62" x="455.712891"/>
      <use xlink:href="#DejaVuSans-75" x="519.189453"/>
      <use xlink:href="#DejaVuSans-72" x="582.568359"/>
      <use xlink:href="#DejaVuSans-67" x="621.931641"/>
      <use xlink:href="#DejaVuSans-2f" x="685.408203"/>
      <use xlink:href="#DejaVuSans-5a" x="719.099609"/>
      <use xlink:href="#DejaVuSans-41" x="787.605469"/>
     </g>
    </g>
    <g id="line2d_52">
     <path d="M 697.60964 79.664219 
L 708.60964 79.664219 
L 719.60964 79.664219 
" style="fill: none; stroke: #c44e52; stroke-opacity: 0.9; stroke-width: 1.5; stroke-linecap: round"/>
    </g>
    <g id="text_39">
     <!-- London/UK -->
     <g style="fill: #262626" transform="translate(728.40964 83.514219) scale(0.11 -0.11)">
      <defs>
       <path id="DejaVuSans-64" d="M 2906 2969 
L 2906 4863 
L 3481 4863 
L 3481 0 
L 2906 0 
L 2906 525 
Q 2725 213 2448 61 
Q 2172 -91 1784 -91 
Q 1150 -91 751 415 
Q 353 922 353 1747 
Q 353 2572 751 3078 
Q 1150 3584 1784 3584 
Q 2172 3584 2448 3432 
Q 2725 3281 2906 2969 
z
M 947 1747 
Q 947 1113 1208 752 
Q 1469 391 1925 391 
Q 2381 391 2643 752 
Q 2906 1113 2906 1747 
Q 2906 2381 2643 2742 
Q 2381 3103 1925 3103 
Q 1469 3103 1208 2742 
Q 947 2381 947 1747 
z
" transform="scale(0.015625)"/>
       <path id="DejaVuSans-4b" d="M 628 4666 
L 1259 4666 
L 1259 2694 
L 3353 4666 
L 4166 4666 
L 1850 2491 
L 4331 0 
L 3500 0 
L 1259 2247 
L 1259 0 
L 628 0 
L 628 4666 
z
" transform="scale(0.015625)"/>
      </defs>
      <use xlink:href="#DejaVuSans-4c"/>
      <use xlink:href="#DejaVuSans-6f" x="53.962891"/>
      <use xlink:href="#DejaVuSans-6e" x="115.144531"/>
      <use xlink:href="#DejaVuSans-64" x="178.523438"/>
      <use xlink:href="#DejaVuSans-6f" x="242"/>
      <use xlink:href="#DejaVuSans-6e" x="303.181641"/>
      <use xlink:href="#DejaVuSans-2f" x="366.560547"/>
      <use xlink:href="#DejaVuSans-55" x="400.251953"/>
      <use xlink:href="#DejaVuSans-4b" x="473.445312"/>
     </g>
    </g>
    <g id="line2d_53">
     <path d="M 697.60964 95.810156 
L 708.60964 95.810156 
L 719.60964 95.810156 
" style="fill: none; stroke-dasharray: 5.55,2.4; stroke-dashoffset: 0; stroke: #8172b3; stroke-opacity: 0.9; stroke-width: 1.5"/>
    </g>
    <g id="text_40">
     <!-- Melbourne/AU -->
     <g style="fill: #262626" transform="translate(728.40964 99.660156) scale(0.11 -0.11)">
      <use xlink:href="#DejaVuSans-4d"/>
      <use xlink:href="#DejaVuSans-65" x="86.279297"/>
      <use xlink:href="#DejaVuSans-6c" x="147.802734"/>
      <use xlink:href="#DejaVuSans-62" x="175.585938"/>
      <use xlink:href="#DejaVuSans-6f" x="239.0625"/>
      <use xlink:href="#DejaVuSans-75" x="300.244141"/>
      <use xlink:href="#DejaVuSans-72" x="363.623047"/>
      <use xlink:href="#DejaVuSans-6e" x="402.986328"/>
      <use xlink:href="#DejaVuSans-65" x="466.365234"/>
      <use xlink:href="#DejaVuSans-2f" x="527.888672"/>
      <use xlink:href="#DejaVuSans-41" x="561.580078"/>
      <use xlink:href="#DejaVuSans-55" x="629.988281"/>
     </g>
    </g>
    <g id="line2d_54">
     <path d="M 697.60964 111.956094 
L 708.60964 111.956094 
L 719.60964 111.956094 
" style="fill: none; stroke-dasharray: 9.6,2.4,1.5,2.4; stroke-dashoffset: 0; stroke: #937860; stroke-opacity: 0.9; stroke-width: 1.5"/>
    </g>
    <g id="text_41">
     <!-- Mumbai/IN -->
     <g style="fill: #262626" transform="translate(728.40964 115.806094) scale(0.11 -0.11)">
      <defs>
       <path id="DejaVuSans-4e" d="M 628 4666 
L 1478 4666 
L 3547 763 
L 3547 4666 
L 4159 4666 
L 4159 0 
L 3309 0 
L 1241 3903 
L 1241 0 
L 628 0 
L 628 4666 
z
" transform="scale(0.015625)"/>
      </defs>
      <use xlink:href="#DejaVuSans-4d"/>
      <use xlink:href="#DejaVuSans-75" x="86.279297"/>
      <use xlink:href="#DejaVuSans-6d" x="149.658203"/>
      <use xlink:href="#DejaVuSans-62" x="247.070312"/>
      <use xlink:href="#DejaVuSans-61" x="310.546875"/>
      <use xlink:href="#DejaVuSans-69" x="371.826172"/>
      <use xlink:href="#DejaVuSans-2f" x="399.609375"/>
      <use xlink:href="#DejaVuSans-49" x="433.300781"/>
      <use xlink:href="#DejaVuSans-4e" x="462.792969"/>
     </g>
    </g>
    <g id="line2d_55">
     <path d="M 697.60964 128.102031 
L 708.60964 128.102031 
L 719.60964 128.102031 
" style="fill: none; stroke: #da8bc3; stroke-opacity: 0.9; stroke-width: 1.5; stroke-linecap: round"/>
    </g>
    <g id="text_42">
     <!-- New York/USA -->
     <g style="fill: #262626" transform="translate(728.40964 131.952031) scale(0.11 -0.11)">
      <defs>
       <path id="DejaVuSans-77" d="M 269 3500 
L 844 3500 
L 1563 769 
L 2278 3500 
L 2956 3500 
L 3675 769 
L 4391 3500 
L 4966 3500 
L 4050 0 
L 3372 0 
L 2619 2869 
L 1863 0 
L 1184 0 
L 269 3500 
z
" transform="scale(0.015625)"/>
       <path id="DejaVuSans-59" d="M -13 4666 
L 666 4666 
L 1959 2747 
L 3244 4666 
L 3922 4666 
L 2272 2222 
L 2272 0 
L 1638 0 
L 1638 2222 
L -13 4666 
z
" transform="scale(0.015625)"/>
      </defs>
      <use xlink:href="#DejaVuSans-4e"/>
      <use xlink:href="#DejaVuSans-65" x="74.804688"/>
      <use xlink:href="#DejaVuSans-77" x="136.328125"/>
      <use xlink:href="#DejaVuSans-20" x="218.115234"/>
      <use xlink:href="#DejaVuSans-59" x="249.902344"/>
      <use xlink:href="#DejaVuSans-6f" x="297.736328"/>
      <use xlink:href="#DejaVuSans-72" x="358.917969"/>
      <use xlink:href="#DejaVuSans-6b" x="400.03125"/>
      <use xlink:href="#DejaVuSans-2f" x="457.941406"/>
      <use xlink:href="#DejaVuSans-55" x="491.632812"/>
      <use xlink:href="#DejaVuSans-53" x="564.826172"/>
      <use xlink:href="#DejaVuSans-41" x="630.177734"/>
     </g>
    </g>
    <g id="line2d_56">
     <path d="M 697.60964 144.247969 
L 708.60964 144.247969 
L 719.60964 144.247969 
" style="fill: none; stroke-dasharray: 5.55,2.4; stroke-dashoffset: 0; stroke: #8c8c8c; stroke-opacity: 0.9; stroke-width: 1.5"/>
    </g>
    <g id="text_43">
     <!-- Philadelphia/USA -->
     <g style="fill: #262626" transform="translate(728.40964 148.097969) scale(0.11 -0.11)">
      <defs>
       <path id="DejaVuSans-50" d="M 1259 4147 
L 1259 2394 
L 2053 2394 
Q 2494 2394 2734 2622 
Q 2975 2850 2975 3272 
Q 2975 3691 2734 3919 
Q 2494 4147 2053 4147 
L 1259 4147 
z
M 628 4666 
L 2053 4666 
Q 2838 4666 3239 4311 
Q 3641 3956 3641 3272 
Q 3641 2581 3239 2228 
Q 2838 1875 2053 1875 
L 1259 1875 
L 1259 0 
L 628 0 
L 628 4666 
z
" transform="scale(0.015625)"/>
      </defs>
      <use xlink:href="#DejaVuSans-50"/>
      <use xlink:href="#DejaVuSans-68" x="60.302734"/>
      <use xlink:href="#DejaVuSans-69" x="123.681641"/>
      <use xlink:href="#DejaVuSans-6c" x="151.464844"/>
      <use xlink:href="#DejaVuSans-61" x="179.248047"/>
      <use xlink:href="#DejaVuSans-64" x="240.527344"/>
      <use xlink:href="#DejaVuSans-65" x="304.003906"/>
      <use xlink:href="#DejaVuSans-6c" x="365.527344"/>
      <use xlink:href="#DejaVuSans-70" x="393.310547"/>
      <use xlink:href="#DejaVuSans-68" x="456.787109"/>
      <use xlink:href="#DejaVuSans-69" x="520.166016"/>
      <use xlink:href="#DejaVuSans-61" x="547.949219"/>
      <use xlink:href="#DejaVuSans-2f" x="609.228516"/>
      <use xlink:href="#DejaVuSans-55" x="642.919922"/>
      <use xlink:href="#DejaVuSans-53" x="716.113281"/>
      <use xlink:href="#DejaVuSans-41" x="781.464844"/>
     </g>
    </g>
    <g id="line2d_57">
     <path d="M 697.60964 160.393906 
L 708.60964 160.393906 
L 719.60964 160.393906 
" style="fill: none; stroke-dasharray: 9.6,2.4,1.5,2.4; stroke-dashoffset: 0; stroke: #ccb974; stroke-opacity: 0.9; stroke-width: 1.5"/>
    </g>
    <g id="text_44">
     <!-- San Francisco/USA -->
     <g style="fill: #262626" transform="translate(728.40964 164.243906) scale(0.11 -0.11)">
      <use xlink:href="#DejaVuSans-53"/>
      <use xlink:href="#DejaVuSans-61" x="63.476562"/>
      <use xlink:href="#DejaVuSans-6e" x="124.755859"/>
      <use xlink:href="#DejaVuSans-20" x="188.134766"/>
      <use xlink:href="#DejaVuSans-46" x="219.921875"/>
      <use xlink:href="#DejaVuSans-72" x="270.191406"/>
      <use xlink:href="#DejaVuSans-61" x="311.304688"/>
      <use xlink:href="#DejaVuSans-6e" x="372.583984"/>
      <use xlink:href="#DejaVuSans-63" x="435.962891"/>
      <use xlink:href="#DejaVuSans-69" x="490.943359"/>
      <use xlink:href="#DejaVuSans-73" x="518.726562"/>
      <use xlink:href="#DejaVuSans-63" x="570.826172"/>
      <use xlink:href="#DejaVuSans-6f" x="625.806641"/>
      <use xlink:href="#DejaVuSans-2f" x="686.988281"/>
      <use xlink:href="#DejaVuSans-55" x="720.679688"/>
      <use xlink:href="#DejaVuSans-53" x="793.873047"/>
      <use xlink:href="#DejaVuSans-41" x="859.224609"/>
     </g>
    </g>
    <g id="line2d_58">
     <path d="M 697.60964 176.539844 
L 708.60964 176.539844 
L 719.60964 176.539844 
" style="fill: none; stroke: #64b5cd; stroke-opacity: 0.9; stroke-width: 1.5; stroke-linecap: round"/>
    </g>
    <g id="text_45">
     <!-- Santiago/CL -->
     <g style="fill: #262626" transform="translate(728.40964 180.389844) scale(0.11 -0.11)">
      <use xlink:href="#DejaVuSans-53"/>
      <use xlink:href="#DejaVuSans-61" x="63.476562"/>
      <use xlink:href="#DejaVuSans-6e" x="124.755859"/>
      <use xlink:href="#DejaVuSans-74" x="188.134766"/>
      <use xlink:href="#DejaVuSans-69" x="227.34375"/>
      <use xlink:href="#DejaVuSans-61" x="255.126953"/>
      <use xlink:href="#DejaVuSans-67" x="316.40625"/>
      <use xlink:href="#DejaVuSans-6f" x="379.882812"/>
      <use xlink:href="#DejaVuSans-2f" x="441.064453"/>
      <use xlink:href="#DejaVuSans-43" x="474.755859"/>
      <use xlink:href="#DejaVuSans-4c" x="544.580078"/>
     </g>
    </g>
    <g id="line2d_59">
     <path d="M 697.60964 192.685781 
L 708.60964 192.685781 
L 719.60964 192.685781 
" style="fill: none; stroke-dasharray: 5.55,2.4; stroke-dashoffset: 0; stroke: #4c72b0; stroke-opacity: 0.9; stroke-width: 1.5"/>
    </g>
    <g id="text_46">
     <!-- Seoul/KR -->
     <g style="fill: #262626" transform="translate(728.40964 196.535781) scale(0.11 -0.11)">
      <defs>
       <path id="DejaVuSans-52" d="M 2841 2188 
Q 3044 2119 3236 1894 
Q 3428 1669 3622 1275 
L 4263 0 
L 3584 0 
L 2988 1197 
Q 2756 1666 2539 1819 
Q 2322 1972 1947 1972 
L 1259 1972 
L 1259 0 
L 628 0 
L 628 4666 
L 2053 4666 
Q 2853 4666 3247 4331 
Q 3641 3997 3641 3322 
Q 3641 2881 3436 2590 
Q 3231 2300 2841 2188 
z
M 1259 4147 
L 1259 2491 
L 2053 2491 
Q 2509 2491 2742 2702 
Q 2975 2913 2975 3322 
Q 2975 3731 2742 3939 
Q 2509 4147 2053 4147 
L 1259 4147 
z
" transform="scale(0.015625)"/>
      </defs>
      <use xlink:href="#DejaVuSans-53"/>
      <use xlink:href="#DejaVuSans-65" x="63.476562"/>
      <use xlink:href="#DejaVuSans-6f" x="125"/>
      <use xlink:href="#DejaVuSans-75" x="186.181641"/>
      <use xlink:href="#DejaVuSans-6c" x="249.560547"/>
      <use xlink:href="#DejaVuSans-2f" x="277.34375"/>
      <use xlink:href="#DejaVuSans-4b" x="311.035156"/>
      <use xlink:href="#DejaVuSans-52" x="376.611328"/>
     </g>
    </g>
    <g id="line2d_60">
     <path d="M 697.60964 208.831719 
L 708.60964 208.831719 
L 719.60964 208.831719 
" style="fill: none; stroke-dasharray: 9.6,2.4,1.5,2.4; stroke-dashoffset: 0; stroke: #dd8452; stroke-opacity: 0.9; stroke-width: 1.5"/>
    </g>
    <g id="text_47">
     <!-- Singapore/SG -->
     <g style="fill: #262626" transform="translate(728.40964 212.681719) scale(0.11 -0.11)">
      <use xlink:href="#DejaVuSans-53"/>
      <use xlink:href="#DejaVuSans-69" x="63.476562"/>
      <use xlink:href="#DejaVuSans-6e" x="91.259766"/>
      <use xlink:href="#DejaVuSans-67" x="154.638672"/>
      <use xlink:href="#DejaVuSans-61" x="218.115234"/>
      <use xlink:href="#DejaVuSans-70" x="279.394531"/>
      <use xlink:href="#DejaVuSans-6f" x="342.871094"/>
      <use xlink:href="#DejaVuSans-72" x="404.052734"/>
      <use xlink:href="#DejaVuSans-65" x="442.916016"/>
      <use xlink:href="#DejaVuSans-2f" x="504.439453"/>
      <use xlink:href="#DejaVuSans-53" x="538.130859"/>
      <use xlink:href="#DejaVuSans-47" x="601.607422"/>
     </g>
    </g>
    <g id="line2d_61">
     <path d="M 697.60964 224.977656 
L 708.60964 224.977656 
L 719.60964 224.977656 
" style="fill: none; stroke: #55a868; stroke-opacity: 0.9; stroke-width: 1.5; stroke-linecap: round"/>
    </g>
    <g id="text_48">
     <!-- Sydney/AU -->
     <g style="fill: #262626" transform="translate(728.40964 228.827656) scale(0.11 -0.11)">
      <use xlink:href="#DejaVuSans-53"/>
      <use xlink:href="#DejaVuSans-79" x="63.476562"/>
      <use xlink:href="#DejaVuSans-64" x="122.65625"/>
      <use xlink:href="#DejaVuSans-6e" x="186.132812"/>
      <use xlink:href="#DejaVuSans-65" x="249.511719"/>
      <use xlink:href="#DejaVuSans-79" x="311.035156"/>
      <use xlink:href="#DejaVuSans-2f" x="370.214844"/>
      <use xlink:href="#DejaVuSans-41" x="403.90625"/>
      <use xlink:href="#DejaVuSans-55" x="472.314453"/>
     </g>
    </g>
    <g id="line2d_62">
     <path d="M 697.60964 241.123594 
L 708.60964 241.123594 
L 719.60964 241.123594 
" style="fill: none; stroke-dasharray: 5.55,2.4; stroke-dashoffset: 0; stroke: #c44e52; stroke-opacity: 0.9; stroke-width: 1.5"/>
    </g>
    <g id="text_49">
     <!-- São Paulo/BR -->
     <g style="fill: #262626" transform="translate(728.40964 244.973594) scale(0.11 -0.11)">
      <defs>
       <path id="DejaVuSans-e3" d="M 2194 1759 
Q 1497 1759 1228 1600 
Q 959 1441 959 1056 
Q 959 750 1161 570 
Q 1363 391 1709 391 
Q 2188 391 2477 730 
Q 2766 1069 2766 1631 
L 2766 1759 
L 2194 1759 
z
M 3341 1997 
L 3341 0 
L 2766 0 
L 2766 531 
Q 2569 213 2275 61 
Q 1981 -91 1556 -91 
Q 1019 -91 701 211 
Q 384 513 384 1019 
Q 384 1609 779 1909 
Q 1175 2209 1959 2209 
L 2766 2209 
L 2766 2266 
Q 2766 2663 2505 2880 
Q 2244 3097 1772 3097 
Q 1472 3097 1187 3025 
Q 903 2953 641 2809 
L 641 3341 
Q 956 3463 1253 3523 
Q 1550 3584 1831 3584 
Q 2591 3584 2966 3190 
Q 3341 2797 3341 1997 
z
M 1844 4281 
L 1665 4453 
Q 1597 4516 1545 4545 
Q 1494 4575 1453 4575 
Q 1334 4575 1278 4461 
Q 1222 4347 1215 4091 
L 825 4091 
Q 831 4513 990 4742 
Q 1150 4972 1434 4972 
Q 1553 4972 1653 4928 
Q 1753 4884 1869 4781 
L 2047 4609 
Q 2115 4547 2167 4517 
Q 2219 4488 2259 4488 
Q 2378 4488 2434 4602 
Q 2490 4716 2497 4972 
L 2887 4972 
Q 2881 4550 2721 4320 
Q 2562 4091 2278 4091 
Q 2159 4091 2059 4134 
Q 1959 4178 1844 4281 
z
" transform="scale(0.015625)"/>
       <path id="DejaVuSans-42" d="M 1259 2228 
L 1259 519 
L 2272 519 
Q 2781 519 3026 730 
Q 3272 941 3272 1375 
Q 3272 1813 3026 2020 
Q 2781 2228 2272 2228 
L 1259 2228 
z
M 1259 4147 
L 1259 2741 
L 2194 2741 
Q 2656 2741 2882 2914 
Q 3109 3088 3109 3444 
Q 3109 3797 2882 3972 
Q 2656 4147 2194 4147 
L 1259 4147 
z
M 628 4666 
L 2241 4666 
Q 2963 4666 3353 4366 
Q 3744 4066 3744 3513 
Q 3744 3084 3544 2831 
Q 3344 2578 2956 2516 
Q 3422 2416 3680 2098 
Q 3938 1781 3938 1306 
Q 3938 681 3513 340 
Q 3088 0 2303 0 
L 628 0 
L 628 4666 
z
" transform="scale(0.015625)"/>
      </defs>
      <use xlink:href="#DejaVuSans-53"/>
      <use xlink:href="#DejaVuSans-e3" x="63.476562"/>
      <use xlink:href="#DejaVuSans-6f" x="124.755859"/>
      <use xlink:href="#DejaVuSans-20" x="185.9375"/>
      <use xlink:href="#DejaVuSans-50" x="217.724609"/>
      <use xlink:href="#DejaVuSans-61" x="273.527344"/>
      <use xlink:href="#DejaVuSans-75" x="334.806641"/>
      <use xlink:href="#DejaVuSans-6c" x="398.185547"/>
      <use xlink:href="#DejaVuSans-6f" x="425.96875"/>
      <use xlink:href="#DejaVuSans-2f" x="487.150391"/>
      <use xlink:href="#DejaVuSans-42" x="520.841797"/>
      <use xlink:href="#DejaVuSans-52" x="589.445312"/>
     </g>
    </g>
    <g id="line2d_63">
     <path d="M 697.60964 257.269531 
L 708.60964 257.269531 
L 719.60964 257.269531 
" style="fill: none; stroke-dasharray: 9.6,2.4,1.5,2.4; stroke-dashoffset: 0; stroke: #8172b3; stroke-opacity: 0.9; stroke-width: 1.5"/>
    </g>
    <g id="text_50">
     <!-- Tokyo/JP -->
     <g style="fill: #262626" transform="translate(728.40964 261.119531) scale(0.11 -0.11)">
      <use xlink:href="#DejaVuSans-54"/>
      <use xlink:href="#DejaVuSans-6f" x="44.083984"/>
      <use xlink:href="#DejaVuSans-6b" x="105.265625"/>
      <use xlink:href="#DejaVuSans-79" x="159.550781"/>
      <use xlink:href="#DejaVuSans-6f" x="218.730469"/>
      <use xlink:href="#DejaVuSans-2f" x="279.912109"/>
      <use xlink:href="#DejaVuSans-4a" x="313.603516"/>
      <use xlink:href="#DejaVuSans-50" x="343.095703"/>
     </g>
    </g>
    <g id="line2d_64">
     <path d="M 697.60964 273.415469 
L 708.60964 273.415469 
L 719.60964 273.415469 
" style="fill: none; stroke: #937860; stroke-opacity: 0.9; stroke-width: 1.5; stroke-linecap: round"/>
    </g>
    <g id="text_51">
     <!-- Toronto/CA -->
     <g style="fill: #262626" transform="translate(728.40964 277.265469) scale(0.11 -0.11)">
      <use xlink:href="#DejaVuSans-54"/>
      <use xlink:href="#DejaVuSans-6f" x="44.083984"/>
      <use xlink:href="#DejaVuSans-72" x="105.265625"/>
      <use xlink:href="#DejaVuSans-6f" x="144.128906"/>
      <use xlink:href="#DejaVuSans-6e" x="205.310547"/>
      <use xlink:href="#DejaVuSans-74" x="268.689453"/>
      <use xlink:href="#DejaVuSans-6f" x="307.898438"/>
      <use xlink:href="#DejaVuSans-2f" x="369.080078"/>
      <use xlink:href="#DejaVuSans-43" x="402.771484"/>
      <use xlink:href="#DejaVuSans-41" x="472.595703"/>
     </g>
    </g>
   </g>
  </g>
 </g>
 <defs>
  <clipPath id="p668f101ba2">
   <rect x="53.31" y="22.318125" width="633.564" height="324.989383"/>
  </clipPath>
 </defs>
</svg>
